STARTFONT 2.1
COMMENT $XFree86$
COMMENT ISO10646-1 extension by Markus Kuhn <mkuhn@acm.org>, 2001-03-20
COMMENT  (c) Copyright Bigelow & Holmes 1986, 1985. Lucida is a registered
COMMENT  trademark of Bigelow & Holmes. See LEGAL NOTICE file for terms 
COMMENT  of the license. 
FONT -B&H-LucidaBright-DemiBold-R-Normal--26-190-100-100-P-155-ISO10646-1
SIZE 19 100 100
FONTBOUNDINGBOX 46 39 -17 -10
STARTPROPERTIES 22
COMMENT Begin LogicalFontDescription
FONTNAME_REGISTRY ""
FOUNDRY "B&H"
FAMILY_NAME "LucidaBright"
WEIGHT_NAME "DemiBold"
SLANT "R"
SETWIDTH_NAME "Normal"
ADD_STYLE_NAME ""
PIXEL_SIZE 26
POINT_SIZE 190
RESOLUTION_X 100
RESOLUTION_Y 100
SPACING "P"
AVERAGE_WIDTH 155
CHARSET_REGISTRY "ISO10646"
CHARSET_ENCODING "1"
COMMENT END LogicalFontDescription
COPYRIGHT "Copyright Bigelow & Holmes 1986, 1985."
FONT_ASCENT 24
FONT_DESCENT 6
DEFAULT_CHAR 0
FACE_NAME "Lucida Bright Demibold"
X_HEIGHT 14
CAP_HEIGHT 19
ENDPROPERTIES
CHARS 756
STARTCHAR char0
ENCODING 0
SWIDTH 798 0
DWIDTH 21 0
BBX 19 19 0 0
BITMAP
AAAAA0
000000
800020
000000
800020
000000
800020
000000
800020
000000
800020
000000
800020
000000
800020
000000
800020
000000
AAAAA0
ENDCHAR
STARTCHAR space
ENCODING 32
SWIDTH 333 0
DWIDTH 8 0
BBX 1 1 0 0
BITMAP
00
ENDCHAR
STARTCHAR exclam
ENCODING 33
SWIDTH 265 0
DWIDTH 7 0
BBX 4 19 1 0
BITMAP
F0
F0
F0
F0
F0
F0
E0
E0
E0
60
60
40
40
40
00
F0
F0
F0
F0
ENDCHAR
STARTCHAR quotedbl
ENCODING 34
SWIDTH 461 0
DWIDTH 12 0
BBX 9 8 2 12
BITMAP
F780
F780
E380
E380
6300
6300
4100
4100
ENDCHAR
STARTCHAR numbersign
ENCODING 35
SWIDTH 663 0
DWIDTH 17 0
BBX 16 19 1 0
BITMAP
018C
030C
0318
0318
0718
7FFF
7FFF
0630
0630
0C70
0C60
FFFE
FFFE
1860
18C0
18C0
18C0
30C0
3180
ENDCHAR
STARTCHAR dollar
ENCODING 36
SWIDTH 623 0
DWIDTH 16 0
BBX 12 23 2 -3
BITMAP
0400
1FE0
3CE0
7C60
7C60
7C00
7C00
7C00
3C00
1E00
0F80
07C0
07E0
05F0
04F0
04F0
C4F0
C4E0
E5E0
FF80
0600
0400
0400
ENDCHAR
STARTCHAR percent
ENCODING 37
SWIDTH 759 0
DWIDTH 20 0
BBX 19 19 0 0
BITMAP
3E00E0
6301C0
E38380
E38700
E38600
E38C00
E39800
633800
3E7000
00EF80
01D8C0
0198C0
0338E0
0638E0
0E38E0
1C38E0
3818C0
7018C0
E00F80
ENDCHAR
STARTCHAR ampersand
ENCODING 38
SWIDTH 765 0
DWIDTH 20 0
BBX 18 19 1 0
BITMAP
07E000
0E7000
1E7800
1E7800
1E7800
1E7000
0FE000
078000
1B0FC0
338380
71C300
F1E300
F0E300
F0F600
F07C00
787C00
7C7E00
3FEF80
0F8F80
ENDCHAR
STARTCHAR quotesingle
ENCODING 39
SWIDTH 253 0
DWIDTH 7 0
BBX 3 8 2 12
BITMAP
E0
E0
E0
E0
40
40
40
40
ENDCHAR
STARTCHAR parenleft
ENCODING 40
SWIDTH 327 0
DWIDTH 8 0
BBX 7 24 1 -4
BITMAP
02
06
0C
18
38
38
70
70
F0
F0
F0
F0
F0
F0
F0
F0
70
70
38
38
18
0C
06
02
ENDCHAR
STARTCHAR parenright
ENCODING 41
SWIDTH 327 0
DWIDTH 8 0
BBX 7 24 1 -4
BITMAP
80
C0
60
30
38
38
1C
1C
1E
1E
1E
1E
1E
1E
1E
1E
1C
1C
38
38
30
60
C0
80
ENDCHAR
STARTCHAR asterisk
ENCODING 42
SWIDTH 434 0
DWIDTH 11 0
BBX 10 10 1 9
BITMAP
0C00
0C00
4C80
EDC0
F3C0
0000
1E00
3300
7380
1200
ENDCHAR
STARTCHAR plus
ENCODING 43
SWIDTH 623 0
DWIDTH 16 0
BBX 16 16 0 0
BITMAP
0180
0180
0180
0180
0180
0180
0180
FFFF
FFFF
0180
0180
0180
0180
0180
0180
0180
ENDCHAR
STARTCHAR comma
ENCODING 44
SWIDTH 265 0
DWIDTH 7 0
BBX 4 9 1 -4
BITMAP
F0
F0
F0
F0
F0
70
70
60
C0
ENDCHAR
STARTCHAR hyphen
ENCODING 45
SWIDTH 289 0
DWIDTH 8 0
BBX 6 3 1 7
BITMAP
FC
FC
FC
ENDCHAR
STARTCHAR period
ENCODING 46
SWIDTH 265 0
DWIDTH 7 0
BBX 4 4 1 0
BITMAP
F0
F0
F0
F0
ENDCHAR
STARTCHAR slash
ENCODING 47
SWIDTH 527 0
DWIDTH 14 0
BBX 14 24 0 -4
BITMAP
000C
0018
0018
0030
0030
0060
0060
00C0
00C0
0180
0180
0300
0300
0600
0600
0C00
0C00
1800
1800
3000
3000
6000
6000
C000
ENDCHAR
STARTCHAR zero
ENCODING 48
SWIDTH 623 0
DWIDTH 16 0
BBX 15 19 1 0
BITMAP
07C0
1C70
3838
3838
783C
701C
F01E
F01E
F01E
F01E
F01E
F01E
F01E
701C
783C
3838
3838
1C70
07C0
ENDCHAR
STARTCHAR one
ENCODING 49
SWIDTH 623 0
DWIDTH 16 0
BBX 10 19 3 0
BITMAP
FE00
1E00
1E00
1E00
1E00
1E00
1E00
1E00
1E00
1E00
1E00
1E00
1E00
1E00
1E00
1E00
1E00
3F00
FFC0
ENDCHAR
STARTCHAR two
ENCODING 50
SWIDTH 623 0
DWIDTH 16 0
BBX 13 19 1 0
BITMAP
3F80
E1E0
C0F0
C078
0078
0078
0078
0070
00E0
0180
0300
0400
0800
1000
3000
7FF8
7FF8
FFF8
FFF8
ENDCHAR
STARTCHAR three
ENCODING 51
SWIDTH 623 0
DWIDTH 16 0
BBX 12 19 2 0
BITMAP
7F00
E3C0
C1E0
C1E0
01E0
01E0
01C0
0380
3F00
0380
01E0
00E0
00F0
00F0
00F0
C0F0
C1E0
E3C0
FF00
ENDCHAR
STARTCHAR four
ENCODING 52
SWIDTH 623 0
DWIDTH 16 0
BBX 15 19 0 0
BITMAP
0038
0078
00F8
0178
0278
0678
0C78
0878
1078
2078
4078
FFFE
FFFE
FFFE
0078
0078
0078
0078
01FE
ENDCHAR
STARTCHAR five
ENCODING 53
SWIDTH 623 0
DWIDTH 16 0
BBX 11 19 3 0
BITMAP
FFE0
FFE0
FFE0
8000
8000
8000
8000
8000
FE00
0F80
03C0
03E0
01E0
01E0
01E0
C1E0
C3C0
E380
FE00
ENDCHAR
STARTCHAR six
ENCODING 54
SWIDTH 623 0
DWIDTH 16 0
BBX 14 19 1 0
BITMAP
07F0
1E38
3C18
3818
7800
7000
F000
F3E0
F7F0
F8F8
F07C
F03C
F03C
F03C
703C
7038
3878
1C70
0FC0
ENDCHAR
STARTCHAR seven
ENCODING 55
SWIDTH 623 0
DWIDTH 16 0
BBX 13 19 3 0
BITMAP
FFF8
FFF8
FFF8
FFF0
0030
0060
0040
0080
0180
0300
0700
0600
0E00
1C00
3C00
3800
3800
7800
7800
ENDCHAR
STARTCHAR eight
ENCODING 56
SWIDTH 623 0
DWIDTH 16 0
BBX 14 19 1 0
BITMAP
0FC0
3CF0
3878
7878
7878
7878
7C70
3FE0
0F80
0FE0
39F8
70F8
F07C
F03C
F03C
F03C
7878
3C70
1FC0
ENDCHAR
STARTCHAR nine
ENCODING 57
SWIDTH 623 0
DWIDTH 16 0
BBX 14 19 1 0
BITMAP
0FC0
38E0
7870
7038
F038
F03C
F03C
F03C
F83C
7C7C
3FBC
1F3C
003C
0038
0078
6070
60F0
71E0
3F80
ENDCHAR
STARTCHAR colon
ENCODING 58
SWIDTH 265 0
DWIDTH 7 0
BBX 4 14 1 0
BITMAP
F0
F0
F0
F0
00
00
00
00
00
00
F0
F0
F0
F0
ENDCHAR
STARTCHAR semicolon
ENCODING 59
SWIDTH 265 0
DWIDTH 7 0
BBX 4 18 1 -4
BITMAP
F0
F0
F0
F0
00
00
00
00
00
00
F0
F0
F0
F0
70
70
60
C0
ENDCHAR
STARTCHAR less
ENCODING 60
SWIDTH 623 0
DWIDTH 16 0
BBX 15 16 1 0
BITMAP
0002
000E
003E
00F8
01E0
0780
1E00
F800
7800
1E00
0780
01E0
00F8
003E
000E
0002
ENDCHAR
STARTCHAR equal
ENCODING 61
SWIDTH 623 0
DWIDTH 16 0
BBX 15 7 1 4
BITMAP
FFFE
FFFE
0000
0000
0000
FFFE
FFFE
ENDCHAR
STARTCHAR greater
ENCODING 62
SWIDTH 623 0
DWIDTH 16 0
BBX 15 16 1 0
BITMAP
8000
E000
F800
3E00
0F00
03C0
00F0
003C
003E
00F0
03C0
0F00
3E00
F800
E000
8000
ENDCHAR
STARTCHAR question
ENCODING 63
SWIDTH 505 0
DWIDTH 13 0
BBX 12 19 1 0
BITMAP
7F80
E3E0
C1F0
C0F0
00F0
00F0
00E0
01C0
0380
0700
0E00
1E00
1E00
1E00
0000
1E00
1E00
1E00
1E00
ENDCHAR
STARTCHAR at
ENCODING 64
SWIDTH 861 0
DWIDTH 22 0
BBX 20 19 2 0
BITMAP
007E00
038180
0400C0
080020
107020
218E10
430E10
470E10
C60E10
8E0C10
8E1C10
8E3420
8E6E20
8FCEC0
478F00
400000
200000
181800
07F000
ENDCHAR
STARTCHAR A
ENCODING 65
SWIDTH 795 0
DWIDTH 21 0
BBX 21 19 0 0
BITMAP
003000
007000
007000
007800
00F800
00FC00
013C00
013E00
021E00
021F00
040F00
040F80
0FFF80
0807C0
1803C0
1003C0
3001E0
7001E0
F807F8
ENDCHAR
STARTCHAR B
ENCODING 66
SWIDTH 639 0
DWIDTH 17 0
BBX 15 19 1 0
BITMAP
FFE0
3C78
3C3C
3C3C
3C3C
3C3C
3C38
3C78
3CE0
3FE0
3C78
3C3C
3C1E
3C1E
3C1E
3C1E
3C3C
3C7C
FFF0
ENDCHAR
STARTCHAR C
ENCODING 67
SWIDTH 711 0
DWIDTH 18 0
BBX 16 19 1 0
BITMAP
03FE
0E07
1C03
3803
7800
7000
F000
F000
F000
F000
F000
F000
F000
7800
7800
3C00
1F03
0FFF
03FC
ENDCHAR
STARTCHAR D
ENCODING 68
SWIDTH 794 0
DWIDTH 21 0
BBX 19 19 1 0
BITMAP
FFF800
3C1E00
3C0780
3C0380
3C03C0
3C01C0
3C01E0
3C01E0
3C01E0
3C01E0
3C01E0
3C01E0
3C01E0
3C01C0
3C03C0
3C0380
3C0700
3E0E00
FFF800
ENDCHAR
STARTCHAR E
ENCODING 69
SWIDTH 601 0
DWIDTH 16 0
BBX 14 19 1 0
BITMAP
FFFC
3C0C
3C0C
3C00
3C00
3C00
3C00
3C00
3C10
3FF0
3C10
3C10
3C00
3C00
3C00
3C00
3C0C
3C0C
FFFC
ENDCHAR
STARTCHAR F
ENCODING 70
SWIDTH 584 0
DWIDTH 15 0
BBX 14 19 0 0
BITMAP
FFFC
3C0C
3C0C
3C00
3C00
3C00
3C00
3C00
3C10
3FF0
3C10
3C00
3C00
3C00
3C00
3C00
3C00
3E00
FF80
ENDCHAR
STARTCHAR G
ENCODING 71
SWIDTH 753 0
DWIDTH 20 0
BBX 18 19 1 0
BITMAP
03FE00
0E0700
1C0300
380300
780000
700000
F00000
F00000
F00000
F00000
F00000
F03FC0
F00F00
780F00
780F00
380F00
1C0F00
0F0F00
03FE00
ENDCHAR
STARTCHAR H
ENCODING 72
SWIDTH 798 0
DWIDTH 21 0
BBX 20 19 0 0
BITMAP
FF0FF0
3C03C0
3C03C0
3C03C0
3C03C0
3C03C0
3C03C0
3C03C0
3FFFC0
3C03C0
3C03C0
3C03C0
3C03C0
3C03C0
3C03C0
3C03C0
3C03C0
3E07C0
FF0FF0
ENDCHAR
STARTCHAR I
ENCODING 73
SWIDTH 349 0
DWIDTH 9 0
BBX 8 19 1 0
BITMAP
FF
3C
3C
3C
3C
3C
3C
3C
3C
3C
3C
3C
3C
3C
3C
3C
3C
3C
FF
ENDCHAR
STARTCHAR J
ENCODING 74
SWIDTH 452 0
DWIDTH 12 0
BBX 11 23 0 -4
BITMAP
1FE0
07C0
0780
0780
0780
0780
0780
0780
0780
0780
0780
0780
0780
0780
0780
0780
0780
0780
0780
C780
C700
CF00
FC00
ENDCHAR
STARTCHAR K
ENCODING 75
SWIDTH 747 0
DWIDTH 19 0
BBX 19 19 1 0
BITMAP
FF0FC0
3C0700
3C0400
3C0800
3C1000
3C2000
3C4000
3C8000
3DC000
3FE000
3FE000
3DF000
3CF800
3C7C00
3C3E00
3C3E00
3C1F00
3C0F80
FF3FE0
ENDCHAR
STARTCHAR L
ENCODING 76
SWIDTH 584 0
DWIDTH 15 0
BBX 14 19 1 0
BITMAP
FF00
3C00
3C00
3C00
3C00
3C00
3C00
3C00
3C00
3C00
3C00
3C00
3C00
3C00
3C00
3C0C
3C0C
3C0C
FFFC
ENDCHAR
STARTCHAR M
ENCODING 77
SWIDTH 904 0
DWIDTH 23 0
BBX 22 19 1 0
BITMAP
FE00FC
3E01F0
3F01F0
3F01F0
3F03F0
3783F0
3786F0
37C6F0
33CEF0
33CCF0
33ECF0
31F8F0
31F8F0
30F0F0
30F0F0
30F0F0
3060F0
3000F0
FC03FC
ENDCHAR
STARTCHAR N
ENCODING 78
SWIDTH 788 0
DWIDTH 20 0
BBX 19 19 1 0
BITMAP
F807E0
3C0180
3E0180
3F0180
3F0180
3F8180
37C180
33C180
33E180
31F180
30F980
30F980
307D80
303F80
301F80
301F80
300F80
300780
FC0380
ENDCHAR
STARTCHAR O
ENCODING 79
SWIDTH 810 0
DWIDTH 21 0
BBX 19 19 1 0
BITMAP
03F800
0E0E00
1C0700
380380
7803C0
7001C0
F001E0
F001E0
F001E0
F001E0
F001E0
F001E0
F001E0
7001C0
7803C0
380380
1C0700
0E0E00
03F800
ENDCHAR
STARTCHAR P
ENCODING 80
SWIDTH 614 0
DWIDTH 16 0
BBX 15 19 0 0
BITMAP
FFF0
3C3C
3C1C
3C1E
3C1E
3C1E
3C1E
3C1C
3C3C
3C78
3FE0
3C00
3C00
3C00
3C00
3C00
3C00
3E00
FF00
ENDCHAR
STARTCHAR Q
ENCODING 81
SWIDTH 810 0
DWIDTH 21 0
BBX 22 23 1 -4
BITMAP
03F800
0E0E00
1C0700
380380
7803C0
7001C0
F001E0
F001E0
F001E0
F001E0
F001E0
F001E0
F001E0
7001C0
7803C0
3803C0
1C0780
0E0E00
03FC00
000F80
0007FC
0001F0
000060
ENDCHAR
STARTCHAR R
ENCODING 82
SWIDTH 720 0
DWIDTH 19 0
BBX 18 19 1 0
BITMAP
FFF000
3C3C00
3C1C00
3C1E00
3C1E00
3C1E00
3C1E00
3C1C00
3C3C00
3C7800
3FF000
3CF000
3CF800
3C7C00
3C3C00
3C3E00
3C1F00
3C1F80
FF0FC0
ENDCHAR
STARTCHAR S
ENCODING 83
SWIDTH 556 0
DWIDTH 14 0
BBX 13 19 1 0
BITMAP
0FE0
3870
7030
F030
F000
F000
FC00
7F00
3F80
1FE0
07F0
01F8
00F8
0078
0078
C078
C070
E0E0
7F80
ENDCHAR
STARTCHAR T
ENCODING 84
SWIDTH 714 0
DWIDTH 19 0
BBX 18 19 0 0
BITMAP
FFFFC0
E1E0C0
C1E0C0
C1E0C0
01E000
01E000
01E000
01E000
01E000
01E000
01E000
01E000
01E000
01E000
01E000
01E000
01E000
01F000
07F800
ENDCHAR
STARTCHAR U
ENCODING 85
SWIDTH 747 0
DWIDTH 19 0
BBX 19 19 0 0
BITMAP
FF07E0
3C0180
3C0180
3C0180
3C0180
3C0180
3C0180
3C0180
3C0180
3C0180
3C0180
3C0180
3C0180
3C0180
3C0180
1C0300
1E0300
0F0600
03F800
ENDCHAR
STARTCHAR V
ENCODING 86
SWIDTH 753 0
DWIDTH 20 0
BBX 20 19 0 0
BITMAP
FF01F0
3E00C0
3E00C0
1E0080
1F0180
0F0100
0F0100
0F8200
078200
07C600
03C400
03E400
01E800
01E800
00F000
00F000
00F000
006000
006000
ENDCHAR
STARTCHAR W
ENCODING 87
SWIDTH 955 0
DWIDTH 25 0
BBX 25 19 0 0
BITMAP
FE040F80
7C0E0200
3C0E0600
3C0E0400
3E1F0400
1E1F0400
1E1F0800
1E2F8800
1F278800
0F279000
0F47D000
0FC3D000
07C3F000
0783E000
0781E000
0781E000
0381C000
0300C000
0300C000
ENDCHAR
STARTCHAR X
ENCODING 88
SWIDTH 702 0
DWIDTH 18 0
BBX 18 19 0 0
BITMAP
7F07C0
3E0300
1E0200
1F0600
0F0400
0F8800
07D800
03D000
03E000
01F000
03F000
07F800
067800
0C7C00
1C3E00
183E00
301F00
700F80
F83FC0
ENDCHAR
STARTCHAR Y
ENCODING 89
SWIDTH 717 0
DWIDTH 19 0
BBX 18 19 0 0
BITMAP
FF07C0
7C0380
3E0300
1E0200
1F0400
0F0400
0F8800
07C800
03D000
03F000
01E000
01E000
01E000
01E000
01E000
01E000
01E000
01E000
07F800
ENDCHAR
STARTCHAR Z
ENCODING 90
SWIDTH 639 0
DWIDTH 17 0
BBX 14 19 1 0
BITMAP
7FFC
607C
6078
60F8
00F0
01F0
03E0
03C0
07C0
0780
0F80
0F00
1F00
3E00
3C00
7C00
780C
F80C
FFFC
ENDCHAR
STARTCHAR bracketleft
ENCODING 91
SWIDTH 327 0
DWIDTH 8 0
BBX 7 24 1 -4
BITMAP
FE
F0
F0
F0
F0
F0
F0
F0
F0
F0
F0
F0
F0
F0
F0
F0
F0
F0
F0
F0
F0
F0
F0
FE
ENDCHAR
STARTCHAR backslash
ENCODING 92
SWIDTH 527 0
DWIDTH 14 0
BBX 14 24 0 -4
BITMAP
C000
6000
6000
3000
3000
1800
1800
0C00
0C00
0600
0600
0300
0300
0180
0180
00C0
00C0
0060
0060
0030
0030
0018
0018
000C
ENDCHAR
STARTCHAR bracketright
ENCODING 93
SWIDTH 327 0
DWIDTH 8 0
BBX 7 24 0 -4
BITMAP
FE
1E
1E
1E
1E
1E
1E
1E
1E
1E
1E
1E
1E
1E
1E
1E
1E
1E
1E
1E
1E
1E
1E
FE
ENDCHAR
STARTCHAR asciicircum
ENCODING 94
SWIDTH 623 0
DWIDTH 16 0
BBX 15 16 1 3
BITMAP
0100
0100
0380
0380
07C0
06C0
0EE0
0C60
1C70
1830
1830
3018
3018
600C
600C
C006
ENDCHAR
STARTCHAR underscore
ENCODING 95
SWIDTH 500 0
DWIDTH 13 0
BBX 11 2 1 -3
BITMAP
FFE0
FFE0
ENDCHAR
STARTCHAR grave
ENCODING 96
SWIDTH 617 0
DWIDTH 16 0
BBX 6 4 4 16
BITMAP
F0
30
18
0C
ENDCHAR
STARTCHAR a
ENCODING 97
SWIDTH 556 0
DWIDTH 14 0
BBX 14 14 0 0
BITMAP
1F80
71E0
60F0
60F0
00F0
00F0
1FF0
78F0
F0F0
F0F0
F0F0
F8F0
7F70
3E3C
ENDCHAR
STARTCHAR b
ENCODING 98
SWIDTH 640 0
DWIDTH 17 0
BBX 16 20 0 0
BITMAP
FC00
3C00
3C00
3C00
3C00
3C00
3C78
3DFC
3DFE
3E1E
3C0F
3C0F
3C0F
3C0F
3C0F
3C0F
3C1E
3E3E
3FFC
39F0
ENDCHAR
STARTCHAR c
ENCODING 99
SWIDTH 541 0
DWIDTH 14 0
BBX 12 14 1 0
BITMAP
0FF0
3870
7830
7030
F000
F000
F000
F000
F000
F800
7800
3C10
1FF0
0FE0
ENDCHAR
STARTCHAR d
ENCODING 100
SWIDTH 652 0
DWIDTH 17 0
BBX 16 20 1 0
BITMAP
00FC
003C
003C
003C
003C
003C
1F3C
3FFC
787C
783C
F03C
F03C
F03C
F03C
F03C
F03C
787C
7FBC
3FBE
1E3F
ENDCHAR
STARTCHAR e
ENCODING 101
SWIDTH 568 0
DWIDTH 15 0
BBX 13 14 1 0
BITMAP
0FC0
38E0
7870
7070
F078
F078
FFF8
F000
F000
F800
7800
3C08
1FF8
07F0
ENDCHAR
STARTCHAR f
ENCODING 102
SWIDTH 416 0
DWIDTH 11 0
BBX 11 20 0 0
BITMAP
0FC0
1C60
3C60
3C60
3C00
3C00
FFC0
3C00
3C00
3C00
3C00
3C00
3C00
3C00
3C00
3C00
3C00
3C00
3C00
FF00
ENDCHAR
STARTCHAR g
ENCODING 103
SWIDTH 599 0
DWIDTH 16 0
BBX 14 19 1 -5
BITMAP
0FFC
38E8
38F0
78F0
78F0
78F0
78E0
38E0
0FC0
1800
3800
7FF0
3FF8
1FF8
7078
F078
F070
78E0
3FC0
ENDCHAR
STARTCHAR h
ENCODING 104
SWIDTH 654 0
DWIDTH 17 0
BBX 17 20 0 0
BITMAP
FC0000
3C0000
3C0000
3C0000
3C0000
3C0000
3C7800
3CFC00
3DFE00
3F1E00
3C1E00
3C1E00
3C1E00
3C1E00
3C1E00
3C1E00
3C1E00
3C1E00
3C1E00
FF7F80
ENDCHAR
STARTCHAR i
ENCODING 105
SWIDTH 325 0
DWIDTH 8 0
BBX 8 20 0 0
BITMAP
3C
3C
3C
3C
00
00
FC
3C
3C
3C
3C
3C
3C
3C
3C
3C
3C
3C
3C
FF
ENDCHAR
STARTCHAR j
ENCODING 106
SWIDTH 355 0
DWIDTH 9 0
BBX 9 25 -1 -5
BITMAP
0780
0780
0780
0780
0000
0000
1F80
0780
0780
0780
0780
0780
0780
0780
0780
0780
0780
0780
0780
0780
0780
C780
C780
C700
FE00
ENDCHAR
STARTCHAR k
ENCODING 107
SWIDTH 654 0
DWIDTH 16 0
BBX 17 20 0 0
BITMAP
FC0000
3C0000
3C0000
3C0000
3C0000
3C0000
3C3F00
3C1C00
3C1000
3C2000
3C4000
3DC000
3FE000
3DE000
3DF000
3CF800
3C7C00
3C7E00
3C3F00
FF1F80
ENDCHAR
STARTCHAR l
ENCODING 108
SWIDTH 325 0
DWIDTH 8 0
BBX 8 20 0 0
BITMAP
FC
3C
3C
3C
3C
3C
3C
3C
3C
3C
3C
3C
3C
3C
3C
3C
3C
3C
3C
FF
ENDCHAR
STARTCHAR m
ENCODING 109
SWIDTH 967 0
DWIDTH 25 0
BBX 24 14 1 0
BITMAP
FCF0F0
3DF9F8
3FFFFC
3E3E3C
3C3C3C
3C3C3C
3C3C3C
3C3C3C
3C3C3C
3C3C3C
3C3C3C
3C3C3C
3C3C3C
FFFFFF
ENDCHAR
STARTCHAR n
ENCODING 110
SWIDTH 654 0
DWIDTH 17 0
BBX 17 14 0 0
BITMAP
FC7800
7CFC00
3DFE00
3F1E00
3C1E00
3C1E00
3C1E00
3C1E00
3C1E00
3C1E00
3C1E00
3C1E00
3C1E00
FF7F80
ENDCHAR
STARTCHAR o
ENCODING 111
SWIDTH 617 0
DWIDTH 16 0
BBX 14 14 1 0
BITMAP
0FC0
3CF0
7878
7038
F03C
F03C
F03C
F03C
F03C
F03C
7038
7878
3CF0
0FC0
ENDCHAR
STARTCHAR p
ENCODING 112
SWIDTH 652 0
DWIDTH 17 0
BBX 16 19 0 -5
BITMAP
FC78
7DFC
3DFE
3E1E
3C0F
3C0F
3C0F
3C0F
3C0F
3C0F
3C1E
3E3E
3FFC
3CF8
3C00
3C00
3C00
3C00
FF00
ENDCHAR
STARTCHAR q
ENCODING 113
SWIDTH 640 0
DWIDTH 17 0
BBX 16 19 1 -5
BITMAP
1F3C
3FFC
7C7C
783C
F03C
F03C
F03C
F03C
F03C
F03C
787C
7FBC
3FBC
1E3C
003C
003C
003C
003C
00FF
ENDCHAR
STARTCHAR r
ENCODING 114
SWIDTH 462 0
DWIDTH 12 0
BBX 11 14 0 0
BITMAP
FCE0
3DE0
3FE0
3E60
3C00
3C00
3C00
3C00
3C00
3C00
3C00
3C00
3C00
FF00
ENDCHAR
STARTCHAR s
ENCODING 115
SWIDTH 525 0
DWIDTH 14 0
BBX 11 14 2 0
BITMAP
1F80
79C0
F0C0
F0C0
F800
FE00
7F80
3FC0
0FE0
03E0
C1E0
C1E0
E3C0
7F00
ENDCHAR
STARTCHAR t
ENCODING 116
SWIDTH 389 0
DWIDTH 10 0
BBX 9 18 1 0
BITMAP
0C00
3C00
3C00
3C00
FF80
3C00
3C00
3C00
3C00
3C00
3C00
3C00
3C00
3C00
3C00
3C00
1F80
0F80
ENDCHAR
STARTCHAR u
ENCODING 117
SWIDTH 654 0
DWIDTH 17 0
BBX 17 14 0 0
BITMAP
FC7E00
3C1E00
3C1E00
3C1E00
3C1E00
3C1E00
3C1E00
3C1E00
3C1E00
3C1E00
3C7E00
3FDE00
1F9F00
0F1F80
ENDCHAR
STARTCHAR v
ENCODING 118
SWIDTH 657 0
DWIDTH 17 0
BBX 17 14 0 0
BITMAP
FF0F80
7C0600
3E0400
1E0400
1F0800
0F0800
0F9000
079000
07A000
03E000
03E000
01C000
01C000
018000
ENDCHAR
STARTCHAR w
ENCODING 119
SWIDTH 880 0
DWIDTH 23 0
BBX 23 14 0 0
BITMAP
FE0C3E
7C1C08
3C1E18
3C1E10
1E3E10
1E2F30
1E4F20
0F4FA0
0FC7C0
0F87C0
0783C0
070380
070380
020180
ENDCHAR
STARTCHAR x
ENCODING 120
SWIDTH 608 0
DWIDTH 16 0
BBX 16 14 0 0
BITMAP
FF3F
3E0C
3E18
1F10
0FA0
07C0
07C0
03E0
07F0
05F0
08F8
107C
303E
F8FF
ENDCHAR
STARTCHAR y
ENCODING 121
SWIDTH 654 0
DWIDTH 17 0
BBX 17 19 0 -5
BITMAP
FF0F80
7C0600
3E0600
1E0400
1E0800
0F0800
0F1000
0F9000
07A000
07E000
03C000
03C000
018000
018000
010000
030000
060000
0C0000
1C0000
ENDCHAR
STARTCHAR z
ENCODING 122
SWIDTH 584 0
DWIDTH 15 0
BBX 13 14 1 0
BITMAP
FFF8
E0F8
C1F0
03E0
03E0
07C0
0F80
0F00
1F00
3E00
7C00
7C18
F818
FFF8
ENDCHAR
STARTCHAR braceleft
ENCODING 123
SWIDTH 366 0
DWIDTH 9 0
BBX 7 24 1 -4
BITMAP
1E
3C
78
78
78
7C
7C
3C
3C
3C
38
F0
70
38
3C
3C
3C
7C
7C
78
78
78
38
1E
ENDCHAR
STARTCHAR bar
ENCODING 124
SWIDTH 259 0
DWIDTH 7 0
BBX 2 24 2 -4
BITMAP
C0
C0
C0
C0
C0
C0
C0
C0
C0
C0
C0
C0
C0
C0
C0
C0
C0
C0
C0
C0
C0
C0
C0
C0
ENDCHAR
STARTCHAR braceright
ENCODING 125
SWIDTH 366 0
DWIDTH 9 0
BBX 7 24 1 -4
BITMAP
F0
38
3C
3C
3C
7C
7C
78
78
78
38
1E
1C
38
78
78
78
7C
7C
3C
3C
3C
38
F0
ENDCHAR
STARTCHAR asciitilde
ENCODING 126
SWIDTH 623 0
DWIDTH 16 0
BBX 15 5 1 5
BITMAP
3C00
7F02
C7C6
81FC
8078
ENDCHAR
STARTCHAR space
ENCODING 160
SWIDTH 333 0
DWIDTH 8 0
BBX 1 1 0 0
BITMAP
00
ENDCHAR
STARTCHAR exclamdown
ENCODING 161
SWIDTH 265 0
DWIDTH 7 0
BBX 4 19 1 -5
BITMAP
F0
F0
F0
F0
00
40
40
40
60
60
E0
E0
E0
F0
F0
F0
F0
F0
F0
ENDCHAR
STARTCHAR cent
ENCODING 162
SWIDTH 623 0
DWIDTH 16 0
BBX 12 19 2 0
BITMAP
0100
0100
0FF0
1D70
3930
7130
F100
F100
F100
F100
F100
F100
7100
7900
3D10
1FF0
07E0
0100
0100
ENDCHAR
STARTCHAR sterling
ENCODING 163
SWIDTH 623 0
DWIDTH 16 0
BBX 12 19 3 0
BITMAP
03E0
0E30
0E30
1E30
1E00
1E00
1E00
1E00
FF80
1E00
1E00
1E00
1E00
1C00
3000
FFF0
FFF0
FFF0
FFF0
ENDCHAR
STARTCHAR currency
ENCODING 164
SWIDTH 623 0
DWIDTH 16 0
BBX 15 17 1 1
BITMAP
8002
4004
27C8
3FF8
1C70
1830
3018
3018
3018
3018
3018
1830
1C70
3FF8
27C8
4004
8002
ENDCHAR
STARTCHAR yen
ENCODING 165
SWIDTH 623 0
DWIDTH 16 0
BBX 17 19 0 0
BITMAP
FE0F80
7C0300
3C0200
3E0400
1E0C00
1F0800
0F9000
0FB000
07E000
03C000
1FFC00
03C000
03C000
1FFC00
03C000
03C000
03C000
03E000
0FF000
ENDCHAR
STARTCHAR brokenbar
ENCODING 166
SWIDTH 259 0
DWIDTH 7 0
BBX 2 24 2 -4
BITMAP
C0
C0
C0
C0
C0
C0
C0
C0
C0
C0
C0
00
00
C0
C0
C0
C0
C0
C0
C0
C0
C0
C0
C0
ENDCHAR
STARTCHAR section
ENCODING 167
SWIDTH 623 0
DWIDTH 16 0
BBX 12 24 2 -5
BITMAP
1FC0
78E0
7060
F060
F000
F800
FE00
7F80
3FE0
67E0
E3F0
E0F0
F070
F870
7E60
7FC0
3FE0
0FF0
03F0
00F0
C0F0
C0E0
E1E0
7F80
ENDCHAR
STARTCHAR dieresis
ENCODING 168
SWIDTH 617 0
DWIDTH 16 0
BBX 8 3 4 16
BITMAP
E7
E7
E7
ENDCHAR
STARTCHAR copyright
ENCODING 169
SWIDTH 855 0
DWIDTH 22 0
BBX 21 19 1 0
BITMAP
01FC00
060300
080080
300060
20FE20
41C210
438210
870008
870008
870008
870008
870008
438010
41C210
20FE20
300060
080080
060300
01FC00
ENDCHAR
STARTCHAR ordfeminine
ENCODING 170
SWIDTH 488 0
DWIDTH 13 0
BBX 11 10 1 9
BITMAP
7F00
C380
C3C0
03C0
3FC0
7BC0
F3C0
F3C0
FFE0
79E0
ENDCHAR
STARTCHAR guillemotleft
ENCODING 171
SWIDTH 566 0
DWIDTH 15 0
BBX 13 12 1 1
BITMAP
0408
0E18
1C30
3870
78E0
F3C0
F1C0
78E0
3870
1C30
0C18
0608
ENDCHAR
STARTCHAR logicalnot
ENCODING 172
SWIDTH 623 0
DWIDTH 16 0
BBX 15 7 1 4
BITMAP
FFFE
FFFE
0006
0006
0006
0006
0006
ENDCHAR
STARTCHAR hyphen
ENCODING 173
SWIDTH 289 0
DWIDTH 8 0
BBX 6 3 1 7
BITMAP
FC
FC
FC
ENDCHAR
STARTCHAR registered
ENCODING 174
SWIDTH 623 0
DWIDTH 16 0
BBX 13 13 2 6
BITMAP
0F80
3060
6030
5F90
8848
8848
8F88
8908
8908
59D0
6030
3060
0F80
ENDCHAR
STARTCHAR macron
ENCODING 175
SWIDTH 617 0
DWIDTH 16 0
BBX 8 2 4 17
BITMAP
FF
FF
ENDCHAR
STARTCHAR degree
ENCODING 176
SWIDTH 259 0
DWIDTH 7 0
BBX 4 4 1 15
BITMAP
60
90
90
60
ENDCHAR
STARTCHAR plusminus
ENCODING 177
SWIDTH 623 0
DWIDTH 16 0
BBX 16 16 0 0
BITMAP
0180
0180
0180
0180
0180
FFFF
FFFF
0180
0180
0180
0180
0180
0000
0000
FFFF
FFFF
ENDCHAR
STARTCHAR twosuperior
ENCODING 178
SWIDTH 374 0
DWIDTH 10 0
BBX 7 11 -16 8
BITMAP
FC
CE
86
06
04
0C
10
20
40
FE
FE
ENDCHAR
STARTCHAR threesuperior
ENCODING 179
SWIDTH 374 0
DWIDTH 10 0
BBX 7 11 -16 8
BITMAP
FC
8E
86
06
0C
78
0E
06
86
8E
F8
ENDCHAR
STARTCHAR acute
ENCODING 180
SWIDTH 617 0
DWIDTH 16 0
BBX 6 4 6 16
BITMAP
3C
30
60
C0
ENDCHAR
STARTCHAR mu
ENCODING 181
SWIDTH 705 0
DWIDTH 18 0
BBX 17 18 1 -4
BITMAP
FC7E00
3C1E00
3C1E00
3C1E00
3C1E00
3C1E00
3C1E00
3C1E00
3C1E00
3C1E00
3C3E00
3FFE00
3FDE00
3F9F80
3C0000
3C0000
3C0000
3C0000
ENDCHAR
STARTCHAR paragraph
ENCODING 182
SWIDTH 623 0
DWIDTH 16 0
BBX 10 23 2 -4
BITMAP
3FC0
7FC0
FC40
FC40
FC40
FC40
FC40
7C40
3C40
1C40
0440
0440
0440
0440
0440
0440
0440
0440
0440
0440
0440
0440
0440
ENDCHAR
STARTCHAR periodcentered
ENCODING 183
SWIDTH 623 0
DWIDTH 16 0
BBX 3 4 7 6
BITMAP
E0
E0
E0
E0
ENDCHAR
STARTCHAR cedilla
ENCODING 184
SWIDTH 617 0
DWIDTH 16 0
BBX 4 6 6 -5
BITMAP
60
40
F0
70
70
E0
ENDCHAR
STARTCHAR onesuperior
ENCODING 185
SWIDTH 374 0
DWIDTH 10 0
BBX 6 11 -17 8
BITMAP
F0
30
30
30
30
30
30
30
30
30
FC
ENDCHAR
STARTCHAR ordmasculine
ENCODING 186
SWIDTH 488 0
DWIDTH 13 0
BBX 11 10 1 9
BITMAP
1F00
7BC0
71C0
F1E0
F1E0
F1E0
F1E0
71C0
7BC0
1F00
ENDCHAR
STARTCHAR guillemotright
ENCODING 187
SWIDTH 566 0
DWIDTH 15 0
BBX 13 12 1 1
BITMAP
8300
C180
61C0
30E0
38F0
1C78
1E78
38F0
30E0
61C0
C380
8100
ENDCHAR
STARTCHAR onequarter
ENCODING 188
SWIDTH 803 0
DWIDTH 21 0
BBX 19 19 5 0
BITMAP
7803E0
180380
180780
180F00
181E00
181C00
183C00
187800
18F0C0
18E1C0
7FE2C0
03C6C0
078CC0
0708C0
0F1FE0
1E1FE0
3C00C0
3800C0
F801E0
ENDCHAR
STARTCHAR onehalf
ENCODING 189
SWIDTH 803 0
DWIDTH 21 0
BBX 19 19 5 0
BITMAP
7803E0
180380
180780
180F00
181E00
181C00
183C00
187800
18FF80
18F9C0
7FF0C0
03C0C0
078080
070180
0F0200
1E0400
3C0800
381FC0
F81FC0
ENDCHAR
STARTCHAR threequarters
ENCODING 190
SWIDTH 803 0
DWIDTH 21 0
BBX 19 19 5 0
BITMAP
FC03E0
8E0380
860780
060F00
0C1E00
781C00
0E3C00
067800
86F0C0
8EE1C0
F9E2C0
03C6C0
078CC0
0708C0
0F1FE0
1E1FE0
3C00C0
3800C0
F801E0
ENDCHAR
STARTCHAR questiondown
ENCODING 191
SWIDTH 505 0
DWIDTH 13 0
BBX 12 19 1 -5
BITMAP
0780
0780
0780
0780
0000
0780
0780
0780
0700
0E00
1C00
3800
7000
F000
F000
F030
F830
7C70
1FE0
ENDCHAR
STARTCHAR Agrave
ENCODING 192
SWIDTH 795 0
DWIDTH 21 0
BBX 21 24 0 0
BITMAP
01E000
006000
003000
001800
000000
003000
007000
007000
007800
00F800
00FC00
013C00
013E00
021E00
021F00
040F00
040F80
0FFF80
0807C0
1803C0
1003C0
3001E0
7001E0
F807F8
ENDCHAR
STARTCHAR Aacute
ENCODING 193
SWIDTH 795 0
DWIDTH 21 0
BBX 21 24 0 0
BITMAP
003C00
003000
006000
00C000
000000
003000
007000
007000
007800
00F800
00FC00
013C00
013E00
021E00
021F00
040F00
040F80
0FFF80
0807C0
1803C0
1003C0
3001E0
7001E0
F807F8
ENDCHAR
STARTCHAR Acircumflex
ENCODING 194
SWIDTH 795 0
DWIDTH 21 0
BBX 21 24 0 0
BITMAP
007000
00F800
01DC00
030600
000000
003000
007000
007000
007800
00F800
00FC00
013C00
013E00
021E00
021F00
040F00
040F80
0FFF80
0807C0
1803C0
1003C0
3001E0
7001E0
F807F8
ENDCHAR
STARTCHAR Atilde
ENCODING 195
SWIDTH 795 0
DWIDTH 21 0
BBX 21 24 0 0
BITMAP
01C200
03FE00
03FC00
021C00
000000
003000
007000
007000
007800
00F800
00FC00
013C00
013E00
021E00
021F00
040F00
040F80
0FFF80
0807C0
1803C0
1003C0
3001E0
7001E0
F807F8
ENDCHAR
STARTCHAR Adieresis
ENCODING 196
SWIDTH 795 0
DWIDTH 21 0
BBX 21 23 0 0
BITMAP
01CE00
01CE00
01CE00
000000
003000
007000
007000
007800
00F800
00FC00
013C00
013E00
021E00
021F00
040F00
040F80
0FFF80
0807C0
1803C0
1003C0
3001E0
7001E0
F807F8
ENDCHAR
STARTCHAR Aring
ENCODING 197
SWIDTH 795 0
DWIDTH 21 0
BBX 21 24 0 0
BITMAP
006000
009000
009000
006000
000000
003000
007000
007000
007800
00F800
00FC00
013C00
013E00
021E00
021F00
040F00
040F80
0FFF80
0807C0
1803C0
1003C0
3001E0
7001E0
F807F8
ENDCHAR
STARTCHAR AE
ENCODING 198
SWIDTH 959 0
DWIDTH 25 0
BBX 24 19 0 0
BITMAP
001FFE
001F06
002F06
002F00
004F00
00CF00
008F00
010F0C
010FFC
020F0C
060F0C
040F00
0FFF00
080F00
100F00
100F00
200F03
601F83
F83FFF
ENDCHAR
STARTCHAR Ccedilla
ENCODING 199
SWIDTH 711 0
DWIDTH 18 0
BBX 16 24 1 -5
BITMAP
03FE
0E07
1C03
3803
7800
7000
F000
F000
F000
F000
F000
F000
F000
7800
7800
3C00
1F03
0FFF
03FC
0100
03C0
01C0
01C0
0380
ENDCHAR
STARTCHAR Egrave
ENCODING 200
SWIDTH 601 0
DWIDTH 16 0
BBX 14 24 1 0
BITMAP
1E00
0600
0300
0180
0000
FFFC
3C0C
3C0C
3C00
3C00
3C00
3C00
3C00
3C10
3FF0
3C10
3C10
3C00
3C00
3C00
3C00
3C0C
3C0C
FFFC
ENDCHAR
STARTCHAR Eacute
ENCODING 201
SWIDTH 601 0
DWIDTH 16 0
BBX 14 24 1 0
BITMAP
01E0
0180
0300
0600
0000
FFFC
3C0C
3C0C
3C00
3C00
3C00
3C00
3C00
3C10
3FF0
3C10
3C10
3C00
3C00
3C00
3C00
3C0C
3C0C
FFFC
ENDCHAR
STARTCHAR Ecircumflex
ENCODING 202
SWIDTH 601 0
DWIDTH 16 0
BBX 14 24 1 0
BITMAP
0380
07C0
0EE0
1830
0000
FFFC
3C0C
3C0C
3C00
3C00
3C00
3C00
3C00
3C10
3FF0
3C10
3C10
3C00
3C00
3C00
3C00
3C0C
3C0C
FFFC
ENDCHAR
STARTCHAR Edieresis
ENCODING 203
SWIDTH 601 0
DWIDTH 16 0
BBX 14 23 1 0
BITMAP
1CE0
1CE0
1CE0
0000
FFFC
3C0C
3C0C
3C00
3C00
3C00
3C00
3C00
3C10
3FF0
3C10
3C10
3C00
3C00
3C00
3C00
3C0C
3C0C
FFFC
ENDCHAR
STARTCHAR Igrave
ENCODING 204
SWIDTH 349 0
DWIDTH 9 0
BBX 8 24 1 0
BITMAP
F0
30
18
0C
00
FF
3C
3C
3C
3C
3C
3C
3C
3C
3C
3C
3C
3C
3C
3C
3C
3C
3C
FF
ENDCHAR
STARTCHAR Iacute
ENCODING 205
SWIDTH 349 0
DWIDTH 9 0
BBX 8 24 1 0
BITMAP
0F
0C
18
30
00
FF
3C
3C
3C
3C
3C
3C
3C
3C
3C
3C
3C
3C
3C
3C
3C
3C
3C
FF
ENDCHAR
STARTCHAR Icircumflex
ENCODING 206
SWIDTH 349 0
DWIDTH 9 0
BBX 9 24 2 0
BITMAP
1C00
3E00
7700
C180
0000
7F80
1E00
1E00
1E00
1E00
1E00
1E00
1E00
1E00
1E00
1E00
1E00
1E00
1E00
1E00
1E00
1E00
1E00
7F80
ENDCHAR
STARTCHAR Idieresis
ENCODING 207
SWIDTH 349 0
DWIDTH 9 0
BBX 8 23 1 0
BITMAP
E7
E7
E7
00
FF
3C
3C
3C
3C
3C
3C
3C
3C
3C
3C
3C
3C
3C
3C
3C
3C
3C
FF
ENDCHAR
STARTCHAR Eth
ENCODING 208
SWIDTH 794 0
DWIDTH 21 0
BBX 20 19 0 0
BITMAP
7FFC00
3E0F00
1E03C0
1E01C0
1E01E0
1E00E0
1E00F0
1E00F0
1E00F0
FFE0F0
1E00F0
1E00F0
1E00F0
1E00E0
1E01E0
1E01C0
1E0380
3F0700
7FFC00
ENDCHAR
STARTCHAR Ntilde
ENCODING 209
SWIDTH 788 0
DWIDTH 20 0
BBX 19 24 1 0
BITMAP
038400
07FC00
07F800
043800
000000
F807E0
3C0180
3E0180
3F0180
3F0180
3F8180
37C180
33C180
33E180
31F180
30F980
30F980
307D80
303F80
301F80
301F80
300F80
300780
FC0380
ENDCHAR
STARTCHAR Ograve
ENCODING 210
SWIDTH 810 0
DWIDTH 21 0
BBX 19 24 1 0
BITMAP
03C000
00C000
006000
003000
000000
03F800
0E0E00
1C0700
380380
7803C0
7001C0
F001E0
F001E0
F001E0
F001E0
F001E0
F001E0
F001E0
7001C0
7803C0
380380
1C0700
0E0E00
03F800
ENDCHAR
STARTCHAR Oacute
ENCODING 211
SWIDTH 810 0
DWIDTH 21 0
BBX 19 24 1 0
BITMAP
007800
006000
00C000
018000
000000
03F800
0E0E00
1C0700
380380
7803C0
7001C0
F001E0
F001E0
F001E0
F001E0
F001E0
F001E0
F001E0
7001C0
7803C0
380380
1C0700
0E0E00
03F800
ENDCHAR
STARTCHAR Ocircumflex
ENCODING 212
SWIDTH 810 0
DWIDTH 21 0
BBX 19 24 1 0
BITMAP
00E000
01F000
03B800
060C00
000000
03F800
0E0E00
1C0700
380380
7803C0
7001C0
F001E0
F001E0
F001E0
F001E0
F001E0
F001E0
F001E0
7001C0
7803C0
380380
1C0700
0E0E00
03F800
ENDCHAR
STARTCHAR Otilde
ENCODING 213
SWIDTH 810 0
DWIDTH 21 0
BBX 19 24 1 0
BITMAP
038400
07FC00
07F800
043800
000000
03F800
0E0E00
1C0700
380380
7803C0
7001C0
F001E0
F001E0
F001E0
F001E0
F001E0
F001E0
F001E0
7001C0
7803C0
380380
1C0700
0E0E00
03F800
ENDCHAR
STARTCHAR Odieresis
ENCODING 214
SWIDTH 810 0
DWIDTH 21 0
BBX 19 23 1 0
BITMAP
073800
073800
073800
000000
03F800
0E0E00
1C0700
380380
7803C0
7001C0
F001E0
F001E0
F001E0
F001E0
F001E0
F001E0
F001E0
7001C0
7803C0
380380
1C0700
0E0E00
03F800
ENDCHAR
STARTCHAR multiply
ENCODING 215
SWIDTH 623 0
DWIDTH 16 0
BBX 15 16 1 0
BITMAP
4004
E00E
701C
3838
1C70
0EE0
06C0
0380
0380
06C0
0EE0
1C70
3838
701C
E00E
4004
ENDCHAR
STARTCHAR Oslash
ENCODING 216
SWIDTH 810 0
DWIDTH 21 0
BBX 19 19 1 0
BITMAP
03F860
0E0E80
1C0780
380380
7807C0
700DC0
F009E0
F011E0
F021E0
F041E0
F081E0
F101E0
F201E0
7601C0
7C03C0
380380
3C0700
6E0E00
C3F800
ENDCHAR
STARTCHAR Ugrave
ENCODING 217
SWIDTH 747 0
DWIDTH 19 0
BBX 19 24 0 0
BITMAP
03C000
00C000
006000
003000
000000
FF07E0
3C0180
3C0180
3C0180
3C0180
3C0180
3C0180
3C0180
3C0180
3C0180
3C0180
3C0180
3C0180
3C0180
3C0180
1C0300
1E0300
0F0600
03F800
ENDCHAR
STARTCHAR Uacute
ENCODING 218
SWIDTH 747 0
DWIDTH 19 0
BBX 19 24 0 0
BITMAP
007800
006000
00C000
018000
000000
FF07E0
3C0180
3C0180
3C0180
3C0180
3C0180
3C0180
3C0180
3C0180
3C0180
3C0180
3C0180
3C0180
3C0180
3C0180
1C0300
1E0300
0F0600
03F800
ENDCHAR
STARTCHAR Ucircumflex
ENCODING 219
SWIDTH 747 0
DWIDTH 19 0
BBX 19 24 0 0
BITMAP
00E000
01F000
03B800
060C00
000000
FF07E0
3C0180
3C0180
3C0180
3C0180
3C0180
3C0180
3C0180
3C0180
3C0180
3C0180
3C0180
3C0180
3C0180
3C0180
1C0300
1E0300
0F0600
03F800
ENDCHAR
STARTCHAR Udieresis
ENCODING 220
SWIDTH 747 0
DWIDTH 19 0
BBX 19 23 0 0
BITMAP
073800
073800
073800
000000
FF07E0
3C0180
3C0180
3C0180
3C0180
3C0180
3C0180
3C0180
3C0180
3C0180
3C0180
3C0180
3C0180
3C0180
3C0180
1C0300
1E0300
0F0600
03F800
ENDCHAR
STARTCHAR Yacute
ENCODING 221
SWIDTH 717 0
DWIDTH 19 0
BBX 18 24 0 0
BITMAP
007800
006000
00C000
018000
000000
FF07C0
7C0380
3E0300
1E0200
1F0400
0F0400
0F8800
07C800
03D000
03F000
01E000
01E000
01E000
01E000
01E000
01E000
01E000
01E000
07F800
ENDCHAR
STARTCHAR Thorn
ENCODING 222
SWIDTH 614 0
DWIDTH 16 0
BBX 15 19 0 0
BITMAP
FF00
3E00
3C00
3C00
3FF0
3C3C
3C1C
3C1E
3C1E
3C1E
3C1E
3C1C
3C3C
3C78
3FE0
3C00
3C00
3E00
FF00
ENDCHAR
STARTCHAR germandbls
ENCODING 223
SWIDTH 700 0
DWIDTH 18 0
BBX 16 20 1 0
BITMAP
07E0
1EF0
1C78
3C78
3C78
3C70
3CE0
3CC0
3DC0
3DE0
3DF0
3CF8
3CFC
3C7E
3C1F
3C0F
3C0F
3CCF
3CCE
FEFC
ENDCHAR
STARTCHAR agrave
ENCODING 224
SWIDTH 556 0
DWIDTH 14 0
BBX 14 19 0 0
BITMAP
1E00
0600
0300
0180
0000
1F80
71E0
60F0
60F0
00F0
00F0
1FF0
78F0
F0F0
F0F0
F0F0
F8F0
7F70
3E3C
ENDCHAR
STARTCHAR aacute
ENCODING 225
SWIDTH 556 0
DWIDTH 14 0
BBX 14 19 0 0
BITMAP
01E0
0180
0300
0600
0000
1F80
71E0
60F0
60F0
00F0
00F0
1FF0
78F0
F0F0
F0F0
F0F0
F8F0
7F70
3E3C
ENDCHAR
STARTCHAR acircumflex
ENCODING 226
SWIDTH 556 0
DWIDTH 14 0
BBX 14 19 0 0
BITMAP
0700
0F80
1DC0
3060
0000
1F80
71E0
60F0
60F0
00F0
00F0
1FF0
78F0
F0F0
F0F0
F0F0
F8F0
7F70
3E3C
ENDCHAR
STARTCHAR atilde
ENCODING 227
SWIDTH 556 0
DWIDTH 14 0
BBX 14 19 0 0
BITMAP
1C20
3FE0
3FC0
21C0
0000
1F80
71E0
60F0
60F0
00F0
00F0
1FF0
78F0
F0F0
F0F0
F0F0
F8F0
7F70
3E3C
ENDCHAR
STARTCHAR adieresis
ENCODING 228
SWIDTH 556 0
DWIDTH 14 0
BBX 14 18 0 0
BITMAP
1CE0
1CE0
1CE0
0000
1F80
71E0
60F0
60F0
00F0
00F0
1FF0
78F0
F0F0
F0F0
F0F0
F8F0
7F70
3E3C
ENDCHAR
STARTCHAR aring
ENCODING 229
SWIDTH 556 0
DWIDTH 14 0
BBX 14 19 0 0
BITMAP
0300
0480
0480
0300
0000
1F80
71E0
60F0
60F0
00F0
00F0
1FF0
78F0
F0F0
F0F0
F0F0
F8F0
7F70
3E3C
ENDCHAR
STARTCHAR ae
ENCODING 230
SWIDTH 858 0
DWIDTH 22 0
BBX 20 14 1 0
BITMAP
3F8F80
71F9C0
60F0E0
60F0E0
00F0F0
00F0F0
1FFFF0
78F000
F0F000
F0F000
F0F800
F8FC10
7F3FF0
3E0FC0
ENDCHAR
STARTCHAR ccedilla
ENCODING 231
SWIDTH 541 0
DWIDTH 14 0
BBX 12 19 1 -5
BITMAP
0FF0
3870
7830
7030
F000
F000
F000
F000
F000
F800
7800
3C10
1FF0
0FE0
0200
0780
0380
0380
0700
ENDCHAR
STARTCHAR egrave
ENCODING 232
SWIDTH 568 0
DWIDTH 15 0
BBX 13 19 1 0
BITMAP
1E00
0600
0300
0180
0000
0FC0
38E0
7870
7070
F078
F078
FFF8
F000
F000
F800
7800
3C08
1FF8
07F0
ENDCHAR
STARTCHAR eacute
ENCODING 233
SWIDTH 568 0
DWIDTH 15 0
BBX 13 19 1 0
BITMAP
01E0
0180
0300
0600
0000
0FC0
38E0
7870
7070
F078
F078
FFF8
F000
F000
F800
7800
3C08
1FF8
07F0
ENDCHAR
STARTCHAR ecircumflex
ENCODING 234
SWIDTH 568 0
DWIDTH 15 0
BBX 13 19 1 0
BITMAP
0700
0F80
1DC0
3060
0000
0FC0
38E0
7870
7070
F078
F078
FFF8
F000
F000
F800
7800
3C08
1FF8
07F0
ENDCHAR
STARTCHAR edieresis
ENCODING 235
SWIDTH 568 0
DWIDTH 15 0
BBX 13 18 1 0
BITMAP
1CE0
1CE0
1CE0
0000
0FC0
38E0
7870
7070
F078
F078
FFF8
F000
F000
F800
7800
3C08
1FF8
07F0
ENDCHAR
STARTCHAR igrave
ENCODING 236
SWIDTH 325 0
DWIDTH 8 0
BBX 8 19 0 0
BITMAP
F0
30
18
0C
00
FC
3C
3C
3C
3C
3C
3C
3C
3C
3C
3C
3C
3C
FF
ENDCHAR
STARTCHAR iacute
ENCODING 237
SWIDTH 325 0
DWIDTH 8 0
BBX 8 19 0 0
BITMAP
0F
0C
18
30
00
FC
3C
3C
3C
3C
3C
3C
3C
3C
3C
3C
3C
3C
FF
ENDCHAR
STARTCHAR icircumflex
ENCODING 238
SWIDTH 325 0
DWIDTH 8 0
BBX 9 19 1 0
BITMAP
1C00
3E00
7700
C180
0000
7E00
1E00
1E00
1E00
1E00
1E00
1E00
1E00
1E00
1E00
1E00
1E00
1E00
7F80
ENDCHAR
STARTCHAR idieresis
ENCODING 239
SWIDTH 325 0
DWIDTH 8 0
BBX 8 18 0 0
BITMAP
E7
E7
E7
00
FC
3C
3C
3C
3C
3C
3C
3C
3C
3C
3C
3C
3C
FF
ENDCHAR
STARTCHAR eth
ENCODING 240
SWIDTH 652 0
DWIDTH 17 0
BBX 14 21 2 0
BITMAP
0080
F1C0
1E00
0700
1B80
71E0
40F0
0FF0
3CF8
7878
703C
F03C
F03C
F03C
F03C
F03C
F038
7038
7870
3CE0
0FC0
ENDCHAR
STARTCHAR ntilde
ENCODING 241
SWIDTH 654 0
DWIDTH 17 0
BBX 17 19 0 0
BITMAP
070800
0FF800
0FF000
087000
000000
FC7800
7CFC00
3DFE00
3F1E00
3C1E00
3C1E00
3C1E00
3C1E00
3C1E00
3C1E00
3C1E00
3C1E00
3C1E00
FF7F80
ENDCHAR
STARTCHAR ograve
ENCODING 242
SWIDTH 617 0
DWIDTH 16 0
BBX 14 19 1 0
BITMAP
1E00
0600
0300
0180
0000
0FC0
3CF0
7878
7038
F03C
F03C
F03C
F03C
F03C
F03C
7038
7878
3CF0
0FC0
ENDCHAR
STARTCHAR oacute
ENCODING 243
SWIDTH 617 0
DWIDTH 16 0
BBX 14 19 1 0
BITMAP
01E0
0180
0300
0600
0000
0FC0
3CF0
7878
7038
F03C
F03C
F03C
F03C
F03C
F03C
7038
7878
3CF0
0FC0
ENDCHAR
STARTCHAR ocircumflex
ENCODING 244
SWIDTH 617 0
DWIDTH 16 0
BBX 14 19 1 0
BITMAP
0700
0F80
1DC0
3060
0000
0FC0
3CF0
7878
7038
F03C
F03C
F03C
F03C
F03C
F03C
7038
7878
3CF0
0FC0
ENDCHAR
STARTCHAR otilde
ENCODING 245
SWIDTH 617 0
DWIDTH 16 0
BBX 14 19 1 0
BITMAP
1C20
3FE0
3FC0
21C0
0000
0FC0
3CF0
7878
7038
F03C
F03C
F03C
F03C
F03C
F03C
7038
7878
3CF0
0FC0
ENDCHAR
STARTCHAR odieresis
ENCODING 246
SWIDTH 617 0
DWIDTH 16 0
BBX 14 18 1 0
BITMAP
1CE0
1CE0
1CE0
0000
0FC0
3CF0
7878
7038
F03C
F03C
F03C
F03C
F03C
F03C
7038
7878
3CF0
0FC0
ENDCHAR
STARTCHAR divide
ENCODING 247
SWIDTH 623 0
DWIDTH 16 0
BBX 15 14 1 0
BITMAP
0380
0380
0380
0000
0000
0000
FFFE
FFFE
0000
0000
0000
0380
0380
0380
ENDCHAR
STARTCHAR oslash
ENCODING 248
SWIDTH 617 0
DWIDTH 16 0
BBX 17 14 0 0
BITMAP
07F180
1E3E00
3C1C00
3C1E00
783F00
786F00
78CF00
798F00
7B0F00
7E0F00
3C1E00
1C1C00
3E3800
C7E000
ENDCHAR
STARTCHAR ugrave
ENCODING 249
SWIDTH 654 0
DWIDTH 17 0
BBX 17 19 0 0
BITMAP
078000
018000
00C000
006000
000000
FC7E00
3C1E00
3C1E00
3C1E00
3C1E00
3C1E00
3C1E00
3C1E00
3C1E00
3C1E00
3C7E00
3FDE00
1F9F00
0F1F80
ENDCHAR
STARTCHAR uacute
ENCODING 250
SWIDTH 654 0
DWIDTH 17 0
BBX 17 19 0 0
BITMAP
00F000
00C000
018000
030000
000000
FC7E00
3C1E00
3C1E00
3C1E00
3C1E00
3C1E00
3C1E00
3C1E00
3C1E00
3C1E00
3C7E00
3FDE00
1F9F00
0F1F80
ENDCHAR
STARTCHAR ucircumflex
ENCODING 251
SWIDTH 654 0
DWIDTH 17 0
BBX 17 19 0 0
BITMAP
01C000
03E000
077000
0C1800
000000
FC7E00
3C1E00
3C1E00
3C1E00
3C1E00
3C1E00
3C1E00
3C1E00
3C1E00
3C1E00
3C7E00
3FDE00
1F9F00
0F1F80
ENDCHAR
STARTCHAR udieresis
ENCODING 252
SWIDTH 654 0
DWIDTH 17 0
BBX 17 18 0 0
BITMAP
073800
073800
073800
000000
FC7E00
3C1E00
3C1E00
3C1E00
3C1E00
3C1E00
3C1E00
3C1E00
3C1E00
3C1E00
3C7E00
3FDE00
1F9F00
0F1F80
ENDCHAR
STARTCHAR yacute
ENCODING 253
SWIDTH 654 0
DWIDTH 17 0
BBX 17 24 0 -5
BITMAP
00F000
00C000
018000
030000
000000
FF0F80
7C0600
3E0600
1E0400
1E0800
0F0800
0F1000
0F9000
07A000
07E000
03C000
03C000
018000
018000
010000
030000
060000
0C0000
1C0000
ENDCHAR
STARTCHAR thorn
ENCODING 254
SWIDTH 652 0
DWIDTH 17 0
BBX 16 23 0 -5
BITMAP
FC00
7C00
3C00
3C00
3C78
3DFC
3DFE
3E1E
3C0F
3C0F
3C0F
3C0F
3C0F
3C0F
3C1E
3E3E
3FFC
3CF8
3C00
3C00
3C00
3C00
FF00
ENDCHAR
STARTCHAR ydieresis
ENCODING 255
SWIDTH 654 0
DWIDTH 17 0
BBX 17 23 0 -5
BITMAP
0E7000
0E7000
0E7000
000000
FF0F80
7C0600
3E0600
1E0400
1E0800
0F0800
0F1000
0F9000
07A000
07E000
03C000
03C000
018000
018000
010000
030000
060000
0C0000
1C0000
ENDCHAR
STARTCHAR Amacron
ENCODING 256
SWIDTH 795 0
DWIDTH 21 0
BBX 21 22 0 0
BITMAP
01FE00
01FE00
000000
003000
007000
007000
007800
00F800
00FC00
013C00
013E00
021E00
021F00
040F00
040F80
0FFF80
0807C0
1803C0
1003C0
3001E0
7001E0
F807F8
ENDCHAR
STARTCHAR amacron
ENCODING 257
SWIDTH 556 0
DWIDTH 14 0
BBX 14 17 0 0
BITMAP
1FE0
1FE0
0000
1F80
71E0
60F0
60F0
00F0
00F0
1FF0
78F0
F0F0
F0F0
F0F0
F8F0
7F70
3E3C
ENDCHAR
STARTCHAR Abreve
ENCODING 258
SWIDTH 795 0
DWIDTH 21 0
BBX 21 24 0 0
BITMAP
030600
03FE00
01FC00
00F800
000000
003000
007000
007000
007800
00F800
00FC00
013C00
013E00
021E00
021F00
040F00
040F80
0FFF80
0807C0
1803C0
1003C0
3001E0
7001E0
F807F8
ENDCHAR
STARTCHAR abreve
ENCODING 259
SWIDTH 556 0
DWIDTH 14 0
BBX 14 19 0 0
BITMAP
3060
3FE0
1FC0
0F80
0000
1F80
71E0
60F0
60F0
00F0
00F0
1FF0
78F0
F0F0
F0F0
F0F0
F8F0
7F70
3E3C
ENDCHAR
STARTCHAR Aogonek
ENCODING 260
SWIDTH 795 0
DWIDTH 21 0
BBX 21 23 0 -4
BITMAP
003000
007000
007000
007800
00F800
00FC00
013C00
013E00
021E00
021F00
040F00
040F80
0FFF80
0807C0
1803C0
1003C0
3001E0
7001E0
F807F8
003800
006000
007400
003C00
ENDCHAR
STARTCHAR aogonek
ENCODING 261
SWIDTH 556 0
DWIDTH 14 0
BBX 14 18 0 -4
BITMAP
1F80
71E0
60F0
60F0
00F0
00F0
1FF0
78F0
F0F0
F0F0
F0F0
F8F0
7F70
3E3C
0380
0600
0740
03C0
ENDCHAR
STARTCHAR Cacute
ENCODING 262
SWIDTH 711 0
DWIDTH 18 0
BBX 16 24 1 0
BITMAP
00F0
00C0
0180
0300
0000
03FE
0E07
1C03
3803
7800
7000
F000
F000
F000
F000
F000
F000
F000
7800
7800
3C00
1F03
0FFF
03FC
ENDCHAR
STARTCHAR cacute
ENCODING 263
SWIDTH 541 0
DWIDTH 14 0
BBX 12 19 1 0
BITMAP
01E0
0180
0300
0600
0000
0FF0
3870
7830
7030
F000
F000
F000
F000
F000
F800
7800
3C10
1FF0
0FE0
ENDCHAR
STARTCHAR Ccircumflex
ENCODING 264
SWIDTH 711 0
DWIDTH 18 0
BBX 16 24 1 0
BITMAP
01C0
03E0
0770
0C18
0000
03FE
0E07
1C03
3803
7800
7000
F000
F000
F000
F000
F000
F000
F000
7800
7800
3C00
1F03
0FFF
03FC
ENDCHAR
STARTCHAR ccircumflex
ENCODING 265
SWIDTH 541 0
DWIDTH 14 0
BBX 12 19 1 0
BITMAP
0700
0F80
1DC0
3060
0000
0FF0
3870
7830
7030
F000
F000
F000
F000
F000
F800
7800
3C10
1FF0
0FE0
ENDCHAR
STARTCHAR Cdotaccent
ENCODING 266
SWIDTH 711 0
DWIDTH 18 0
BBX 16 24 1 0
BITMAP
01C0
01C0
01C0
01C0
0000
03FE
0E07
1C03
3803
7800
7000
F000
F000
F000
F000
F000
F000
F000
7800
7800
3C00
1F03
0FFF
03FC
ENDCHAR
STARTCHAR cdotaccent
ENCODING 267
SWIDTH 541 0
DWIDTH 14 0
BBX 12 19 1 0
BITMAP
0700
0700
0700
0700
0000
0FF0
3870
7830
7030
F000
F000
F000
F000
F000
F800
7800
3C10
1FF0
0FE0
ENDCHAR
STARTCHAR Ccaron
ENCODING 268
SWIDTH 711 0
DWIDTH 18 0
BBX 16 24 1 0
BITMAP
0C18
0770
03E0
01C0
0000
03FE
0E07
1C03
3803
7800
7000
F000
F000
F000
F000
F000
F000
F000
7800
7800
3C00
1F03
0FFF
03FC
ENDCHAR
STARTCHAR ccaron
ENCODING 269
SWIDTH 541 0
DWIDTH 14 0
BBX 12 19 1 0
BITMAP
3060
1DC0
0F80
0700
0000
0FF0
3870
7830
7030
F000
F000
F000
F000
F000
F800
7800
3C10
1FF0
0FE0
ENDCHAR
STARTCHAR Dcaron
ENCODING 270
SWIDTH 794 0
DWIDTH 21 0
BBX 19 24 1 0
BITMAP
0C1800
077000
03E000
01C000
000000
FFF800
3C1E00
3C0780
3C0380
3C03C0
3C01C0
3C01E0
3C01E0
3C01E0
3C01E0
3C01E0
3C01E0
3C01E0
3C01C0
3C03C0
3C0380
3C0700
3E0E00
FFF800
ENDCHAR
STARTCHAR dcaron
ENCODING 271
SWIDTH 884 0
DWIDTH 23 0
BBX 20 20 1 0
BITMAP
00FCF0
003CF0
003CF0
003CF0
003C70
003C70
1F3C60
3FFCC0
787C00
783C00
F03C00
F03C00
F03C00
F03C00
F03C00
F03C00
787C00
7FBC00
3FBE00
1E3F00
ENDCHAR
STARTCHAR Dcroat
ENCODING 272
SWIDTH 794 0
DWIDTH 21 0
BBX 20 19 0 0
BITMAP
7FFC00
3E0F00
1E03C0
1E01C0
1E01E0
1E00E0
1E00F0
1E00F0
1E00F0
FFE0F0
1E00F0
1E00F0
1E00F0
1E00E0
1E01E0
1E01C0
1E0380
3F0700
7FFC00
ENDCHAR
STARTCHAR dcroat
ENCODING 273
SWIDTH 652 0
DWIDTH 17 0
BBX 16 20 1 0
BITMAP
00FC
003C
003C
003C
00FF
00FF
1F3C
3FFC
787C
783C
F03C
F03C
F03C
F03C
F03C
F03C
787C
7FBC
3FBE
1E3F
ENDCHAR
STARTCHAR Emacron
ENCODING 274
SWIDTH 601 0
DWIDTH 16 0
BBX 14 22 1 0
BITMAP
1FE0
1FE0
0000
FFFC
3C0C
3C0C
3C00
3C00
3C00
3C00
3C00
3C10
3FF0
3C10
3C10
3C00
3C00
3C00
3C00
3C0C
3C0C
FFFC
ENDCHAR
STARTCHAR emacron
ENCODING 275
SWIDTH 568 0
DWIDTH 15 0
BBX 13 17 1 0
BITMAP
1FE0
1FE0
0000
0FC0
38E0
7870
7070
F078
F078
FFF8
F000
F000
F800
7800
3C08
1FF8
07F0
ENDCHAR
STARTCHAR Ebreve
ENCODING 276
SWIDTH 601 0
DWIDTH 16 0
BBX 14 24 1 0
BITMAP
3060
3FE0
1FC0
0F80
0000
FFFC
3C0C
3C0C
3C00
3C00
3C00
3C00
3C00
3C10
3FF0
3C10
3C10
3C00
3C00
3C00
3C00
3C0C
3C0C
FFFC
ENDCHAR
STARTCHAR ebreve
ENCODING 277
SWIDTH 568 0
DWIDTH 15 0
BBX 13 19 1 0
BITMAP
3060
3FE0
1FC0
0F80
0000
0FC0
38E0
7870
7070
F078
F078
FFF8
F000
F000
F800
7800
3C08
1FF8
07F0
ENDCHAR
STARTCHAR Edotaccent
ENCODING 278
SWIDTH 601 0
DWIDTH 16 0
BBX 14 24 1 0
BITMAP
0700
0700
0700
0700
0000
FFFC
3C0C
3C0C
3C00
3C00
3C00
3C00
3C00
3C10
3FF0
3C10
3C10
3C00
3C00
3C00
3C00
3C0C
3C0C
FFFC
ENDCHAR
STARTCHAR edotaccent
ENCODING 279
SWIDTH 568 0
DWIDTH 15 0
BBX 13 19 1 0
BITMAP
0700
0700
0700
0700
0000
0FC0
38E0
7870
7070
F078
F078
FFF8
F000
F000
F800
7800
3C08
1FF8
07F0
ENDCHAR
STARTCHAR Eogonek
ENCODING 280
SWIDTH 601 0
DWIDTH 16 0
BBX 14 23 1 -4
BITMAP
FFFC
3C0C
3C0C
3C00
3C00
3C00
3C00
3C00
3C10
3FF0
3C10
3C10
3C00
3C00
3C00
3C00
3C0C
3C0C
FFFC
0700
0C00
0E80
0780
ENDCHAR
STARTCHAR eogonek
ENCODING 281
SWIDTH 568 0
DWIDTH 15 0
BBX 13 18 1 -4
BITMAP
0FC0
38E0
7870
7070
F078
F078
FFF8
F000
F000
F800
7800
3C08
1FF8
07F0
0380
0600
0740
03C0
ENDCHAR
STARTCHAR Ecaron
ENCODING 282
SWIDTH 601 0
DWIDTH 16 0
BBX 14 24 1 0
BITMAP
3060
1DC0
0F80
0700
0000
FFFC
3C0C
3C0C
3C00
3C00
3C00
3C00
3C00
3C10
3FF0
3C10
3C10
3C00
3C00
3C00
3C00
3C0C
3C0C
FFFC
ENDCHAR
STARTCHAR ecaron
ENCODING 283
SWIDTH 568 0
DWIDTH 15 0
BBX 13 19 1 0
BITMAP
3060
1DC0
0F80
0700
0000
0FC0
38E0
7870
7070
F078
F078
FFF8
F000
F000
F800
7800
3C08
1FF8
07F0
ENDCHAR
STARTCHAR Gcircumflex
ENCODING 284
SWIDTH 753 0
DWIDTH 20 0
BBX 18 24 1 0
BITMAP
01C000
03E000
077000
0C1800
000000
03FE00
0E0700
1C0300
380300
780000
700000
F00000
F00000
F00000
F00000
F00000
F03FC0
F00F00
780F00
780F00
380F00
1C0F00
0F0F00
03FE00
ENDCHAR
STARTCHAR gcircumflex
ENCODING 285
SWIDTH 599 0
DWIDTH 16 0
BBX 14 24 1 -5
BITMAP
0380
07C0
0EE0
1830
0000
0FFC
38E8
38F0
78F0
78F0
78F0
78E0
38E0
0FC0
1800
3800
7FF0
3FF8
1FF8
7078
F078
F070
78E0
3FC0
ENDCHAR
STARTCHAR Gbreve
ENCODING 286
SWIDTH 753 0
DWIDTH 20 0
BBX 18 24 1 0
BITMAP
0C1800
0FF800
07F000
03E000
000000
03FE00
0E0700
1C0300
380300
780000
700000
F00000
F00000
F00000
F00000
F00000
F03FC0
F00F00
780F00
780F00
380F00
1C0F00
0F0F00
03FE00
ENDCHAR
STARTCHAR gbreve
ENCODING 287
SWIDTH 599 0
DWIDTH 16 0
BBX 14 24 1 -5
BITMAP
1830
1FF0
0FE0
07C0
0000
0FFC
38E8
38F0
78F0
78F0
78F0
78E0
38E0
0FC0
1800
3800
7FF0
3FF8
1FF8
7078
F078
F070
78E0
3FC0
ENDCHAR
STARTCHAR Gdotaccent
ENCODING 288
SWIDTH 753 0
DWIDTH 20 0
BBX 18 24 1 0
BITMAP
01C000
01C000
01C000
01C000
000000
03FE00
0E0700
1C0300
380300
780000
700000
F00000
F00000
F00000
F00000
F00000
F03FC0
F00F00
780F00
780F00
380F00
1C0F00
0F0F00
03FE00
ENDCHAR
STARTCHAR gdotaccent
ENCODING 289
SWIDTH 599 0
DWIDTH 16 0
BBX 14 24 1 -5
BITMAP
0380
0380
0380
0380
0000
0FFC
38E8
38F0
78F0
78F0
78F0
78E0
38E0
0FC0
1800
3800
7FF0
3FF8
1FF8
7078
F078
F070
78E0
3FC0
ENDCHAR
STARTCHAR Gcommaaccent
ENCODING 290
SWIDTH 753 0
DWIDTH 20 0
BBX 18 29 1 -10
BITMAP
03FE00
0E0700
1C0300
380300
780000
700000
F00000
F00000
F00000
F00000
F00000
F03FC0
F00F00
780F00
780F00
380F00
1C0F00
0F0F00
03FE00
000000
01E000
01E000
01E000
01E000
01E000
00E000
00E000
00C000
018000
ENDCHAR
STARTCHAR gcommaaccent
ENCODING 291
SWIDTH 599 0
DWIDTH 16 0
BBX 14 28 1 -5
BITMAP
0180
0300
0700
0700
0780
0780
0780
0780
0000
0FFC
38E8
38F0
78F0
78F0
78F0
78E0
38E0
0FC0
1800
3800
7FF0
3FF8
1FF8
7078
F078
F070
78E0
3FC0
ENDCHAR
STARTCHAR Hcircumflex
ENCODING 292
SWIDTH 798 0
DWIDTH 21 0
BBX 20 24 0 0
BITMAP
007000
00F800
01DC00
030600
000000
FF0FF0
3C03C0
3C03C0
3C03C0
3C03C0
3C03C0
3C03C0
3C03C0
3FFFC0
3C03C0
3C03C0
3C03C0
3C03C0
3C03C0
3C03C0
3C03C0
3C03C0
3E07C0
FF0FF0
ENDCHAR
STARTCHAR hcircumflex
ENCODING 293
SWIDTH 654 0
DWIDTH 17 0
BBX 17 25 0 0
BITMAP
0E0000
1F0000
3B8000
60C000
000000
FC0000
3C0000
3C0000
3C0000
3C0000
3C0000
3C7800
3CFC00
3DFE00
3F1E00
3C1E00
3C1E00
3C1E00
3C1E00
3C1E00
3C1E00
3C1E00
3C1E00
3C1E00
FF7F80
ENDCHAR
STARTCHAR Hbar
ENCODING 294
SWIDTH 798 0
DWIDTH 21 0
BBX 20 19 0 0
BITMAP
FF0FF0
3C03C0
3C03C0
3C03C0
FFFFF0
FFFFF0
3C03C0
3C03C0
3FFFC0
3C03C0
3C03C0
3C03C0
3C03C0
3C03C0
3C03C0
3C03C0
3C03C0
3E07C0
FF0FF0
ENDCHAR
STARTCHAR hbar
ENCODING 295
SWIDTH 654 0
DWIDTH 17 0
BBX 17 20 0 0
BITMAP
FC0000
3C0000
3C0000
3C0000
FF0000
FF0000
3C7800
3CFC00
3DFE00
3F1E00
3C1E00
3C1E00
3C1E00
3C1E00
3C1E00
3C1E00
3C1E00
3C1E00
3C1E00
FF7F80
ENDCHAR
STARTCHAR Itilde
ENCODING 296
SWIDTH 349 0
DWIDTH 9 0
BBX 9 24 1 0
BITMAP
7080
FF80
FF00
8700
0000
FF00
3C00
3C00
3C00
3C00
3C00
3C00
3C00
3C00
3C00
3C00
3C00
3C00
3C00
3C00
3C00
3C00
3C00
FF00
ENDCHAR
STARTCHAR itilde
ENCODING 297
SWIDTH 325 0
DWIDTH 8 0
BBX 9 19 -1 0
BITMAP
7080
FF80
FF00
8700
0000
7E00
1E00
1E00
1E00
1E00
1E00
1E00
1E00
1E00
1E00
1E00
1E00
1E00
7F80
ENDCHAR
STARTCHAR Imacron
ENCODING 298
SWIDTH 349 0
DWIDTH 9 0
BBX 8 22 1 0
BITMAP
FF
FF
00
FF
3C
3C
3C
3C
3C
3C
3C
3C
3C
3C
3C
3C
3C
3C
3C
3C
3C
FF
ENDCHAR
STARTCHAR imacron
ENCODING 299
SWIDTH 325 0
DWIDTH 8 0
BBX 8 17 0 0
BITMAP
FF
FF
00
FC
3C
3C
3C
3C
3C
3C
3C
3C
3C
3C
3C
3C
FF
ENDCHAR
STARTCHAR Ibreve
ENCODING 300
SWIDTH 349 0
DWIDTH 9 0
BBX 9 24 1 0
BITMAP
C180
FF80
7F00
3E00
0000
FF00
3C00
3C00
3C00
3C00
3C00
3C00
3C00
3C00
3C00
3C00
3C00
3C00
3C00
3C00
3C00
3C00
3C00
FF00
ENDCHAR
STARTCHAR ibreve
ENCODING 301
SWIDTH 325 0
DWIDTH 8 0
BBX 9 19 -1 0
BITMAP
C180
FF80
7F00
3E00
0000
7E00
1E00
1E00
1E00
1E00
1E00
1E00
1E00
1E00
1E00
1E00
1E00
1E00
7F80
ENDCHAR
STARTCHAR Iogonek
ENCODING 302
SWIDTH 349 0
DWIDTH 9 0
BBX 8 23 1 -4
BITMAP
FF
3C
3C
3C
3C
3C
3C
3C
3C
3C
3C
3C
3C
3C
3C
3C
3C
3C
FF
1C
30
3A
1E
ENDCHAR
STARTCHAR iogonek
ENCODING 303
SWIDTH 325 0
DWIDTH 8 0
BBX 8 24 0 -4
BITMAP
3C
3C
3C
3C
00
00
FC
3C
3C
3C
3C
3C
3C
3C
3C
3C
3C
3C
3C
FF
1C
30
3A
1E
ENDCHAR
STARTCHAR Idotaccent
ENCODING 304
SWIDTH 349 0
DWIDTH 9 0
BBX 8 24 1 0
BITMAP
1C
1C
1C
1C
00
FF
3C
3C
3C
3C
3C
3C
3C
3C
3C
3C
3C
3C
3C
3C
3C
3C
3C
FF
ENDCHAR
STARTCHAR dotlessi
ENCODING 305
SWIDTH 325 0
DWIDTH 8 0
BBX 8 14 0 0
BITMAP
FC
3C
3C
3C
3C
3C
3C
3C
3C
3C
3C
3C
3C
FF
ENDCHAR
STARTCHAR IJ
ENCODING 306
SWIDTH 784 0
DWIDTH 21 0
BBX 19 23 1 -4
BITMAP
FF1FE0
3C07C0
3C0780
3C0780
3C0780
3C0780
3C0780
3C0780
3C0780
3C0780
3C0780
3C0780
3C0780
3C0780
3C0780
3C0780
3C0780
3C0780
FF0780
00C780
00C700
00CF00
00FC00
ENDCHAR
STARTCHAR ij
ENCODING 307
SWIDTH 664 0
DWIDTH 17 0
BBX 16 25 0 -5
BITMAP
3C0F
3C0F
3C0F
3C0F
0000
0000
FC3F
3C0F
3C0F
3C0F
3C0F
3C0F
3C0F
3C0F
3C0F
3C0F
3C0F
3C0F
3C0F
FF0F
000F
018F
018F
018E
01FC
ENDCHAR
STARTCHAR Jcircumflex
ENCODING 308
SWIDTH 452 0
DWIDTH 12 0
BBX 11 28 0 -4
BITMAP
0700
0F80
1DC0
3060
0000
1FE0
07C0
0780
0780
0780
0780
0780
0780
0780
0780
0780
0780
0780
0780
0780
0780
0780
0780
0780
C780
C700
CF00
FC00
ENDCHAR
STARTCHAR jcircumflex
ENCODING 309
SWIDTH 355 0
DWIDTH 9 0
BBX 10 24 -1 -5
BITMAP
0E00
1F00
3B80
60C0
0000
1F80
0780
0780
0780
0780
0780
0780
0780
0780
0780
0780
0780
0780
0780
0780
C780
C780
C700
FE00
ENDCHAR
STARTCHAR Kcommaaccent
ENCODING 310
SWIDTH 747 0
DWIDTH 19 0
BBX 19 29 1 -10
BITMAP
FF0FC0
3C0700
3C0400
3C0800
3C1000
3C2000
3C4000
3C8000
3DC000
3FE000
3FE000
3DF000
3CF800
3C7C00
3C3E00
3C3E00
3C1F00
3C0F80
FF3FE0
000000
01E000
01E000
01E000
01E000
01E000
00E000
00E000
00C000
018000
ENDCHAR
STARTCHAR kcommaaccent
ENCODING 311
SWIDTH 654 0
DWIDTH 16 0
BBX 17 30 0 -10
BITMAP
FC0000
3C0000
3C0000
3C0000
3C0000
3C0000
3C3F00
3C1C00
3C1000
3C2000
3C4000
3DC000
3FE000
3DE000
3DF000
3CF800
3C7C00
3C7E00
3C3F00
FF1F80
000000
03C000
03C000
03C000
03C000
03C000
01C000
01C000
018000
030000
ENDCHAR
STARTCHAR kgreenlandic
ENCODING 312
SWIDTH 654 0
DWIDTH 16 0
BBX 17 14 0 0
BITMAP
3C3F00
3C1C00
3C1000
3C2000
3C4000
3DC000
3FE000
3DE000
3DF000
3CF800
3C7C00
3C7E00
3C3F00
FF1F80
ENDCHAR
STARTCHAR Lacute
ENCODING 313
SWIDTH 584 0
DWIDTH 15 0
BBX 14 24 1 0
BITMAP
0780
0600
0C00
1800
0000
FF00
3C00
3C00
3C00
3C00
3C00
3C00
3C00
3C00
3C00
3C00
3C00
3C00
3C00
3C00
3C0C
3C0C
3C0C
FFFC
ENDCHAR
STARTCHAR lacute
ENCODING 314
SWIDTH 325 0
DWIDTH 8 0
BBX 8 25 0 0
BITMAP
0F
0C
18
30
00
FC
3C
3C
3C
3C
3C
3C
3C
3C
3C
3C
3C
3C
3C
3C
3C
3C
3C
3C
FF
ENDCHAR
STARTCHAR Lcommaaccent
ENCODING 315
SWIDTH 584 0
DWIDTH 15 0
BBX 14 29 1 -10
BITMAP
FF00
3C00
3C00
3C00
3C00
3C00
3C00
3C00
3C00
3C00
3C00
3C00
3C00
3C00
3C00
3C0C
3C0C
3C0C
FFFC
0000
0780
0780
0780
0780
0780
0380
0380
0300
0600
ENDCHAR
STARTCHAR lcommaaccent
ENCODING 316
SWIDTH 325 0
DWIDTH 8 0
BBX 8 30 0 -10
BITMAP
FC
3C
3C
3C
3C
3C
3C
3C
3C
3C
3C
3C
3C
3C
3C
3C
3C
3C
3C
FF
00
3C
3C
3C
3C
3C
1C
1C
18
30
ENDCHAR
STARTCHAR Lcaron
ENCODING 317
SWIDTH 820 0
DWIDTH 21 0
BBX 18 20 1 0
BITMAP
0003C0
FF03C0
3C03C0
3C03C0
3C01C0
3C01C0
3C0180
3C0300
3C0000
3C0000
3C0000
3C0000
3C0000
3C0000
3C0000
3C0000
3C0C00
3C0C00
3C0C00
FFFC00
ENDCHAR
STARTCHAR lcaron
ENCODING 318
SWIDTH 574 0
DWIDTH 15 0
BBX 13 20 0 0
BITMAP
FC78
3C78
3C78
3C78
3C38
3C38
3C30
3C60
3C00
3C00
3C00
3C00
3C00
3C00
3C00
3C00
3C00
3C00
3C00
FF00
ENDCHAR
STARTCHAR Ldot
ENCODING 319
SWIDTH 1178 0
DWIDTH 30 0
BBX 23 19 1 0
BITMAP
FF0000
3C0000
3C0000
3C0000
3C0000
3C0000
3C0000
3C0000
3C0000
3C000E
3C000E
3C000E
3C000E
3C0000
3C0000
3C0C00
3C0C00
3C0C00
FFFC00
ENDCHAR
STARTCHAR ldot
ENCODING 320
SWIDTH 932 0
DWIDTH 24 0
BBX 18 20 0 0
BITMAP
FC0000
3C0000
3C0000
3C0000
3C0000
3C0000
3C0000
3C0000
3C0000
3C0000
3C01C0
3C01C0
3C01C0
3C01C0
3C0000
3C0000
3C0000
3C0000
3C0000
FF0000
ENDCHAR
STARTCHAR Lslash
ENCODING 321
SWIDTH 584 0
DWIDTH 15 0
BBX 14 19 1 0
BITMAP
FF00
3C00
3C00
3C00
3C00
3C80
3D80
3F00
3C00
7C00
FC00
BC00
3C00
3C00
3C00
3C0C
3C0C
3E0C
FFFC
ENDCHAR
STARTCHAR lslash
ENCODING 322
SWIDTH 325 0
DWIDTH 8 0
BBX 10 20 0 0
BITMAP
7E00
3E00
1E00
1E00
1E00
1E00
1E00
1EC0
1F80
1E00
3E00
FE00
9E00
1E00
1E00
1E00
1E00
1E00
3F00
7F80
ENDCHAR
STARTCHAR Nacute
ENCODING 323
SWIDTH 788 0
DWIDTH 20 0
BBX 19 24 1 0
BITMAP
007800
006000
00C000
018000
000000
F807E0
3C0180
3E0180
3F0180
3F0180
3F8180
37C180
33C180
33E180
31F180
30F980
30F980
307D80
303F80
301F80
301F80
300F80
300780
FC0380
ENDCHAR
STARTCHAR nacute
ENCODING 324
SWIDTH 654 0
DWIDTH 17 0
BBX 17 19 0 0
BITMAP
00F000
00C000
018000
030000
000000
FC7800
7CFC00
3DFE00
3F1E00
3C1E00
3C1E00
3C1E00
3C1E00
3C1E00
3C1E00
3C1E00
3C1E00
3C1E00
FF7F80
ENDCHAR
STARTCHAR Ncommaaccent
ENCODING 325
SWIDTH 788 0
DWIDTH 20 0
BBX 19 29 1 -10
BITMAP
F807E0
3C0180
3E0180
3F0180
3F0180
3F8180
37C180
33C180
33E180
31F180
30F980
30F980
307D80
303F80
301F80
301F80
300F80
300780
FC0380
000000
00F000
00F000
00F000
00F000
00F000
007000
007000
006000
00C000
ENDCHAR
STARTCHAR ncommaaccent
ENCODING 326
SWIDTH 654 0
DWIDTH 17 0
BBX 17 24 0 -10
BITMAP
FC7800
7CFC00
3DFE00
3F1E00
3C1E00
3C1E00
3C1E00
3C1E00
3C1E00
3C1E00
3C1E00
3C1E00
3C1E00
FF7F80
000000
01E000
01E000
01E000
01E000
01E000
00E000
00E000
00C000
018000
ENDCHAR
STARTCHAR Ncaron
ENCODING 327
SWIDTH 788 0
DWIDTH 20 0
BBX 19 24 1 0
BITMAP
0C1800
077000
03E000
01C000
000000
F807E0
3C0180
3E0180
3F0180
3F0180
3F8180
37C180
33C180
33E180
31F180
30F980
30F980
307D80
303F80
301F80
301F80
300F80
300780
FC0380
ENDCHAR
STARTCHAR ncaron
ENCODING 328
SWIDTH 654 0
DWIDTH 17 0
BBX 17 19 0 0
BITMAP
183000
0EE000
07C000
038000
000000
FC7800
7CFC00
3DFE00
3F1E00
3C1E00
3C1E00
3C1E00
3C1E00
3C1E00
3C1E00
3C1E00
3C1E00
3C1E00
FF7F80
ENDCHAR
STARTCHAR napostrophe
ENCODING 329
SWIDTH 906 0
DWIDTH 24 0
BBX 23 20 1 0
BITMAP
F00000
F00000
F00000
F00000
700000
700000
63F1E0
C1F3F0
00F7F8
00FC78
00F078
00F078
00F078
00F078
00F078
00F078
00F078
00F078
00F078
03FDFE
ENDCHAR
STARTCHAR Eng
ENCODING 330
SWIDTH 788 0
DWIDTH 20 0
BBX 19 24 1 -5
BITMAP
F807E0
3C0180
3E0180
3F0180
3F0180
3F8180
37C180
33C180
33E180
31F180
30F980
30F980
307D80
303F80
301F80
301F80
300F80
300780
FC0780
000780
00C780
00C780
00C700
00FE00
ENDCHAR
STARTCHAR eng
ENCODING 331
SWIDTH 654 0
DWIDTH 17 0
BBX 15 19 0 -5
BITMAP
FC78
7CFC
3DFE
3F1E
3C1E
3C1E
3C1E
3C1E
3C1E
3C1E
3C1E
3C1E
3C1E
FF1E
001E
031E
031E
031C
03F8
ENDCHAR
STARTCHAR Omacron
ENCODING 332
SWIDTH 810 0
DWIDTH 21 0
BBX 19 22 1 0
BITMAP
03FC00
03FC00
000000
03F800
0E0E00
1C0700
380380
7803C0
7001C0
F001E0
F001E0
F001E0
F001E0
F001E0
F001E0
F001E0
7001C0
7803C0
380380
1C0700
0E0E00
03F800
ENDCHAR
STARTCHAR omacron
ENCODING 333
SWIDTH 617 0
DWIDTH 16 0
BBX 14 17 1 0
BITMAP
1FE0
1FE0
0000
0FC0
3CF0
7878
7038
F03C
F03C
F03C
F03C
F03C
F03C
7038
7878
3CF0
0FC0
ENDCHAR
STARTCHAR Obreve
ENCODING 334
SWIDTH 810 0
DWIDTH 21 0
BBX 19 24 1 0
BITMAP
060C00
07FC00
03F800
01F000
000000
03F800
0E0E00
1C0700
380380
7803C0
7001C0
F001E0
F001E0
F001E0
F001E0
F001E0
F001E0
F001E0
7001C0
7803C0
380380
1C0700
0E0E00
03F800
ENDCHAR
STARTCHAR obreve
ENCODING 335
SWIDTH 617 0
DWIDTH 16 0
BBX 14 19 1 0
BITMAP
1830
1FF0
0FE0
07C0
0000
0FC0
3CF0
7878
7038
F03C
F03C
F03C
F03C
F03C
F03C
7038
7878
3CF0
0FC0
ENDCHAR
STARTCHAR Ohungarumlaut
ENCODING 336
SWIDTH 810 0
DWIDTH 21 0
BBX 19 24 1 0
BITMAP
006E00
00D800
019000
032000
000000
03F800
0E0E00
1C0700
380380
7803C0
7001C0
F001E0
F001E0
F001E0
F001E0
F001E0
F001E0
F001E0
7001C0
7803C0
380380
1C0700
0E0E00
03F800
ENDCHAR
STARTCHAR ohungarumlaut
ENCODING 337
SWIDTH 617 0
DWIDTH 16 0
BBX 14 19 1 0
BITMAP
01B8
0360
0640
0C80
0000
0FC0
3CF0
7878
7038
F03C
F03C
F03C
F03C
F03C
F03C
7038
7878
3CF0
0FC0
ENDCHAR
STARTCHAR OE
ENCODING 338
SWIDTH 1044 0
DWIDTH 27 0
BBX 26 19 1 0
BITMAP
03F7FF80
0E1F8380
1C0F8180
38078180
78078000
70078000
F0078000
F0078000
F0078300
F007FF00
F0078300
F0078300
F0078000
70078000
78078000
380780C0
1C0F80C0
0E1FC1C0
03F7FFC0
ENDCHAR
STARTCHAR oe
ENCODING 339
SWIDTH 943 0
DWIDTH 25 0
BBX 22 14 1 0
BITMAP
0FC3E0
3C6E70
787C38
703C38
F03C3C
F03C3C
F03FFC
F03C00
F03C00
F03C00
703E00
787F04
3C6FFC
0FC3F8
ENDCHAR
STARTCHAR Racute
ENCODING 340
SWIDTH 720 0
DWIDTH 19 0
BBX 18 24 1 0
BITMAP
00F000
00C000
018000
030000
000000
FFF000
3C3C00
3C1C00
3C1E00
3C1E00
3C1E00
3C1E00
3C1C00
3C3C00
3C7800
3FF000
3CF000
3CF800
3C7C00
3C3C00
3C3E00
3C1F00
3C1F80
FF0FC0
ENDCHAR
STARTCHAR racute
ENCODING 341
SWIDTH 462 0
DWIDTH 12 0
BBX 11 19 0 0
BITMAP
03C0
0300
0600
0C00
0000
FCE0
3DE0
3FE0
3E60
3C00
3C00
3C00
3C00
3C00
3C00
3C00
3C00
3C00
FF00
ENDCHAR
STARTCHAR Rcommaaccent
ENCODING 342
SWIDTH 720 0
DWIDTH 19 0
BBX 18 29 1 -10
BITMAP
FFF000
3C3C00
3C1C00
3C1E00
3C1E00
3C1E00
3C1E00
3C1C00
3C3C00
3C7800
3FF000
3CF000
3CF800
3C7C00
3C3C00
3C3E00
3C1F00
3C1F80
FF0FC0
000000
01E000
01E000
01E000
01E000
01E000
00E000
00E000
00C000
018000
ENDCHAR
STARTCHAR rcommaaccent
ENCODING 343
SWIDTH 462 0
DWIDTH 12 0
BBX 11 24 0 -10
BITMAP
FCE0
3DE0
3FE0
3E60
3C00
3C00
3C00
3C00
3C00
3C00
3C00
3C00
3C00
FF00
0000
1E00
1E00
1E00
1E00
1E00
0E00
0E00
0C00
1800
ENDCHAR
STARTCHAR Rcaron
ENCODING 344
SWIDTH 720 0
DWIDTH 19 0
BBX 18 24 1 0
BITMAP
0C1800
077000
03E000
01C000
000000
FFF000
3C3C00
3C1C00
3C1E00
3C1E00
3C1E00
3C1E00
3C1C00
3C3C00
3C7800
3FF000
3CF000
3CF800
3C7C00
3C3C00
3C3E00
3C1F00
3C1F80
FF0FC0
ENDCHAR
STARTCHAR rcaron
ENCODING 345
SWIDTH 462 0
DWIDTH 12 0
BBX 11 19 0 0
BITMAP
60C0
3B80
1F00
0E00
0000
FCE0
3DE0
3FE0
3E60
3C00
3C00
3C00
3C00
3C00
3C00
3C00
3C00
3C00
FF00
ENDCHAR
STARTCHAR Sacute
ENCODING 346
SWIDTH 556 0
DWIDTH 14 0
BBX 13 24 1 0
BITMAP
03C0
0300
0600
0C00
0000
0FE0
3870
7030
F030
F000
F000
FC00
7F00
3F80
1FE0
07F0
01F8
00F8
0078
0078
C078
C070
E0E0
7F80
ENDCHAR
STARTCHAR sacute
ENCODING 347
SWIDTH 525 0
DWIDTH 14 0
BBX 11 19 2 0
BITMAP
0780
0600
0C00
1800
0000
1F80
79C0
F0C0
F0C0
F800
FE00
7F80
3FC0
0FE0
03E0
C1E0
C1E0
E3C0
7F00
ENDCHAR
STARTCHAR Scircumflex
ENCODING 348
SWIDTH 556 0
DWIDTH 14 0
BBX 13 24 1 0
BITMAP
0700
0F80
1DC0
3060
0000
0FE0
3870
7030
F030
F000
F000
FC00
7F00
3F80
1FE0
07F0
01F8
00F8
0078
0078
C078
C070
E0E0
7F80
ENDCHAR
STARTCHAR scircumflex
ENCODING 349
SWIDTH 525 0
DWIDTH 14 0
BBX 11 19 2 0
BITMAP
0E00
1F00
3B80
60C0
0000
1F80
79C0
F0C0
F0C0
F800
FE00
7F80
3FC0
0FE0
03E0
C1E0
C1E0
E3C0
7F00
ENDCHAR
STARTCHAR Scedilla
ENCODING 350
SWIDTH 556 0
DWIDTH 14 0
BBX 13 24 1 -5
BITMAP
0FE0
3870
7030
F030
F000
F000
FC00
7F00
3F80
1FE0
07F0
01F8
00F8
0078
0078
C078
C070
E0E0
7F80
0200
0780
0380
0380
0700
ENDCHAR
STARTCHAR scedilla
ENCODING 351
SWIDTH 525 0
DWIDTH 14 0
BBX 11 19 2 -5
BITMAP
1F80
79C0
F0C0
F0C0
F800
FE00
7F80
3FC0
0FE0
03E0
C1E0
C1E0
E3C0
7F00
0400
0F00
0700
0700
0E00
ENDCHAR
STARTCHAR Scaron
ENCODING 352
SWIDTH 556 0
DWIDTH 14 0
BBX 13 24 1 0
BITMAP
3060
1DC0
0F80
0700
0000
0FE0
3870
7030
F030
F000
F000
FC00
7F00
3F80
1FE0
07F0
01F8
00F8
0078
0078
C078
C070
E0E0
7F80
ENDCHAR
STARTCHAR scaron
ENCODING 353
SWIDTH 525 0
DWIDTH 14 0
BBX 11 19 2 0
BITMAP
60C0
3B80
1F00
0E00
0000
1F80
79C0
F0C0
F0C0
F800
FE00
7F80
3FC0
0FE0
03E0
C1E0
C1E0
E3C0
7F00
ENDCHAR
STARTCHAR Tcommaaccent
ENCODING 354
SWIDTH 714 0
DWIDTH 19 0
BBX 18 24 0 -5
BITMAP
FFFFC0
E1E0C0
C1E0C0
C1E0C0
01E000
01E000
01E000
01E000
01E000
01E000
01E000
01E000
01E000
01E000
01E000
01E000
01E000
01F000
07F800
008000
01E000
00E000
00E000
01C000
ENDCHAR
STARTCHAR tcommaaccent
ENCODING 355
SWIDTH 389 0
DWIDTH 10 0
BBX 9 23 1 -5
BITMAP
0C00
3C00
3C00
3C00
FF80
3C00
3C00
3C00
3C00
3C00
3C00
3C00
3C00
3C00
3C00
3C00
1F80
0F80
0800
1E00
0E00
0E00
1C00
ENDCHAR
STARTCHAR Tcaron
ENCODING 356
SWIDTH 714 0
DWIDTH 19 0
BBX 18 24 0 0
BITMAP
0C1800
077000
03E000
01C000
000000
FFFFC0
E1E0C0
C1E0C0
C1E0C0
01E000
01E000
01E000
01E000
01E000
01E000
01E000
01E000
01E000
01E000
01E000
01E000
01E000
01F000
07F800
ENDCHAR
STARTCHAR tcaron
ENCODING 357
SWIDTH 635 0
DWIDTH 17 0
BBX 14 20 1 0
BITMAP
003C
003C
0C3C
3C3C
3C1C
3C1C
FF98
3C30
3C00
3C00
3C00
3C00
3C00
3C00
3C00
3C00
3C00
3C00
1F80
0F80
ENDCHAR
STARTCHAR Tbar
ENCODING 358
SWIDTH 714 0
DWIDTH 19 0
BBX 18 19 0 0
BITMAP
FFFFC0
E1E0C0
C1E0C0
C1E0C0
01E000
01E000
01E000
01E000
07F800
07F800
01E000
01E000
01E000
01E000
01E000
01E000
01E000
01F000
07F800
ENDCHAR
STARTCHAR tbar
ENCODING 359
SWIDTH 389 0
DWIDTH 10 0
BBX 9 18 1 0
BITMAP
0C00
3C00
3C00
3C00
FF80
3C00
3C00
3C00
3C00
3C00
7F80
7F80
3C00
3C00
3C00
3C00
1F80
0F80
ENDCHAR
STARTCHAR Utilde
ENCODING 360
SWIDTH 747 0
DWIDTH 19 0
BBX 19 24 0 0
BITMAP
070800
0FF800
0FF000
087000
000000
FF07E0
3C0180
3C0180
3C0180
3C0180
3C0180
3C0180
3C0180
3C0180
3C0180
3C0180
3C0180
3C0180
3C0180
3C0180
1C0300
1E0300
0F0600
03F800
ENDCHAR
STARTCHAR utilde
ENCODING 361
SWIDTH 654 0
DWIDTH 17 0
BBX 17 19 0 0
BITMAP
070800
0FF800
0FF000
087000
000000
FC7E00
3C1E00
3C1E00
3C1E00
3C1E00
3C1E00
3C1E00
3C1E00
3C1E00
3C1E00
3C7E00
3FDE00
1F9F00
0F1F80
ENDCHAR
STARTCHAR Umacron
ENCODING 362
SWIDTH 747 0
DWIDTH 19 0
BBX 19 22 0 0
BITMAP
07F800
07F800
000000
FF07E0
3C0180
3C0180
3C0180
3C0180
3C0180
3C0180
3C0180
3C0180
3C0180
3C0180
3C0180
3C0180
3C0180
3C0180
1C0300
1E0300
0F0600
03F800
ENDCHAR
STARTCHAR umacron
ENCODING 363
SWIDTH 654 0
DWIDTH 17 0
BBX 17 17 0 0
BITMAP
0FF000
0FF000
000000
FC7E00
3C1E00
3C1E00
3C1E00
3C1E00
3C1E00
3C1E00
3C1E00
3C1E00
3C1E00
3C7E00
3FDE00
1F9F00
0F1F80
ENDCHAR
STARTCHAR Ubreve
ENCODING 364
SWIDTH 747 0
DWIDTH 19 0
BBX 19 24 0 0
BITMAP
0C1800
0FF800
07F000
03E000
000000
FF07E0
3C0180
3C0180
3C0180
3C0180
3C0180
3C0180
3C0180
3C0180
3C0180
3C0180
3C0180
3C0180
3C0180
3C0180
1C0300
1E0300
0F0600
03F800
ENDCHAR
STARTCHAR ubreve
ENCODING 365
SWIDTH 654 0
DWIDTH 17 0
BBX 17 19 0 0
BITMAP
0C1800
0FF800
07F000
03E000
000000
FC7E00
3C1E00
3C1E00
3C1E00
3C1E00
3C1E00
3C1E00
3C1E00
3C1E00
3C1E00
3C7E00
3FDE00
1F9F00
0F1F80
ENDCHAR
STARTCHAR Uring
ENCODING 366
SWIDTH 747 0
DWIDTH 19 0
BBX 19 24 0 0
BITMAP
00C000
012000
012000
00C000
000000
FF07E0
3C0180
3C0180
3C0180
3C0180
3C0180
3C0180
3C0180
3C0180
3C0180
3C0180
3C0180
3C0180
3C0180
3C0180
1C0300
1E0300
0F0600
03F800
ENDCHAR
STARTCHAR uring
ENCODING 367
SWIDTH 654 0
DWIDTH 17 0
BBX 17 19 0 0
BITMAP
018000
024000
024000
018000
000000
FC7E00
3C1E00
3C1E00
3C1E00
3C1E00
3C1E00
3C1E00
3C1E00
3C1E00
3C1E00
3C7E00
3FDE00
1F9F00
0F1F80
ENDCHAR
STARTCHAR Uhungarumlaut
ENCODING 368
SWIDTH 747 0
DWIDTH 19 0
BBX 19 24 0 0
BITMAP
006E00
00D800
019000
032000
000000
FF07E0
3C0180
3C0180
3C0180
3C0180
3C0180
3C0180
3C0180
3C0180
3C0180
3C0180
3C0180
3C0180
3C0180
3C0180
1C0300
1E0300
0F0600
03F800
ENDCHAR
STARTCHAR uhungarumlaut
ENCODING 369
SWIDTH 654 0
DWIDTH 17 0
BBX 17 19 0 0
BITMAP
00DC00
01B000
032000
064000
000000
FC7E00
3C1E00
3C1E00
3C1E00
3C1E00
3C1E00
3C1E00
3C1E00
3C1E00
3C1E00
3C7E00
3FDE00
1F9F00
0F1F80
ENDCHAR
STARTCHAR Uogonek
ENCODING 370
SWIDTH 747 0
DWIDTH 19 0
BBX 19 23 0 -4
BITMAP
FF07E0
3C0180
3C0180
3C0180
3C0180
3C0180
3C0180
3C0180
3C0180
3C0180
3C0180
3C0180
3C0180
3C0180
3C0180
1C0300
1E0300
0F0600
03F800
00E000
018000
01D000
00F000
ENDCHAR
STARTCHAR uogonek
ENCODING 371
SWIDTH 654 0
DWIDTH 17 0
BBX 17 18 0 -4
BITMAP
FC7E00
3C1E00
3C1E00
3C1E00
3C1E00
3C1E00
3C1E00
3C1E00
3C1E00
3C1E00
3C7E00
3FDE00
1F9F00
0F1F80
00E000
018000
01D000
00F000
ENDCHAR
STARTCHAR Wcircumflex
ENCODING 372
SWIDTH 955 0
DWIDTH 25 0
BBX 25 24 0 0
BITMAP
00380000
007C0000
00EE0000
01830000
00000000
FE040F80
7C0E0200
3C0E0600
3C0E0400
3E1F0400
1E1F0400
1E1F0800
1E2F8800
1F278800
0F279000
0F47D000
0FC3D000
07C3F000
0783E000
0781E000
0781E000
0381C000
0300C000
0300C000
ENDCHAR
STARTCHAR wcircumflex
ENCODING 373
SWIDTH 880 0
DWIDTH 23 0
BBX 23 19 0 0
BITMAP
007000
00F800
01DC00
030600
000000
FE0C3E
7C1C08
3C1E18
3C1E10
1E3E10
1E2F30
1E4F20
0F4FA0
0FC7C0
0F87C0
0783C0
070380
070380
020180
ENDCHAR
STARTCHAR Ycircumflex
ENCODING 374
SWIDTH 717 0
DWIDTH 19 0
BBX 18 24 0 0
BITMAP
01C000
03E000
077000
0C1800
000000
FF07C0
7C0380
3E0300
1E0200
1F0400
0F0400
0F8800
07C800
03D000
03F000
01E000
01E000
01E000
01E000
01E000
01E000
01E000
01E000
07F800
ENDCHAR
STARTCHAR ycircumflex
ENCODING 375
SWIDTH 654 0
DWIDTH 17 0
BBX 17 24 0 -5
BITMAP
038000
07C000
0EE000
183000
000000
FF0F80
7C0600
3E0600
1E0400
1E0800
0F0800
0F1000
0F9000
07A000
07E000
03C000
03C000
018000
018000
010000
030000
060000
0C0000
1C0000
ENDCHAR
STARTCHAR Ydieresis
ENCODING 376
SWIDTH 717 0
DWIDTH 19 0
BBX 18 23 0 0
BITMAP
073800
073800
073800
000000
FF07C0
7C0380
3E0300
1E0200
1F0400
0F0400
0F8800
07C800
03D000
03F000
01E000
01E000
01E000
01E000
01E000
01E000
01E000
01E000
07F800
ENDCHAR
STARTCHAR Zacute
ENCODING 377
SWIDTH 639 0
DWIDTH 17 0
BBX 14 24 1 0
BITMAP
00F0
00C0
0180
0300
0000
7FFC
607C
6078
60F8
00F0
01F0
03E0
03C0
07C0
0780
0F80
0F00
1F00
3E00
3C00
7C00
780C
F80C
FFFC
ENDCHAR
STARTCHAR zacute
ENCODING 378
SWIDTH 584 0
DWIDTH 15 0
BBX 13 19 1 0
BITMAP
01E0
0180
0300
0600
0000
FFF8
E0F8
C1F0
03E0
03E0
07C0
0F80
0F00
1F00
3E00
7C00
7C18
F818
FFF8
ENDCHAR
STARTCHAR Zdotaccent
ENCODING 379
SWIDTH 639 0
DWIDTH 17 0
BBX 14 24 1 0
BITMAP
0380
0380
0380
0380
0000
7FFC
607C
6078
60F8
00F0
01F0
03E0
03C0
07C0
0780
0F80
0F00
1F00
3E00
3C00
7C00
780C
F80C
FFFC
ENDCHAR
STARTCHAR zdotaccent
ENCODING 380
SWIDTH 584 0
DWIDTH 15 0
BBX 13 19 1 0
BITMAP
0700
0700
0700
0700
0000
FFF8
E0F8
C1F0
03E0
03E0
07C0
0F80
0F00
1F00
3E00
7C00
7C18
F818
FFF8
ENDCHAR
STARTCHAR Zcaron
ENCODING 381
SWIDTH 639 0
DWIDTH 17 0
BBX 14 24 1 0
BITMAP
1830
0EE0
07C0
0380
0000
7FFC
607C
6078
60F8
00F0
01F0
03E0
03C0
07C0
0780
0F80
0F00
1F00
3E00
3C00
7C00
780C
F80C
FFFC
ENDCHAR
STARTCHAR zcaron
ENCODING 382
SWIDTH 584 0
DWIDTH 15 0
BBX 13 19 1 0
BITMAP
3060
1DC0
0F80
0700
0000
FFF8
E0F8
C1F0
03E0
03E0
07C0
0F80
0F00
1F00
3E00
7C00
7C18
F818
FFF8
ENDCHAR
STARTCHAR uni0186
ENCODING 390
SWIDTH 711 0
DWIDTH 18 0
BBX 16 19 1 0
BITMAP
3FC0
FFF0
C0F8
003C
001E
001E
000F
000F
000F
000F
000F
000F
000F
000E
001E
C01C
C038
E070
7FC0
ENDCHAR
STARTCHAR uni0189
ENCODING 393
SWIDTH 794 0
DWIDTH 21 0
BBX 20 19 0 0
BITMAP
7FFC00
3E0F00
1E03C0
1E01C0
1E01E0
1E00E0
1E00F0
1E00F0
1E00F0
FFE0F0
1E00F0
1E00F0
1E00F0
1E00E0
1E01E0
1E01C0
1E0380
3F0700
7FFC00
ENDCHAR
STARTCHAR uni018E
ENCODING 398
SWIDTH 601 0
DWIDTH 16 0
BBX 14 19 1 0
BITMAP
FFFC
C0F0
C0F0
00F0
00F0
00F0
00F0
20F0
20F0
3FF0
20F0
00F0
00F0
00F0
00F0
00F0
C0F0
C0F0
FFFC
ENDCHAR
STARTCHAR florin
ENCODING 402
SWIDTH 623 0
DWIDTH 16 0
BBX 13 23 3 -4
BITMAP
00F8
0318
0718
0718
0E00
0E00
1E00
1E00
1E00
7F80
3C00
3C00
3C00
3C00
3C00
7800
7800
7800
7800
7800
F000
F000
F000
ENDCHAR
STARTCHAR uni0197
ENCODING 407
SWIDTH 349 0
DWIDTH 9 0
BBX 8 19 1 0
BITMAP
FF
3C
3C
3C
3C
3C
3C
3C
FF
FF
3C
3C
3C
3C
3C
3C
3C
3C
FF
ENDCHAR
STARTCHAR uni019A
ENCODING 410
SWIDTH 325 0
DWIDTH 8 0
BBX 8 20 0 0
BITMAP
FC
3C
3C
3C
3C
3C
3C
3C
3C
FF
FF
3C
3C
3C
3C
3C
3C
3C
3C
FF
ENDCHAR
STARTCHAR uni019D
ENCODING 413
SWIDTH 788 0
DWIDTH 20 0
BBX 22 24 -2 -5
BITMAP
1F00FC
078030
07C030
07E030
07E030
07F030
06F830
067830
067C30
063E30
061F30
061F30
060FB0
0787F0
0783F0
0783F0
0781F0
0780F0
078070
078000
C78000
C78000
C70000
FE0000
ENDCHAR
STARTCHAR uni019F
ENCODING 415
SWIDTH 810 0
DWIDTH 21 0
BBX 19 19 1 0
BITMAP
03F800
0E0E00
1C0700
380380
7803C0
7001C0
F001E0
F001E0
FFFFE0
FFFFE0
F001E0
F001E0
F001E0
7001C0
7803C0
380380
1C0700
0E0E00
03F800
ENDCHAR
STARTCHAR Ohorn
ENCODING 416
SWIDTH 810 0
DWIDTH 21 0
BBX 21 19 1 0
BITMAP
03F878
0E0E78
1C0778
3803F8
7803F8
7001F8
F001F0
F001E0
F001E0
F001E0
F001E0
F001E0
F001E0
7001C0
7803C0
380380
1C0700
0E0E00
03F800
ENDCHAR
STARTCHAR ohorn
ENCODING 417
SWIDTH 617 0
DWIDTH 16 0
BBX 17 14 1 0
BITMAP
0FC780
3CF780
787F80
703F80
F03F80
F03F80
F03F00
F03E00
F03C00
F03C00
703800
787800
3CF000
0FC000
ENDCHAR
STARTCHAR uni01A7
ENCODING 423
SWIDTH 556 0
DWIDTH 14 0
BBX 13 19 1 0
BITMAP
3F80
70E0
6070
6078
0078
0078
01F8
07F0
0FE0
3FC0
7F00
FC00
F800
F000
F000
F018
7018
3838
0FF0
ENDCHAR
STARTCHAR uni01A8
ENCODING 424
SWIDTH 525 0
DWIDTH 14 0
BBX 11 14 2 0
BITMAP
3F00
73C0
61E0
61E0
03E0
0FE0
3FC0
7F80
FE00
F800
F060
F060
78E0
1FC0
ENDCHAR
STARTCHAR uni01AE
ENCODING 430
SWIDTH 714 0
DWIDTH 19 0
BBX 18 24 0 -5
BITMAP
FFFFC0
E1E0C0
C1E0C0
C1E0C0
01E000
01E000
01E000
01E000
01E000
01E000
01E000
01E000
01E000
01E000
01E000
01E000
01E000
01E000
01E000
01E000
01E300
01E300
00E300
007F00
ENDCHAR
STARTCHAR Uhorn
ENCODING 431
SWIDTH 747 0
DWIDTH 19 0
BBX 21 19 0 0
BITMAP
FF07F8
3C01F8
3C01F8
3C01F8
3C01B8
3C01B8
3C01B0
3C01E0
3C0180
3C0180
3C0180
3C0180
3C0180
3C0180
3C0180
1C0300
1E0300
0F0600
03F800
ENDCHAR
STARTCHAR uhorn
ENCODING 432
SWIDTH 654 0
DWIDTH 17 0
BBX 19 14 0 0
BITMAP
FC7FE0
3C1FE0
3C1FE0
3C1FE0
3C1EE0
3C1EE0
3C1EC0
3C1F80
3C1E00
3C1E00
3C7E00
3FDE00
1F9F00
0F1F80
ENDCHAR
STARTCHAR uni01B5
ENCODING 437
SWIDTH 639 0
DWIDTH 17 0
BBX 14 19 1 0
BITMAP
7FFC
607C
6078
60F8
00F0
01F0
03E0
03C0
1FE0
1FE0
0F80
0F00
1F00
3E00
3C00
7C00
780C
F80C
FFFC
ENDCHAR
STARTCHAR uni01B6
ENCODING 438
SWIDTH 584 0
DWIDTH 15 0
BBX 13 14 1 0
BITMAP
FFF8
E0F8
C1F0
03E0
03E0
07C0
1FE0
1FE0
1F00
3E00
7C00
7C18
F818
FFF8
ENDCHAR
STARTCHAR uni01BB
ENCODING 443
SWIDTH 623 0
DWIDTH 16 0
BBX 13 19 1 0
BITMAP
3F80
E1E0
C0F0
C078
0078
0078
0078
0070
FFF8
FFF8
0300
0400
0800
1000
3000
7FF8
7FF8
FFF8
FFF8
ENDCHAR
STARTCHAR uni01BC
ENCODING 444
SWIDTH 623 0
DWIDTH 16 0
BBX 11 19 3 0
BITMAP
FFE0
FFE0
FFE0
8000
8000
8000
8000
8000
FE00
0F80
03C0
03E0
01E0
01E0
01E0
C1E0
C3C0
E380
FE00
ENDCHAR
STARTCHAR uni01C0
ENCODING 448
SWIDTH 259 0
DWIDTH 7 0
BBX 2 24 2 -4
BITMAP
C0
C0
C0
C0
C0
C0
C0
C0
C0
C0
C0
C0
C0
C0
C0
C0
C0
C0
C0
C0
C0
C0
C0
C0
ENDCHAR
STARTCHAR uni01C2
ENCODING 450
SWIDTH 623 0
DWIDTH 16 0
BBX 15 24 1 -4
BITMAP
0180
0180
0180
0180
0180
0180
0180
0180
0180
FFFE
FFFE
0180
0180
0180
FFFE
FFFE
0180
0180
0180
0180
0180
0180
0180
0180
ENDCHAR
STARTCHAR uni01C3
ENCODING 451
SWIDTH 265 0
DWIDTH 7 0
BBX 4 19 1 0
BITMAP
F0
F0
F0
F0
F0
F0
E0
E0
E0
60
60
40
40
40
00
F0
F0
F0
F0
ENDCHAR
STARTCHAR uni01CD
ENCODING 461
SWIDTH 795 0
DWIDTH 21 0
BBX 21 24 0 0
BITMAP
030600
01DC00
00F800
007000
000000
003000
007000
007000
007800
00F800
00FC00
013C00
013E00
021E00
021F00
040F00
040F80
0FFF80
0807C0
1803C0
1003C0
3001E0
7001E0
F807F8
ENDCHAR
STARTCHAR uni01CE
ENCODING 462
SWIDTH 556 0
DWIDTH 14 0
BBX 14 19 0 0
BITMAP
3060
1DC0
0F80
0700
0000
1F80
71E0
60F0
60F0
00F0
00F0
1FF0
78F0
F0F0
F0F0
F0F0
F8F0
7F70
3E3C
ENDCHAR
STARTCHAR uni01CF
ENCODING 463
SWIDTH 349 0
DWIDTH 9 0
BBX 9 24 1 0
BITMAP
C180
7700
3E00
1C00
0000
FF00
3C00
3C00
3C00
3C00
3C00
3C00
3C00
3C00
3C00
3C00
3C00
3C00
3C00
3C00
3C00
3C00
3C00
FF00
ENDCHAR
STARTCHAR uni01D0
ENCODING 464
SWIDTH 325 0
DWIDTH 8 0
BBX 9 19 -1 0
BITMAP
C180
7700
3E00
1C00
0000
7E00
1E00
1E00
1E00
1E00
1E00
1E00
1E00
1E00
1E00
1E00
1E00
1E00
7F80
ENDCHAR
STARTCHAR uni01D1
ENCODING 465
SWIDTH 810 0
DWIDTH 21 0
BBX 19 24 1 0
BITMAP
060C00
03B800
01F000
00E000
000000
03F800
0E0E00
1C0700
380380
7803C0
7001C0
F001E0
F001E0
F001E0
F001E0
F001E0
F001E0
F001E0
7001C0
7803C0
380380
1C0700
0E0E00
03F800
ENDCHAR
STARTCHAR uni01D2
ENCODING 466
SWIDTH 617 0
DWIDTH 16 0
BBX 14 19 1 0
BITMAP
1830
0EE0
07C0
0380
0000
0FC0
3CF0
7878
7038
F03C
F03C
F03C
F03C
F03C
F03C
7038
7878
3CF0
0FC0
ENDCHAR
STARTCHAR uni01D3
ENCODING 467
SWIDTH 747 0
DWIDTH 19 0
BBX 19 24 0 0
BITMAP
0C1800
077000
03E000
01C000
000000
FF07E0
3C0180
3C0180
3C0180
3C0180
3C0180
3C0180
3C0180
3C0180
3C0180
3C0180
3C0180
3C0180
3C0180
3C0180
1C0300
1E0300
0F0600
03F800
ENDCHAR
STARTCHAR uni01D4
ENCODING 468
SWIDTH 654 0
DWIDTH 17 0
BBX 17 19 0 0
BITMAP
0C1800
077000
03E000
01C000
000000
FC7E00
3C1E00
3C1E00
3C1E00
3C1E00
3C1E00
3C1E00
3C1E00
3C1E00
3C1E00
3C7E00
3FDE00
1F9F00
0F1F80
ENDCHAR
STARTCHAR uni01D5
ENCODING 469
SWIDTH 747 0
DWIDTH 19 0
BBX 19 26 0 0
BITMAP
07F800
07F800
000000
073800
073800
073800
000000
FF07E0
3C0180
3C0180
3C0180
3C0180
3C0180
3C0180
3C0180
3C0180
3C0180
3C0180
3C0180
3C0180
3C0180
3C0180
1C0300
1E0300
0F0600
03F800
ENDCHAR
STARTCHAR uni01D6
ENCODING 470
SWIDTH 654 0
DWIDTH 17 0
BBX 17 21 0 0
BITMAP
0FF000
0FF000
000000
073800
073800
073800
000000
FC7E00
3C1E00
3C1E00
3C1E00
3C1E00
3C1E00
3C1E00
3C1E00
3C1E00
3C1E00
3C7E00
3FDE00
1F9F00
0F1F80
ENDCHAR
STARTCHAR uni01D7
ENCODING 471
SWIDTH 747 0
DWIDTH 19 0
BBX 19 28 0 0
BITMAP
007800
006000
00C000
018000
000000
073800
073800
073800
000000
FF07E0
3C0180
3C0180
3C0180
3C0180
3C0180
3C0180
3C0180
3C0180
3C0180
3C0180
3C0180
3C0180
3C0180
3C0180
1C0300
1E0300
0F0600
03F800
ENDCHAR
STARTCHAR uni01D8
ENCODING 472
SWIDTH 654 0
DWIDTH 17 0
BBX 17 23 0 0
BITMAP
00F000
00C000
018000
030000
000000
073800
073800
073800
000000
FC7E00
3C1E00
3C1E00
3C1E00
3C1E00
3C1E00
3C1E00
3C1E00
3C1E00
3C1E00
3C7E00
3FDE00
1F9F00
0F1F80
ENDCHAR
STARTCHAR uni01D9
ENCODING 473
SWIDTH 747 0
DWIDTH 19 0
BBX 19 28 0 0
BITMAP
060C00
03B800
01F000
00E000
000000
073800
073800
073800
000000
FF07E0
3C0180
3C0180
3C0180
3C0180
3C0180
3C0180
3C0180
3C0180
3C0180
3C0180
3C0180
3C0180
3C0180
3C0180
1C0300
1E0300
0F0600
03F800
ENDCHAR
STARTCHAR uni01DA
ENCODING 474
SWIDTH 654 0
DWIDTH 17 0
BBX 17 23 0 0
BITMAP
0C1800
077000
03E000
01C000
000000
073800
073800
073800
000000
FC7E00
3C1E00
3C1E00
3C1E00
3C1E00
3C1E00
3C1E00
3C1E00
3C1E00
3C1E00
3C7E00
3FDE00
1F9F00
0F1F80
ENDCHAR
STARTCHAR uni01DB
ENCODING 475
SWIDTH 747 0
DWIDTH 19 0
BBX 19 28 0 0
BITMAP
078000
018000
00C000
006000
000000
073800
073800
073800
000000
FF07E0
3C0180
3C0180
3C0180
3C0180
3C0180
3C0180
3C0180
3C0180
3C0180
3C0180
3C0180
3C0180
3C0180
3C0180
1C0300
1E0300
0F0600
03F800
ENDCHAR
STARTCHAR uni01DC
ENCODING 476
SWIDTH 654 0
DWIDTH 17 0
BBX 17 23 0 0
BITMAP
0F0000
030000
018000
00C000
000000
073800
073800
073800
000000
FC7E00
3C1E00
3C1E00
3C1E00
3C1E00
3C1E00
3C1E00
3C1E00
3C1E00
3C1E00
3C7E00
3FDE00
1F9F00
0F1F80
ENDCHAR
STARTCHAR uni01DD
ENCODING 477
SWIDTH 568 0
DWIDTH 15 0
BBX 13 14 1 0
BITMAP
7F00
FFC0
81E0
00F0
00F8
0078
0078
FFF8
F078
F078
7070
70F0
38E0
1F80
ENDCHAR
STARTCHAR uni01DE
ENCODING 478
SWIDTH 795 0
DWIDTH 21 0
BBX 21 26 0 0
BITMAP
01FE00
01FE00
000000
01CE00
01CE00
01CE00
000000
003000
007000
007000
007800
00F800
00FC00
013C00
013E00
021E00
021F00
040F00
040F80
0FFF80
0807C0
1803C0
1003C0
3001E0
7001E0
F807F8
ENDCHAR
STARTCHAR uni01DF
ENCODING 479
SWIDTH 556 0
DWIDTH 14 0
BBX 14 21 0 0
BITMAP
1FE0
1FE0
0000
1CE0
1CE0
1CE0
0000
1F80
71E0
60F0
60F0
00F0
00F0
1FF0
78F0
F0F0
F0F0
F0F0
F8F0
7F70
3E3C
ENDCHAR
STARTCHAR uni01E0
ENCODING 480
SWIDTH 795 0
DWIDTH 21 0
BBX 21 27 0 0
BITMAP
01FE00
01FE00
000000
007000
007000
007000
007000
000000
003000
007000
007000
007800
00F800
00FC00
013C00
013E00
021E00
021F00
040F00
040F80
0FFF80
0807C0
1803C0
1003C0
3001E0
7001E0
F807F8
ENDCHAR
STARTCHAR uni01E1
ENCODING 481
SWIDTH 556 0
DWIDTH 14 0
BBX 14 22 0 0
BITMAP
1FE0
1FE0
0000
0700
0700
0700
0700
0000
1F80
71E0
60F0
60F0
00F0
00F0
1FF0
78F0
F0F0
F0F0
F0F0
F8F0
7F70
3E3C
ENDCHAR
STARTCHAR uni01E2
ENCODING 482
SWIDTH 959 0
DWIDTH 25 0
BBX 24 22 0 0
BITMAP
003FC0
003FC0
000000
001FFE
001F06
002F06
002F00
004F00
00CF00
008F00
010F0C
010FFC
020F0C
060F0C
040F00
0FFF00
080F00
100F00
100F00
200F03
601F83
F83FFF
ENDCHAR
STARTCHAR uni01E3
ENCODING 483
SWIDTH 858 0
DWIDTH 22 0
BBX 20 17 1 0
BITMAP
03FC00
03FC00
000000
3F8F80
71F9C0
60F0E0
60F0E0
00F0F0
00F0F0
1FFFF0
78F000
F0F000
F0F000
F0F800
F8FC10
7F3FF0
3E0FC0
ENDCHAR
STARTCHAR uni01E4
ENCODING 484
SWIDTH 753 0
DWIDTH 20 0
BBX 19 19 1 0
BITMAP
03FE00
0E0700
1C0300
380300
780000
700000
F00000
F00000
F00000
F00000
F00000
F03FC0
F00F00
781FE0
781FE0
380F00
1C0F00
0F0F00
03FE00
ENDCHAR
STARTCHAR uni01E5
ENCODING 485
SWIDTH 599 0
DWIDTH 16 0
BBX 14 19 1 -5
BITMAP
0FFC
38E8
38F0
78F0
78F0
78F0
78E0
38E0
0FC0
1800
3800
7FF0
3FF8
FFFC
FFFC
F078
F070
78E0
3FC0
ENDCHAR
STARTCHAR Gcaron
ENCODING 486
SWIDTH 753 0
DWIDTH 20 0
BBX 18 24 1 0
BITMAP
0C1800
077000
03E000
01C000
000000
03FE00
0E0700
1C0300
380300
780000
700000
F00000
F00000
F00000
F00000
F00000
F03FC0
F00F00
780F00
780F00
380F00
1C0F00
0F0F00
03FE00
ENDCHAR
STARTCHAR gcaron
ENCODING 487
SWIDTH 599 0
DWIDTH 16 0
BBX 14 24 1 -5
BITMAP
1830
0EE0
07C0
0380
0000
0FFC
38E8
38F0
78F0
78F0
78F0
78E0
38E0
0FC0
1800
3800
7FF0
3FF8
1FF8
7078
F078
F070
78E0
3FC0
ENDCHAR
STARTCHAR uni01E8
ENCODING 488
SWIDTH 747 0
DWIDTH 19 0
BBX 19 24 1 0
BITMAP
0C1800
077000
03E000
01C000
000000
FF0FC0
3C0700
3C0400
3C0800
3C1000
3C2000
3C4000
3C8000
3DC000
3FE000
3FE000
3DF000
3CF800
3C7C00
3C3E00
3C3E00
3C1F00
3C0F80
FF3FE0
ENDCHAR
STARTCHAR uni01E9
ENCODING 489
SWIDTH 654 0
DWIDTH 16 0
BBX 17 25 0 0
BITMAP
60C000
3B8000
1F0000
0E0000
000000
FC0000
3C0000
3C0000
3C0000
3C0000
3C0000
3C3F00
3C1C00
3C1000
3C2000
3C4000
3DC000
3FE000
3DE000
3DF000
3CF800
3C7C00
3C7E00
3C3F00
FF1F80
ENDCHAR
STARTCHAR uni01EA
ENCODING 490
SWIDTH 810 0
DWIDTH 21 0
BBX 19 23 1 -4
BITMAP
03F800
0E0E00
1C0700
380380
7803C0
7001C0
F001E0
F001E0
F001E0
F001E0
F001E0
F001E0
F001E0
7001C0
7803C0
380380
1C0700
0E0E00
03F800
00E000
018000
01D000
00F000
ENDCHAR
STARTCHAR uni01EB
ENCODING 491
SWIDTH 617 0
DWIDTH 16 0
BBX 14 18 1 -4
BITMAP
0FC0
3CF0
7878
7038
F03C
F03C
F03C
F03C
F03C
F03C
7038
7878
3CF0
0FC0
0380
0600
0740
03C0
ENDCHAR
STARTCHAR uni01EC
ENCODING 492
SWIDTH 810 0
DWIDTH 21 0
BBX 19 26 1 -4
BITMAP
03FC00
03FC00
000000
03F800
0E0E00
1C0700
380380
7803C0
7001C0
F001E0
F001E0
F001E0
F001E0
F001E0
F001E0
F001E0
7001C0
7803C0
380380
1C0700
0E0E00
03F800
00E000
018000
01D000
00F000
ENDCHAR
STARTCHAR uni01ED
ENCODING 493
SWIDTH 617 0
DWIDTH 16 0
BBX 14 21 1 -4
BITMAP
1FE0
1FE0
0000
0FC0
3CF0
7878
7038
F03C
F03C
F03C
F03C
F03C
F03C
7038
7878
3CF0
0FC0
0380
0600
0740
03C0
ENDCHAR
STARTCHAR uni01F0
ENCODING 496
SWIDTH 355 0
DWIDTH 9 0
BBX 10 24 -1 -5
BITMAP
60C0
3B80
1F00
0E00
0000
1F80
0780
0780
0780
0780
0780
0780
0780
0780
0780
0780
0780
0780
0780
0780
C780
C780
C700
FE00
ENDCHAR
STARTCHAR uni01F4
ENCODING 500
SWIDTH 753 0
DWIDTH 20 0
BBX 18 24 1 0
BITMAP
007800
006000
00C000
018000
000000
03FE00
0E0700
1C0300
380300
780000
700000
F00000
F00000
F00000
F00000
F00000
F03FC0
F00F00
780F00
780F00
380F00
1C0F00
0F0F00
03FE00
ENDCHAR
STARTCHAR uni01F5
ENCODING 501
SWIDTH 599 0
DWIDTH 16 0
BBX 14 24 1 -5
BITMAP
01E0
0180
0300
0600
0000
0FFC
38E8
38F0
78F0
78F0
78F0
78E0
38E0
0FC0
1800
3800
7FF0
3FF8
1FF8
7078
F078
F070
78E0
3FC0
ENDCHAR
STARTCHAR uni01F8
ENCODING 504
SWIDTH 788 0
DWIDTH 20 0
BBX 19 24 1 0
BITMAP
078000
018000
00C000
006000
000000
F807E0
3C0180
3E0180
3F0180
3F0180
3F8180
37C180
33C180
33E180
31F180
30F980
30F980
307D80
303F80
301F80
301F80
300F80
300780
FC0380
ENDCHAR
STARTCHAR uni01F9
ENCODING 505
SWIDTH 654 0
DWIDTH 17 0
BBX 17 19 0 0
BITMAP
0F0000
030000
018000
00C000
000000
FC7800
7CFC00
3DFE00
3F1E00
3C1E00
3C1E00
3C1E00
3C1E00
3C1E00
3C1E00
3C1E00
3C1E00
3C1E00
FF7F80
ENDCHAR
STARTCHAR Aringacute
ENCODING 506
SWIDTH 795 0
DWIDTH 21 0
BBX 21 29 0 0
BITMAP
003C00
003000
006000
00C000
000000
006000
009000
009000
006000
000000
003000
007000
007000
007800
00F800
00FC00
013C00
013E00
021E00
021F00
040F00
040F80
0FFF80
0807C0
1803C0
1003C0
3001E0
7001E0
F807F8
ENDCHAR
STARTCHAR aringacute
ENCODING 507
SWIDTH 556 0
DWIDTH 14 0
BBX 14 24 0 0
BITMAP
01E0
0180
0300
0600
0000
0300
0480
0480
0300
0000
1F80
71E0
60F0
60F0
00F0
00F0
1FF0
78F0
F0F0
F0F0
F0F0
F8F0
7F70
3E3C
ENDCHAR
STARTCHAR AEacute
ENCODING 508
SWIDTH 959 0
DWIDTH 25 0
BBX 24 24 0 0
BITMAP
0003C0
000300
000600
000C00
000000
001FFE
001F06
002F06
002F00
004F00
00CF00
008F00
010F0C
010FFC
020F0C
060F0C
040F00
0FFF00
080F00
100F00
100F00
200F03
601F83
F83FFF
ENDCHAR
STARTCHAR aeacute
ENCODING 509
SWIDTH 858 0
DWIDTH 22 0
BBX 20 19 1 0
BITMAP
003C00
003000
006000
00C000
000000
3F8F80
71F9C0
60F0E0
60F0E0
00F0F0
00F0F0
1FFFF0
78F000
F0F000
F0F000
F0F800
F8FC10
7F3FF0
3E0FC0
ENDCHAR
STARTCHAR Oslashacute
ENCODING 510
SWIDTH 810 0
DWIDTH 21 0
BBX 19 24 1 0
BITMAP
003C00
003000
006000
00C000
000000
03F860
0E0E80
1C0780
380380
7807C0
700DC0
F009E0
F011E0
F021E0
F041E0
F081E0
F101E0
F201E0
7601C0
7C03C0
380380
3C0700
6E0E00
C3F800
ENDCHAR
STARTCHAR oslashacute
ENCODING 511
SWIDTH 617 0
DWIDTH 16 0
BBX 17 19 0 0
BITMAP
007800
006000
00C000
018000
000000
07F180
1E3E00
3C1C00
3C1E00
783F00
786F00
78CF00
798F00
7B0F00
7E0F00
3C1E00
1C1C00
3E3800
C7E000
ENDCHAR
STARTCHAR uni0200
ENCODING 512
SWIDTH 795 0
DWIDTH 21 0
BBX 21 24 0 0
BITMAP
076000
01B000
009800
004C00
000000
003000
007000
007000
007800
00F800
00FC00
013C00
013E00
021E00
021F00
040F00
040F80
0FFF80
0807C0
1803C0
1003C0
3001E0
7001E0
F807F8
ENDCHAR
STARTCHAR uni0201
ENCODING 513
SWIDTH 556 0
DWIDTH 14 0
BBX 14 19 0 0
BITMAP
7600
1B00
0980
04C0
0000
1F80
71E0
60F0
60F0
00F0
00F0
1FF0
78F0
F0F0
F0F0
F0F0
F8F0
7F70
3E3C
ENDCHAR
STARTCHAR uni0202
ENCODING 514
SWIDTH 795 0
DWIDTH 21 0
BBX 21 24 0 0
BITMAP
00F800
01FC00
03FE00
030600
000000
003000
007000
007000
007800
00F800
00FC00
013C00
013E00
021E00
021F00
040F00
040F80
0FFF80
0807C0
1803C0
1003C0
3001E0
7001E0
F807F8
ENDCHAR
STARTCHAR uni0203
ENCODING 515
SWIDTH 556 0
DWIDTH 14 0
BBX 14 19 0 0
BITMAP
0F80
1FC0
3FE0
3060
0000
1F80
71E0
60F0
60F0
00F0
00F0
1FF0
78F0
F0F0
F0F0
F0F0
F8F0
7F70
3E3C
ENDCHAR
STARTCHAR uni0204
ENCODING 516
SWIDTH 601 0
DWIDTH 16 0
BBX 14 24 1 0
BITMAP
7600
1B00
0980
04C0
0000
FFFC
3C0C
3C0C
3C00
3C00
3C00
3C00
3C00
3C10
3FF0
3C10
3C10
3C00
3C00
3C00
3C00
3C0C
3C0C
FFFC
ENDCHAR
STARTCHAR uni0205
ENCODING 517
SWIDTH 568 0
DWIDTH 15 0
BBX 13 19 1 0
BITMAP
7600
1B00
0980
04C0
0000
0FC0
38E0
7870
7070
F078
F078
FFF8
F000
F000
F800
7800
3C08
1FF8
07F0
ENDCHAR
STARTCHAR uni0206
ENCODING 518
SWIDTH 601 0
DWIDTH 16 0
BBX 14 24 1 0
BITMAP
0F80
1FC0
3FE0
3060
0000
FFFC
3C0C
3C0C
3C00
3C00
3C00
3C00
3C00
3C10
3FF0
3C10
3C10
3C00
3C00
3C00
3C00
3C0C
3C0C
FFFC
ENDCHAR
STARTCHAR uni0207
ENCODING 519
SWIDTH 568 0
DWIDTH 15 0
BBX 13 19 1 0
BITMAP
0F80
1FC0
3FE0
3060
0000
0FC0
38E0
7870
7070
F078
F078
FFF8
F000
F000
F800
7800
3C08
1FF8
07F0
ENDCHAR
STARTCHAR uni0208
ENCODING 520
SWIDTH 349 0
DWIDTH 9 0
BBX 10 24 -1 0
BITMAP
EC00
3600
1300
0980
0000
3FC0
0F00
0F00
0F00
0F00
0F00
0F00
0F00
0F00
0F00
0F00
0F00
0F00
0F00
0F00
0F00
0F00
0F00
3FC0
ENDCHAR
STARTCHAR uni0209
ENCODING 521
SWIDTH 325 0
DWIDTH 8 0
BBX 10 19 -2 0
BITMAP
EC00
3600
1300
0980
0000
3F00
0F00
0F00
0F00
0F00
0F00
0F00
0F00
0F00
0F00
0F00
0F00
0F00
3FC0
ENDCHAR
STARTCHAR uni020A
ENCODING 522
SWIDTH 349 0
DWIDTH 9 0
BBX 9 24 1 0
BITMAP
3E00
7F00
FF80
C180
0000
FF00
3C00
3C00
3C00
3C00
3C00
3C00
3C00
3C00
3C00
3C00
3C00
3C00
3C00
3C00
3C00
3C00
3C00
FF00
ENDCHAR
STARTCHAR uni020B
ENCODING 523
SWIDTH 325 0
DWIDTH 8 0
BBX 9 19 -1 0
BITMAP
3E00
7F00
FF80
C180
0000
7E00
1E00
1E00
1E00
1E00
1E00
1E00
1E00
1E00
1E00
1E00
1E00
1E00
7F80
ENDCHAR
STARTCHAR uni020C
ENCODING 524
SWIDTH 810 0
DWIDTH 21 0
BBX 19 24 1 0
BITMAP
0EC000
036000
013000
009800
000000
03F800
0E0E00
1C0700
380380
7803C0
7001C0
F001E0
F001E0
F001E0
F001E0
F001E0
F001E0
F001E0
7001C0
7803C0
380380
1C0700
0E0E00
03F800
ENDCHAR
STARTCHAR uni020D
ENCODING 525
SWIDTH 617 0
DWIDTH 16 0
BBX 14 19 1 0
BITMAP
7600
1B00
0980
04C0
0000
0FC0
3CF0
7878
7038
F03C
F03C
F03C
F03C
F03C
F03C
7038
7878
3CF0
0FC0
ENDCHAR
STARTCHAR uni020E
ENCODING 526
SWIDTH 810 0
DWIDTH 21 0
BBX 19 24 1 0
BITMAP
01F000
03F800
07FC00
060C00
000000
03F800
0E0E00
1C0700
380380
7803C0
7001C0
F001E0
F001E0
F001E0
F001E0
F001E0
F001E0
F001E0
7001C0
7803C0
380380
1C0700
0E0E00
03F800
ENDCHAR
STARTCHAR uni020F
ENCODING 527
SWIDTH 617 0
DWIDTH 16 0
BBX 14 19 1 0
BITMAP
07C0
0FE0
1FF0
1830
0000
0FC0
3CF0
7878
7038
F03C
F03C
F03C
F03C
F03C
F03C
7038
7878
3CF0
0FC0
ENDCHAR
STARTCHAR uni0210
ENCODING 528
SWIDTH 720 0
DWIDTH 19 0
BBX 18 24 1 0
BITMAP
3B0000
0D8000
04C000
026000
000000
FFF000
3C3C00
3C1C00
3C1E00
3C1E00
3C1E00
3C1E00
3C1C00
3C3C00
3C7800
3FF000
3CF000
3CF800
3C7C00
3C3C00
3C3E00
3C1F00
3C1F80
FF0FC0
ENDCHAR
STARTCHAR uni0211
ENCODING 529
SWIDTH 462 0
DWIDTH 12 0
BBX 11 19 0 0
BITMAP
EC00
3600
1300
0980
0000
FCE0
3DE0
3FE0
3E60
3C00
3C00
3C00
3C00
3C00
3C00
3C00
3C00
3C00
FF00
ENDCHAR
STARTCHAR uni0212
ENCODING 530
SWIDTH 720 0
DWIDTH 19 0
BBX 18 24 1 0
BITMAP
03E000
07F000
0FF800
0C1800
000000
FFF000
3C3C00
3C1C00
3C1E00
3C1E00
3C1E00
3C1E00
3C1C00
3C3C00
3C7800
3FF000
3CF000
3CF800
3C7C00
3C3C00
3C3E00
3C1F00
3C1F80
FF0FC0
ENDCHAR
STARTCHAR uni0213
ENCODING 531
SWIDTH 462 0
DWIDTH 12 0
BBX 11 19 0 0
BITMAP
1F00
3F80
7FC0
60C0
0000
FCE0
3DE0
3FE0
3E60
3C00
3C00
3C00
3C00
3C00
3C00
3C00
3C00
3C00
FF00
ENDCHAR
STARTCHAR uni0214
ENCODING 532
SWIDTH 747 0
DWIDTH 19 0
BBX 19 24 0 0
BITMAP
1D8000
06C000
026000
013000
000000
FF07E0
3C0180
3C0180
3C0180
3C0180
3C0180
3C0180
3C0180
3C0180
3C0180
3C0180
3C0180
3C0180
3C0180
3C0180
1C0300
1E0300
0F0600
03F800
ENDCHAR
STARTCHAR uni0215
ENCODING 533
SWIDTH 654 0
DWIDTH 17 0
BBX 17 19 0 0
BITMAP
1D8000
06C000
026000
013000
000000
FC7E00
3C1E00
3C1E00
3C1E00
3C1E00
3C1E00
3C1E00
3C1E00
3C1E00
3C1E00
3C7E00
3FDE00
1F9F00
0F1F80
ENDCHAR
STARTCHAR uni0216
ENCODING 534
SWIDTH 747 0
DWIDTH 19 0
BBX 19 24 0 0
BITMAP
03E000
07F000
0FF800
0C1800
000000
FF07E0
3C0180
3C0180
3C0180
3C0180
3C0180
3C0180
3C0180
3C0180
3C0180
3C0180
3C0180
3C0180
3C0180
3C0180
1C0300
1E0300
0F0600
03F800
ENDCHAR
STARTCHAR uni0217
ENCODING 535
SWIDTH 654 0
DWIDTH 17 0
BBX 17 19 0 0
BITMAP
03E000
07F000
0FF800
0C1800
000000
FC7E00
3C1E00
3C1E00
3C1E00
3C1E00
3C1E00
3C1E00
3C1E00
3C1E00
3C1E00
3C7E00
3FDE00
1F9F00
0F1F80
ENDCHAR
STARTCHAR Scommaaccent
ENCODING 536
SWIDTH 556 0
DWIDTH 14 0
BBX 13 29 1 -10
BITMAP
0FE0
3870
7030
F030
F000
F000
FC00
7F00
3F80
1FE0
07F0
01F8
00F8
0078
0078
C078
C070
E0E0
7F80
0000
0780
0780
0780
0780
0780
0380
0380
0300
0600
ENDCHAR
STARTCHAR scommaaccent
ENCODING 537
SWIDTH 525 0
DWIDTH 14 0
BBX 11 24 2 -10
BITMAP
1F80
79C0
F0C0
F0C0
F800
FE00
7F80
3FC0
0FE0
03E0
C1E0
C1E0
E3C0
7F00
0000
0F00
0F00
0F00
0F00
0F00
0700
0700
0600
0C00
ENDCHAR
STARTCHAR Tcommaaccent
ENCODING 538
SWIDTH 714 0
DWIDTH 19 0
BBX 18 29 0 -10
BITMAP
FFFFC0
E1E0C0
C1E0C0
C1E0C0
01E000
01E000
01E000
01E000
01E000
01E000
01E000
01E000
01E000
01E000
01E000
01E000
01E000
01F000
07F800
000000
01E000
01E000
01E000
01E000
01E000
00E000
00E000
00C000
018000
ENDCHAR
STARTCHAR tcommaaccent
ENCODING 539
SWIDTH 389 0
DWIDTH 10 0
BBX 9 28 1 -10
BITMAP
0C00
3C00
3C00
3C00
FF80
3C00
3C00
3C00
3C00
3C00
3C00
3C00
3C00
3C00
3C00
3C00
1F80
0F80
0000
1E00
1E00
1E00
1E00
1E00
0E00
0E00
0C00
1800
ENDCHAR
STARTCHAR uni021E
ENCODING 542
SWIDTH 798 0
DWIDTH 21 0
BBX 20 24 0 0
BITMAP
030600
01DC00
00F800
007000
000000
FF0FF0
3C03C0
3C03C0
3C03C0
3C03C0
3C03C0
3C03C0
3C03C0
3FFFC0
3C03C0
3C03C0
3C03C0
3C03C0
3C03C0
3C03C0
3C03C0
3C03C0
3E07C0
FF0FF0
ENDCHAR
STARTCHAR uni021F
ENCODING 543
SWIDTH 654 0
DWIDTH 17 0
BBX 17 25 0 0
BITMAP
60C000
3B8000
1F0000
0E0000
000000
FC0000
3C0000
3C0000
3C0000
3C0000
3C0000
3C7800
3CFC00
3DFE00
3F1E00
3C1E00
3C1E00
3C1E00
3C1E00
3C1E00
3C1E00
3C1E00
3C1E00
3C1E00
FF7F80
ENDCHAR
STARTCHAR uni0226
ENCODING 550
SWIDTH 795 0
DWIDTH 21 0
BBX 21 24 0 0
BITMAP
007000
007000
007000
007000
000000
003000
007000
007000
007800
00F800
00FC00
013C00
013E00
021E00
021F00
040F00
040F80
0FFF80
0807C0
1803C0
1003C0
3001E0
7001E0
F807F8
ENDCHAR
STARTCHAR uni0227
ENCODING 551
SWIDTH 556 0
DWIDTH 14 0
BBX 14 19 0 0
BITMAP
0700
0700
0700
0700
0000
1F80
71E0
60F0
60F0
00F0
00F0
1FF0
78F0
F0F0
F0F0
F0F0
F8F0
7F70
3E3C
ENDCHAR
STARTCHAR uni0228
ENCODING 552
SWIDTH 601 0
DWIDTH 16 0
BBX 14 24 1 -5
BITMAP
FFFC
3C0C
3C0C
3C00
3C00
3C00
3C00
3C00
3C10
3FF0
3C10
3C10
3C00
3C00
3C00
3C00
3C0C
3C0C
FFFC
0200
0780
0380
0380
0700
ENDCHAR
STARTCHAR uni0229
ENCODING 553
SWIDTH 568 0
DWIDTH 15 0
BBX 13 19 1 -5
BITMAP
0FC0
38E0
7870
7070
F078
F078
FFF8
F000
F000
F800
7800
3C08
1FF8
07F0
0200
0780
0380
0380
0700
ENDCHAR
STARTCHAR uni022A
ENCODING 554
SWIDTH 810 0
DWIDTH 21 0
BBX 19 26 1 0
BITMAP
07F800
07F800
000000
073800
073800
073800
000000
03F800
0E0E00
1C0700
380380
7803C0
7001C0
F001E0
F001E0
F001E0
F001E0
F001E0
F001E0
F001E0
7001C0
7803C0
380380
1C0700
0E0E00
03F800
ENDCHAR
STARTCHAR uni022B
ENCODING 555
SWIDTH 617 0
DWIDTH 16 0
BBX 14 21 1 0
BITMAP
1FE0
1FE0
0000
1CE0
1CE0
1CE0
0000
0FC0
3CF0
7878
7038
F03C
F03C
F03C
F03C
F03C
F03C
7038
7878
3CF0
0FC0
ENDCHAR
STARTCHAR uni022C
ENCODING 556
SWIDTH 810 0
DWIDTH 21 0
BBX 19 27 1 0
BITMAP
07F800
07F800
000000
038400
07FC00
07F800
043800
000000
03F800
0E0E00
1C0700
380380
7803C0
7001C0
F001E0
F001E0
F001E0
F001E0
F001E0
F001E0
F001E0
7001C0
7803C0
380380
1C0700
0E0E00
03F800
ENDCHAR
STARTCHAR uni022D
ENCODING 557
SWIDTH 617 0
DWIDTH 16 0
BBX 14 22 1 0
BITMAP
1FE0
1FE0
0000
1C20
3FE0
3FC0
21C0
0000
0FC0
3CF0
7878
7038
F03C
F03C
F03C
F03C
F03C
F03C
7038
7878
3CF0
0FC0
ENDCHAR
STARTCHAR uni022E
ENCODING 558
SWIDTH 810 0
DWIDTH 21 0
BBX 19 24 1 0
BITMAP
00E000
00E000
00E000
00E000
000000
03F800
0E0E00
1C0700
380380
7803C0
7001C0
F001E0
F001E0
F001E0
F001E0
F001E0
F001E0
F001E0
7001C0
7803C0
380380
1C0700
0E0E00
03F800
ENDCHAR
STARTCHAR uni022F
ENCODING 559
SWIDTH 617 0
DWIDTH 16 0
BBX 14 19 1 0
BITMAP
0380
0380
0380
0380
0000
0FC0
3CF0
7878
7038
F03C
F03C
F03C
F03C
F03C
F03C
7038
7878
3CF0
0FC0
ENDCHAR
STARTCHAR uni0230
ENCODING 560
SWIDTH 810 0
DWIDTH 21 0
BBX 19 27 1 0
BITMAP
03FC00
03FC00
000000
00E000
00E000
00E000
00E000
000000
03F800
0E0E00
1C0700
380380
7803C0
7001C0
F001E0
F001E0
F001E0
F001E0
F001E0
F001E0
F001E0
7001C0
7803C0
380380
1C0700
0E0E00
03F800
ENDCHAR
STARTCHAR uni0231
ENCODING 561
SWIDTH 617 0
DWIDTH 16 0
BBX 14 22 1 0
BITMAP
1FE0
1FE0
0000
0380
0380
0380
0380
0000
0FC0
3CF0
7878
7038
F03C
F03C
F03C
F03C
F03C
F03C
7038
7878
3CF0
0FC0
ENDCHAR
STARTCHAR uni0232
ENCODING 562
SWIDTH 717 0
DWIDTH 19 0
BBX 18 22 0 0
BITMAP
0FF000
0FF000
000000
FF07C0
7C0380
3E0300
1E0200
1F0400
0F0400
0F8800
07C800
03D000
03F000
01E000
01E000
01E000
01E000
01E000
01E000
01E000
01E000
07F800
ENDCHAR
STARTCHAR uni0233
ENCODING 563
SWIDTH 654 0
DWIDTH 17 0
BBX 17 22 0 -5
BITMAP
0FF000
0FF000
000000
FF0F80
7C0600
3E0600
1E0400
1E0800
0F0800
0F1000
0F9000
07A000
07E000
03C000
03C000
018000
018000
010000
030000
060000
0C0000
1C0000
ENDCHAR
STARTCHAR uni0250
ENCODING 592
SWIDTH 556 0
DWIDTH 14 0
BBX 14 14 0 0
BITMAP
F1F0
3BF8
3C7C
3C3C
3C3C
3C3C
3C78
3FE0
3C00
3C00
3C18
3C18
1E38
07E0
ENDCHAR
STARTCHAR uni0254
ENCODING 596
SWIDTH 541 0
DWIDTH 14 0
BBX 12 14 1 0
BITMAP
FF00
E1C0
C1E0
C0E0
00F0
00F0
00F0
00F0
00F0
01F0
01E0
83C0
FF80
7F00
ENDCHAR
STARTCHAR uni0258
ENCODING 600
SWIDTH 568 0
DWIDTH 15 0
BBX 13 14 1 0
BITMAP
1F80
38E0
70F0
7070
F078
F078
FFF8
0078
0078
00F8
00F0
81E0
FFC0
7F00
ENDCHAR
STARTCHAR uni0259
ENCODING 601
SWIDTH 568 0
DWIDTH 15 0
BBX 13 14 1 0
BITMAP
7F00
FFC0
81E0
00F0
00F8
0078
0078
FFF8
F078
F078
7070
70F0
38E0
1F80
ENDCHAR
STARTCHAR uni025F
ENCODING 607
SWIDTH 416 0
DWIDTH 11 0
BBX 11 20 0 -6
BITMAP
1FE0
0780
0780
0780
0780
0780
0780
0780
0780
0780
0780
0780
0780
7FE0
0780
0780
C780
C780
C700
7E00
ENDCHAR
STARTCHAR uni0265
ENCODING 613
SWIDTH 654 0
DWIDTH 17 0
BBX 17 20 0 -6
BITMAP
FF7F80
3C1E00
3C1E00
3C1E00
3C1E00
3C1E00
3C1E00
3C1E00
3C1E00
3C1E00
3C7E00
3FDE00
1F9E00
0F1E00
001E00
001E00
001E00
001E00
001E00
001F80
ENDCHAR
STARTCHAR uni0275
ENCODING 629
SWIDTH 617 0
DWIDTH 16 0
BBX 14 14 1 0
BITMAP
0FC0
3CF0
7878
7038
F03C
F03C
FFFC
FFFC
F03C
F03C
7038
7878
3CF0
0FC0
ENDCHAR
STARTCHAR uni0279
ENCODING 633
SWIDTH 462 0
DWIDTH 12 0
BBX 11 14 0 0
BITMAP
1FE0
0780
0780
0780
0780
0780
0780
0780
0780
0780
CF80
FF80
F780
E7E0
ENDCHAR
STARTCHAR uni0287
ENCODING 647
SWIDTH 389 0
DWIDTH 10 0
BBX 9 18 1 0
BITMAP
F800
FC00
1E00
1E00
1E00
1E00
1E00
1E00
1E00
1E00
1E00
1E00
1E00
FF80
1E00
1E00
1E00
1800
ENDCHAR
STARTCHAR uni0288
ENCODING 648
SWIDTH 389 0
DWIDTH 10 0
BBX 11 23 1 -5
BITMAP
0C00
3C00
3C00
3C00
FF80
3C00
3C00
3C00
3C00
3C00
3C00
3C00
3C00
3C00
3C00
3C00
3C00
3C00
3C00
3C60
3C60
1C60
0FE0
ENDCHAR
STARTCHAR uni0289
ENCODING 649
SWIDTH 654 0
DWIDTH 17 0
BBX 17 14 0 0
BITMAP
FC7E00
3C1E00
3C1E00
3C1E00
3C1E00
3C1E00
FFFF80
FFFF80
3C1E00
3C1E00
3C7E00
3FDE00
1F9F00
0F1F80
ENDCHAR
STARTCHAR uni028C
ENCODING 652
SWIDTH 657 0
DWIDTH 17 0
BBX 17 14 0 0
BITMAP
00C000
01C000
01C000
03E000
03E000
02F000
04F000
04F800
087800
087C00
103C00
103E00
301F00
F87F80
ENDCHAR
STARTCHAR uni028D
ENCODING 653
SWIDTH 880 0
DWIDTH 23 0
BBX 23 14 0 0
BITMAP
030080
0381C0
0381C0
0783C0
07C3E0
07C7E0
0BE5E0
09E4F0
19E8F0
10F8F0
10F078
30F078
20707C
F860FE
ENDCHAR
STARTCHAR uni028E
ENCODING 654
SWIDTH 654 0
DWIDTH 17 0
BBX 17 19 0 0
BITMAP
001C00
001800
003000
006000
004000
00C000
00C000
01E000
01E000
03F000
02F000
04F800
047800
087800
083C00
103C00
303E00
301F00
F87F80
ENDCHAR
STARTCHAR uni029E
ENCODING 670
SWIDTH 654 0
DWIDTH 16 0
BBX 17 20 0 -6
BITMAP
FC7F80
7E1E00
3F1E00
1F1E00
0F9E00
07DE00
03DE00
03FE00
01DE00
011E00
021E00
041E00
1C1E00
7E1E00
001E00
001E00
001E00
001E00
001E00
001F80
ENDCHAR
STARTCHAR uni02BB
ENCODING 699
SWIDTH 265 0
DWIDTH 7 0
BBX 4 8 1 12
BITMAP
30
60
E0
E0
F0
F0
F0
F0
ENDCHAR
STARTCHAR afii57929
ENCODING 700
SWIDTH 265 0
DWIDTH 7 0
BBX 4 8 1 12
BITMAP
F0
F0
F0
F0
70
70
60
C0
ENDCHAR
STARTCHAR afii64937
ENCODING 701
SWIDTH 265 0
DWIDTH 7 0
BBX 4 8 1 12
BITMAP
F0
F0
F0
F0
E0
E0
60
30
ENDCHAR
STARTCHAR circumflex
ENCODING 710
SWIDTH 617 0
DWIDTH 16 0
BBX 9 4 4 16
BITMAP
1C00
3E00
7700
C180
ENDCHAR
STARTCHAR caron
ENCODING 711
SWIDTH 617 0
DWIDTH 16 0
BBX 9 4 4 16
BITMAP
C180
7700
3E00
1C00
ENDCHAR
STARTCHAR uni02C8
ENCODING 712
SWIDTH 253 0
DWIDTH 7 0
BBX 3 8 2 12
BITMAP
E0
E0
E0
E0
40
40
40
40
ENDCHAR
STARTCHAR macron
ENCODING 713
SWIDTH 617 0
DWIDTH 16 0
BBX 8 2 4 17
BITMAP
FF
FF
ENDCHAR
STARTCHAR uni02CA
ENCODING 714
SWIDTH 617 0
DWIDTH 16 0
BBX 6 4 6 16
BITMAP
3C
30
60
C0
ENDCHAR
STARTCHAR uni02CB
ENCODING 715
SWIDTH 617 0
DWIDTH 16 0
BBX 6 4 4 16
BITMAP
F0
30
18
0C
ENDCHAR
STARTCHAR uni02CD
ENCODING 717
SWIDTH 617 0
DWIDTH 16 0
BBX 8 2 4 -3
BITMAP
FF
FF
ENDCHAR
STARTCHAR uni02CE
ENCODING 718
SWIDTH 617 0
DWIDTH 16 0
BBX 6 4 4 -5
BITMAP
F0
30
18
0C
ENDCHAR
STARTCHAR uni02CF
ENCODING 719
SWIDTH 617 0
DWIDTH 16 0
BBX 6 4 6 -5
BITMAP
3C
30
60
C0
ENDCHAR
STARTCHAR breve
ENCODING 728
SWIDTH 617 0
DWIDTH 16 0
BBX 9 4 4 16
BITMAP
C180
FF80
7F00
3E00
ENDCHAR
STARTCHAR dotaccent
ENCODING 729
SWIDTH 617 0
DWIDTH 16 0
BBX 3 4 7 15
BITMAP
E0
E0
E0
E0
ENDCHAR
STARTCHAR ring
ENCODING 730
SWIDTH 617 0
DWIDTH 16 0
BBX 4 4 6 16
BITMAP
60
90
90
60
ENDCHAR
STARTCHAR ogonek
ENCODING 731
SWIDTH 617 0
DWIDTH 16 0
BBX 5 4 6 -4
BITMAP
70
C0
E8
78
ENDCHAR
STARTCHAR tilde
ENCODING 732
SWIDTH 617 0
DWIDTH 16 0
BBX 9 4 4 15
BITMAP
7080
FF80
FF00
8700
ENDCHAR
STARTCHAR hungarumlaut
ENCODING 733
SWIDTH 617 0
DWIDTH 16 0
BBX 9 4 5 16
BITMAP
1B80
3600
6400
C800
ENDCHAR
STARTCHAR uni02EE
ENCODING 750
SWIDTH 470 0
DWIDTH 12 0
BBX 9 8 2 12
BITMAP
F780
F780
F780
F780
7380
7380
6300
8400
ENDCHAR
STARTCHAR uni037E
ENCODING 894
SWIDTH 265 0
DWIDTH 7 0
BBX 4 18 1 -4
BITMAP
F0
F0
F0
F0
00
00
00
00
00
00
F0
F0
F0
F0
70
70
60
C0
ENDCHAR
STARTCHAR tonos
ENCODING 900
SWIDTH 617 0
DWIDTH 16 0
BBX 6 4 6 16
BITMAP
3C
30
60
C0
ENDCHAR
STARTCHAR dieresistonos
ENCODING 901
SWIDTH 617 0
DWIDTH 16 0
BBX 8 8 4 16
BITMAP
0F
0C
18
30
00
E7
E7
E7
ENDCHAR
STARTCHAR anoteleia
ENCODING 903
SWIDTH 623 0
DWIDTH 16 0
BBX 3 4 7 6
BITMAP
E0
E0
E0
E0
ENDCHAR
STARTCHAR mu
ENCODING 956
SWIDTH 705 0
DWIDTH 18 0
BBX 17 18 1 -4
BITMAP
FC7E00
3C1E00
3C1E00
3C1E00
3C1E00
3C1E00
3C1E00
3C1E00
3C1E00
3C1E00
3C3E00
3FFE00
3FDE00
3F9F80
3C0000
3C0000
3C0000
3C0000
ENDCHAR
STARTCHAR uni1E00
ENCODING 7680
SWIDTH 795 0
DWIDTH 21 0
BBX 21 24 0 -5
BITMAP
003000
007000
007000
007800
00F800
00FC00
013C00
013E00
021E00
021F00
040F00
040F80
0FFF80
0807C0
1803C0
1003C0
3001E0
7001E0
F807F8
000000
003000
004800
004800
003000
ENDCHAR
STARTCHAR uni1E01
ENCODING 7681
SWIDTH 556 0
DWIDTH 14 0
BBX 14 19 0 -5
BITMAP
1F80
71E0
60F0
60F0
00F0
00F0
1FF0
78F0
F0F0
F0F0
F0F0
F8F0
7F70
3E3C
0000
0300
0480
0480
0300
ENDCHAR
STARTCHAR uni1E02
ENCODING 7682
SWIDTH 639 0
DWIDTH 17 0
BBX 15 24 1 0
BITMAP
0380
0380
0380
0380
0000
FFE0
3C78
3C3C
3C3C
3C3C
3C3C
3C38
3C78
3CE0
3FE0
3C78
3C3C
3C1E
3C1E
3C1E
3C1E
3C3C
3C7C
FFF0
ENDCHAR
STARTCHAR uni1E03
ENCODING 7683
SWIDTH 640 0
DWIDTH 17 0
BBX 16 25 0 0
BITMAP
0E00
0E00
0E00
0E00
0000
FC00
3C00
3C00
3C00
3C00
3C00
3C78
3DFC
3DFE
3E1E
3C0F
3C0F
3C0F
3C0F
3C0F
3C0F
3C1E
3E3E
3FFC
39F0
ENDCHAR
STARTCHAR uni1E04
ENCODING 7684
SWIDTH 639 0
DWIDTH 17 0
BBX 15 24 1 -5
BITMAP
FFE0
3C78
3C3C
3C3C
3C3C
3C3C
3C38
3C78
3CE0
3FE0
3C78
3C3C
3C1E
3C1E
3C1E
3C1E
3C3C
3C7C
FFF0
0000
0380
0380
0380
0380
ENDCHAR
STARTCHAR uni1E05
ENCODING 7685
SWIDTH 640 0
DWIDTH 17 0
BBX 16 25 0 -5
BITMAP
FC00
3C00
3C00
3C00
3C00
3C00
3C78
3DFC
3DFE
3E1E
3C0F
3C0F
3C0F
3C0F
3C0F
3C0F
3C1E
3E3E
3FFC
39F0
0000
01C0
01C0
01C0
01C0
ENDCHAR
STARTCHAR uni1E06
ENCODING 7686
SWIDTH 639 0
DWIDTH 17 0
BBX 15 22 1 -3
BITMAP
FFE0
3C78
3C3C
3C3C
3C3C
3C3C
3C38
3C78
3CE0
3FE0
3C78
3C3C
3C1E
3C1E
3C1E
3C1E
3C3C
3C7C
FFF0
0000
0FF0
0FF0
ENDCHAR
STARTCHAR uni1E07
ENCODING 7687
SWIDTH 640 0
DWIDTH 17 0
BBX 16 23 0 -3
BITMAP
FC00
3C00
3C00
3C00
3C00
3C00
3C78
3DFC
3DFE
3E1E
3C0F
3C0F
3C0F
3C0F
3C0F
3C0F
3C1E
3E3E
3FFC
39F0
0000
0FF0
0FF0
ENDCHAR
STARTCHAR uni1E08
ENCODING 7688
SWIDTH 711 0
DWIDTH 18 0
BBX 16 29 1 -5
BITMAP
00F0
00C0
0180
0300
0000
03FE
0E07
1C03
3803
7800
7000
F000
F000
F000
F000
F000
F000
F000
7800
7800
3C00
1F03
0FFF
03FC
0100
03C0
01C0
01C0
0380
ENDCHAR
STARTCHAR uni1E09
ENCODING 7689
SWIDTH 541 0
DWIDTH 14 0
BBX 12 24 1 -5
BITMAP
03C0
0300
0600
0C00
0000
0FF0
3870
7830
7030
F000
F000
F000
F000
F000
F800
7800
3C10
1FF0
0FE0
0200
0780
0380
0380
0700
ENDCHAR
STARTCHAR uni1E0A
ENCODING 7690
SWIDTH 794 0
DWIDTH 21 0
BBX 19 24 1 0
BITMAP
01C000
01C000
01C000
01C000
000000
FFF800
3C1E00
3C0780
3C0380
3C03C0
3C01C0
3C01E0
3C01E0
3C01E0
3C01E0
3C01E0
3C01E0
3C01E0
3C01C0
3C03C0
3C0380
3C0700
3E0E00
FFF800
ENDCHAR
STARTCHAR uni1E0B
ENCODING 7691
SWIDTH 652 0
DWIDTH 17 0
BBX 16 25 1 0
BITMAP
0070
0070
0070
0070
0000
00FC
003C
003C
003C
003C
003C
1F3C
3FFC
787C
783C
F03C
F03C
F03C
F03C
F03C
F03C
787C
7FBC
3FBE
1E3F
ENDCHAR
STARTCHAR uni1E0C
ENCODING 7692
SWIDTH 794 0
DWIDTH 21 0
BBX 19 24 1 -5
BITMAP
FFF800
3C1E00
3C0780
3C0380
3C03C0
3C01C0
3C01E0
3C01E0
3C01E0
3C01E0
3C01E0
3C01E0
3C01E0
3C01C0
3C03C0
3C0380
3C0700
3E0E00
FFF800
000000
01C000
01C000
01C000
01C000
ENDCHAR
STARTCHAR uni1E0D
ENCODING 7693
SWIDTH 652 0
DWIDTH 17 0
BBX 16 25 1 -5
BITMAP
00FC
003C
003C
003C
003C
003C
1F3C
3FFC
787C
783C
F03C
F03C
F03C
F03C
F03C
F03C
787C
7FBC
3FBE
1E3F
0000
0380
0380
0380
0380
ENDCHAR
STARTCHAR uni1E0E
ENCODING 7694
SWIDTH 794 0
DWIDTH 21 0
BBX 19 22 1 -3
BITMAP
FFF800
3C1E00
3C0780
3C0380
3C03C0
3C01C0
3C01E0
3C01E0
3C01E0
3C01E0
3C01E0
3C01E0
3C01E0
3C01C0
3C03C0
3C0380
3C0700
3E0E00
FFF800
000000
07F800
07F800
ENDCHAR
STARTCHAR uni1E0F
ENCODING 7695
SWIDTH 652 0
DWIDTH 17 0
BBX 16 23 1 -3
BITMAP
00FC
003C
003C
003C
003C
003C
1F3C
3FFC
787C
783C
F03C
F03C
F03C
F03C
F03C
F03C
787C
7FBC
3FBE
1E3F
0000
0FF0
0FF0
ENDCHAR
STARTCHAR uni1E10
ENCODING 7696
SWIDTH 794 0
DWIDTH 21 0
BBX 19 24 1 -5
BITMAP
FFF800
3C1E00
3C0780
3C0380
3C03C0
3C01C0
3C01E0
3C01E0
3C01E0
3C01E0
3C01E0
3C01E0
3C01E0
3C01C0
3C03C0
3C0380
3C0700
3E0E00
FFF800
008000
01E000
00E000
00E000
01C000
ENDCHAR
STARTCHAR uni1E11
ENCODING 7697
SWIDTH 652 0
DWIDTH 17 0
BBX 16 25 1 -5
BITMAP
00FC
003C
003C
003C
003C
003C
1F3C
3FFC
787C
783C
F03C
F03C
F03C
F03C
F03C
F03C
787C
7FBC
3FBE
1FBF
0100
03C0
01C0
01C0
0380
ENDCHAR
STARTCHAR uni1E12
ENCODING 7698
SWIDTH 794 0
DWIDTH 21 0
BBX 19 24 1 -5
BITMAP
FFF800
3C1E00
3C0780
3C0380
3C03C0
3C01C0
3C01E0
3C01E0
3C01E0
3C01E0
3C01E0
3C01E0
3C01E0
3C01C0
3C03C0
3C0380
3C0700
3E0E00
FFF800
000000
01C000
03E000
077000
0C1800
ENDCHAR
STARTCHAR uni1E13
ENCODING 7699
SWIDTH 652 0
DWIDTH 17 0
BBX 16 25 1 -5
BITMAP
00FC
003C
003C
003C
003C
003C
1F3C
3FFC
787C
783C
F03C
F03C
F03C
F03C
F03C
F03C
787C
7FBC
3FBE
1E3F
0000
0380
07C0
0EE0
1830
ENDCHAR
STARTCHAR uni1E14
ENCODING 7700
SWIDTH 601 0
DWIDTH 16 0
BBX 14 27 1 0
BITMAP
1E00
0600
0300
0180
0000
1FE0
1FE0
0000
FFFC
3C0C
3C0C
3C00
3C00
3C00
3C00
3C00
3C10
3FF0
3C10
3C10
3C00
3C00
3C00
3C00
3C0C
3C0C
FFFC
ENDCHAR
STARTCHAR uni1E15
ENCODING 7701
SWIDTH 568 0
DWIDTH 15 0
BBX 13 22 1 0
BITMAP
1E00
0600
0300
0180
0000
1FE0
1FE0
0000
0FC0
38E0
7870
7070
F078
F078
FFF8
F000
F000
F800
7800
3C08
1FF8
07F0
ENDCHAR
STARTCHAR uni1E16
ENCODING 7702
SWIDTH 601 0
DWIDTH 16 0
BBX 14 27 1 0
BITMAP
01E0
0180
0300
0600
0000
1FE0
1FE0
0000
FFFC
3C0C
3C0C
3C00
3C00
3C00
3C00
3C00
3C10
3FF0
3C10
3C10
3C00
3C00
3C00
3C00
3C0C
3C0C
FFFC
ENDCHAR
STARTCHAR uni1E17
ENCODING 7703
SWIDTH 568 0
DWIDTH 15 0
BBX 13 22 1 0
BITMAP
01E0
0180
0300
0600
0000
1FE0
1FE0
0000
0FC0
38E0
7870
7070
F078
F078
FFF8
F000
F000
F800
7800
3C08
1FF8
07F0
ENDCHAR
STARTCHAR uni1E18
ENCODING 7704
SWIDTH 601 0
DWIDTH 16 0
BBX 14 24 1 -5
BITMAP
FFFC
3C0C
3C0C
3C00
3C00
3C00
3C00
3C00
3C10
3FF0
3C10
3C10
3C00
3C00
3C00
3C00
3C0C
3C0C
FFFC
0000
0700
0F80
1DC0
3060
ENDCHAR
STARTCHAR uni1E19
ENCODING 7705
SWIDTH 568 0
DWIDTH 15 0
BBX 13 19 1 -5
BITMAP
0FC0
38E0
7870
7070
F078
F078
FFF8
F000
F000
F800
7800
3C08
1FF8
07F0
0000
0700
0F80
1DC0
3060
ENDCHAR
STARTCHAR uni1E1A
ENCODING 7706
SWIDTH 601 0
DWIDTH 16 0
BBX 14 24 1 -5
BITMAP
FFFC
3C0C
3C0C
3C00
3C00
3C00
3C00
3C00
3C10
3FF0
3C10
3C10
3C00
3C00
3C00
3C00
3C0C
3C0C
FFFC
0000
1C20
3FE0
3FC0
21C0
ENDCHAR
STARTCHAR uni1E1B
ENCODING 7707
SWIDTH 568 0
DWIDTH 15 0
BBX 13 19 1 -5
BITMAP
0FC0
38E0
7870
7070
F078
F078
FFF8
F000
F000
F800
7800
3C08
1FF8
07F0
0000
1C20
3FE0
3FC0
21C0
ENDCHAR
STARTCHAR uni1E1C
ENCODING 7708
SWIDTH 601 0
DWIDTH 16 0
BBX 14 29 1 -5
BITMAP
3060
3FE0
1FC0
0F80
0000
FFFC
3C0C
3C0C
3C00
3C00
3C00
3C00
3C00
3C10
3FF0
3C10
3C10
3C00
3C00
3C00
3C00
3C0C
3C0C
FFFC
0200
0780
0380
0380
0700
ENDCHAR
STARTCHAR uni1E1D
ENCODING 7709
SWIDTH 568 0
DWIDTH 15 0
BBX 13 24 1 -5
BITMAP
3060
3FE0
1FC0
0F80
0000
0FC0
38E0
7870
7070
F078
F078
FFF8
F000
F000
F800
7800
3C08
1FF8
07F0
0200
0780
0380
0380
0700
ENDCHAR
STARTCHAR uni1E1E
ENCODING 7710
SWIDTH 584 0
DWIDTH 15 0
BBX 14 24 0 0
BITMAP
0700
0700
0700
0700
0000
FFFC
3C0C
3C0C
3C00
3C00
3C00
3C00
3C00
3C10
3FF0
3C10
3C00
3C00
3C00
3C00
3C00
3C00
3E00
FF80
ENDCHAR
STARTCHAR uni1E1F
ENCODING 7711
SWIDTH 416 0
DWIDTH 11 0
BBX 11 25 0 0
BITMAP
0E00
0E00
0E00
0E00
0000
0FC0
1C60
3C60
3C60
3C00
3C00
FFC0
3C00
3C00
3C00
3C00
3C00
3C00
3C00
3C00
3C00
3C00
3C00
3C00
FF00
ENDCHAR
STARTCHAR uni1E20
ENCODING 7712
SWIDTH 753 0
DWIDTH 20 0
BBX 18 22 1 0
BITMAP
07F800
07F800
000000
03FE00
0E0700
1C0300
380300
780000
700000
F00000
F00000
F00000
F00000
F00000
F03FC0
F00F00
780F00
780F00
380F00
1C0F00
0F0F00
03FE00
ENDCHAR
STARTCHAR uni1E21
ENCODING 7713
SWIDTH 599 0
DWIDTH 16 0
BBX 14 22 1 -5
BITMAP
1FE0
1FE0
0000
0FFC
38E8
38F0
78F0
78F0
78F0
78E0
38E0
0FC0
1800
3800
7FF0
3FF8
1FF8
7078
F078
F070
78E0
3FC0
ENDCHAR
STARTCHAR uni1E22
ENCODING 7714
SWIDTH 798 0
DWIDTH 21 0
BBX 20 24 0 0
BITMAP
007000
007000
007000
007000
000000
FF0FF0
3C03C0
3C03C0
3C03C0
3C03C0
3C03C0
3C03C0
3C03C0
3FFFC0
3C03C0
3C03C0
3C03C0
3C03C0
3C03C0
3C03C0
3C03C0
3C03C0
3E07C0
FF0FF0
ENDCHAR
STARTCHAR uni1E23
ENCODING 7715
SWIDTH 654 0
DWIDTH 17 0
BBX 17 25 0 0
BITMAP
0E0000
0E0000
0E0000
0E0000
000000
FC0000
3C0000
3C0000
3C0000
3C0000
3C0000
3C7800
3CFC00
3DFE00
3F1E00
3C1E00
3C1E00
3C1E00
3C1E00
3C1E00
3C1E00
3C1E00
3C1E00
3C1E00
FF7F80
ENDCHAR
STARTCHAR uni1E24
ENCODING 7716
SWIDTH 798 0
DWIDTH 21 0
BBX 20 24 0 -5
BITMAP
FF0FF0
3C03C0
3C03C0
3C03C0
3C03C0
3C03C0
3C03C0
3C03C0
3FFFC0
3C03C0
3C03C0
3C03C0
3C03C0
3C03C0
3C03C0
3C03C0
3C03C0
3E07C0
FF0FF0
000000
007000
007000
007000
007000
ENDCHAR
STARTCHAR uni1E25
ENCODING 7717
SWIDTH 654 0
DWIDTH 17 0
BBX 17 25 0 -5
BITMAP
FC0000
3C0000
3C0000
3C0000
3C0000
3C0000
3C7800
3CFC00
3DFE00
3F1E00
3C1E00
3C1E00
3C1E00
3C1E00
3C1E00
3C1E00
3C1E00
3C1E00
3C1E00
FF7F80
000000
01C000
01C000
01C000
01C000
ENDCHAR
STARTCHAR uni1E26
ENCODING 7718
SWIDTH 798 0
DWIDTH 21 0
BBX 20 23 0 0
BITMAP
039C00
039C00
039C00
000000
FF0FF0
3C03C0
3C03C0
3C03C0
3C03C0
3C03C0
3C03C0
3C03C0
3FFFC0
3C03C0
3C03C0
3C03C0
3C03C0
3C03C0
3C03C0
3C03C0
3C03C0
3E07C0
FF0FF0
ENDCHAR
STARTCHAR uni1E27
ENCODING 7719
SWIDTH 654 0
DWIDTH 17 0
BBX 17 24 0 0
BITMAP
738000
738000
738000
000000
FC0000
3C0000
3C0000
3C0000
3C0000
3C0000
3C7800
3CFC00
3DFE00
3F1E00
3C1E00
3C1E00
3C1E00
3C1E00
3C1E00
3C1E00
3C1E00
3C1E00
3C1E00
FF7F80
ENDCHAR
STARTCHAR uni1E28
ENCODING 7720
SWIDTH 798 0
DWIDTH 21 0
BBX 20 24 0 -5
BITMAP
FF0FF0
3C03C0
3C03C0
3C03C0
3C03C0
3C03C0
3C03C0
3C03C0
3FFFC0
3C03C0
3C03C0
3C03C0
3C03C0
3C03C0
3C03C0
3C03C0
3C03C0
3E07C0
FF6FF0
004000
00F000
007000
007000
00E000
ENDCHAR
STARTCHAR uni1E29
ENCODING 7721
SWIDTH 654 0
DWIDTH 17 0
BBX 17 25 0 -5
BITMAP
FC0000
3C0000
3C0000
3C0000
3C0000
3C0000
3C7800
3CFC00
3DFE00
3F1E00
3C1E00
3C1E00
3C1E00
3C1E00
3C1E00
3C1E00
3C1E00
3C1E00
3C1E00
FFFF80
008000
01E000
00E000
00E000
01C000
ENDCHAR
STARTCHAR uni1E2A
ENCODING 7722
SWIDTH 798 0
DWIDTH 21 0
BBX 20 24 0 -5
BITMAP
FF0FF0
3C03C0
3C03C0
3C03C0
3C03C0
3C03C0
3C03C0
3C03C0
3FFFC0
3C03C0
3C03C0
3C03C0
3C03C0
3C03C0
3C03C0
3C03C0
3C03C0
3E07C0
FF0FF0
000000
030600
03FE00
01FC00
00F800
ENDCHAR
STARTCHAR uni1E2B
ENCODING 7723
SWIDTH 654 0
DWIDTH 17 0
BBX 17 25 0 -5
BITMAP
FC0000
3C0000
3C0000
3C0000
3C0000
3C0000
3C7800
3CFC00
3DFE00
3F1E00
3C1E00
3C1E00
3C1E00
3C1E00
3C1E00
3C1E00
3C1E00
3C1E00
3C1E00
FF7F80
000000
0C1800
0FF800
07F000
03E000
ENDCHAR
STARTCHAR uni1E2C
ENCODING 7724
SWIDTH 349 0
DWIDTH 9 0
BBX 9 24 1 -5
BITMAP
FF00
3C00
3C00
3C00
3C00
3C00
3C00
3C00
3C00
3C00
3C00
3C00
3C00
3C00
3C00
3C00
3C00
3C00
FF00
0000
7080
FF80
FF00
8700
ENDCHAR
STARTCHAR uni1E2D
ENCODING 7725
SWIDTH 325 0
DWIDTH 8 0
BBX 9 25 0 -5
BITMAP
3C00
3C00
3C00
3C00
0000
0000
FC00
3C00
3C00
3C00
3C00
3C00
3C00
3C00
3C00
3C00
3C00
3C00
3C00
FF00
0000
7080
FF80
FF00
8700
ENDCHAR
STARTCHAR uni1E2E
ENCODING 7726
SWIDTH 349 0
DWIDTH 9 0
BBX 8 28 1 0
BITMAP
0F
0C
18
30
00
E7
E7
E7
00
FF
3C
3C
3C
3C
3C
3C
3C
3C
3C
3C
3C
3C
3C
3C
3C
3C
3C
FF
ENDCHAR
STARTCHAR uni1E2F
ENCODING 7727
SWIDTH 325 0
DWIDTH 8 0
BBX 8 23 0 0
BITMAP
0F
0C
18
30
00
E7
E7
E7
00
FC
3C
3C
3C
3C
3C
3C
3C
3C
3C
3C
3C
3C
FF
ENDCHAR
STARTCHAR uni1E30
ENCODING 7728
SWIDTH 747 0
DWIDTH 19 0
BBX 19 24 1 0
BITMAP
00F000
00C000
018000
030000
000000
FF0FC0
3C0700
3C0400
3C0800
3C1000
3C2000
3C4000
3C8000
3DC000
3FE000
3FE000
3DF000
3CF800
3C7C00
3C3E00
3C3E00
3C1F00
3C0F80
FF3FE0
ENDCHAR
STARTCHAR uni1E31
ENCODING 7729
SWIDTH 654 0
DWIDTH 16 0
BBX 17 25 0 0
BITMAP
078000
060000
0C0000
180000
000000
FC0000
3C0000
3C0000
3C0000
3C0000
3C0000
3C3F00
3C1C00
3C1000
3C2000
3C4000
3DC000
3FE000
3DE000
3DF000
3CF800
3C7C00
3C7E00
3C3F00
FF1F80
ENDCHAR
STARTCHAR uni1E32
ENCODING 7730
SWIDTH 747 0
DWIDTH 19 0
BBX 19 24 1 -5
BITMAP
FF0FC0
3C0700
3C0400
3C0800
3C1000
3C2000
3C4000
3C8000
3DC000
3FE000
3FE000
3DF000
3CF800
3C7C00
3C3E00
3C3E00
3C1F00
3C0F80
FF3FE0
000000
00E000
00E000
00E000
00E000
ENDCHAR
STARTCHAR uni1E33
ENCODING 7731
SWIDTH 654 0
DWIDTH 16 0
BBX 17 25 0 -5
BITMAP
FC0000
3C0000
3C0000
3C0000
3C0000
3C0000
3C3F00
3C1C00
3C1000
3C2000
3C4000
3DC000
3FE000
3DE000
3DF000
3CF800
3C7C00
3C7E00
3C3F00
FF1F80
000000
01C000
01C000
01C000
01C000
ENDCHAR
STARTCHAR uni1E34
ENCODING 7732
SWIDTH 747 0
DWIDTH 19 0
BBX 19 22 1 -3
BITMAP
FF0FC0
3C0700
3C0400
3C0800
3C1000
3C2000
3C4000
3C8000
3DC000
3FE000
3FE000
3DF000
3CF800
3C7C00
3C3E00
3C3E00
3C1F00
3C0F80
FF3FE0
000000
07F800
07F800
ENDCHAR
STARTCHAR uni1E35
ENCODING 7733
SWIDTH 654 0
DWIDTH 16 0
BBX 17 23 0 -3
BITMAP
FC0000
3C0000
3C0000
3C0000
3C0000
3C0000
3C3F00
3C1C00
3C1000
3C2000
3C4000
3DC000
3FE000
3DE000
3DF000
3CF800
3C7C00
3C7E00
3C3F00
FF1F80
000000
0FF000
0FF000
ENDCHAR
STARTCHAR uni1E36
ENCODING 7734
SWIDTH 584 0
DWIDTH 15 0
BBX 14 24 1 -5
BITMAP
FF00
3C00
3C00
3C00
3C00
3C00
3C00
3C00
3C00
3C00
3C00
3C00
3C00
3C00
3C00
3C0C
3C0C
3C0C
FFFC
0000
0700
0700
0700
0700
ENDCHAR
STARTCHAR uni1E37
ENCODING 7735
SWIDTH 325 0
DWIDTH 8 0
BBX 8 25 0 -5
BITMAP
FC
3C
3C
3C
3C
3C
3C
3C
3C
3C
3C
3C
3C
3C
3C
3C
3C
3C
3C
FF
00
1C
1C
1C
1C
ENDCHAR
STARTCHAR uni1E38
ENCODING 7736
SWIDTH 584 0
DWIDTH 15 0
BBX 14 27 1 -5
BITMAP
7F80
7F80
0000
FF00
3C00
3C00
3C00
3C00
3C00
3C00
3C00
3C00
3C00
3C00
3C00
3C00
3C00
3C00
3C0C
3C0C
3C0C
FFFC
0000
0700
0700
0700
0700
ENDCHAR
STARTCHAR uni1E39
ENCODING 7737
SWIDTH 325 0
DWIDTH 8 0
BBX 8 28 0 -5
BITMAP
FF
FF
00
FC
3C
3C
3C
3C
3C
3C
3C
3C
3C
3C
3C
3C
3C
3C
3C
3C
3C
3C
FF
00
1C
1C
1C
1C
ENDCHAR
STARTCHAR uni1E3A
ENCODING 7738
SWIDTH 584 0
DWIDTH 15 0
BBX 14 22 1 -3
BITMAP
FF00
3C00
3C00
3C00
3C00
3C00
3C00
3C00
3C00
3C00
3C00
3C00
3C00
3C00
3C00
3C0C
3C0C
3C0C
FFFC
0000
1FE0
1FE0
ENDCHAR
STARTCHAR uni1E3B
ENCODING 7739
SWIDTH 325 0
DWIDTH 8 0
BBX 8 23 0 -3
BITMAP
FC
3C
3C
3C
3C
3C
3C
3C
3C
3C
3C
3C
3C
3C
3C
3C
3C
3C
3C
FF
00
FF
FF
ENDCHAR
STARTCHAR uni1E3C
ENCODING 7740
SWIDTH 584 0
DWIDTH 15 0
BBX 14 24 1 -5
BITMAP
FF00
3C00
3C00
3C00
3C00
3C00
3C00
3C00
3C00
3C00
3C00
3C00
3C00
3C00
3C00
3C0C
3C0C
3C0C
FFFC
0000
0700
0F80
1DC0
3060
ENDCHAR
STARTCHAR uni1E3D
ENCODING 7741
SWIDTH 325 0
DWIDTH 8 0
BBX 9 25 0 -5
BITMAP
FC00
3C00
3C00
3C00
3C00
3C00
3C00
3C00
3C00
3C00
3C00
3C00
3C00
3C00
3C00
3C00
3C00
3C00
3C00
FF00
0000
1C00
3E00
7700
C180
ENDCHAR
STARTCHAR uni1E3E
ENCODING 7742
SWIDTH 904 0
DWIDTH 23 0
BBX 22 24 1 0
BITMAP
001E00
001800
003000
006000
000000
FE00FC
3E01F0
3F01F0
3F01F0
3F03F0
3783F0
3786F0
37C6F0
33CEF0
33CCF0
33ECF0
31F8F0
31F8F0
30F0F0
30F0F0
30F0F0
3060F0
3000F0
FC03FC
ENDCHAR
STARTCHAR uni1E3F
ENCODING 7743
SWIDTH 967 0
DWIDTH 25 0
BBX 24 19 1 0
BITMAP
001E00
001800
003000
006000
000000
FCF0F0
3DF9F8
3FFFFC
3E3E3C
3C3C3C
3C3C3C
3C3C3C
3C3C3C
3C3C3C
3C3C3C
3C3C3C
3C3C3C
3C3C3C
FFFFFF
ENDCHAR
STARTCHAR uni1E40
ENCODING 7744
SWIDTH 904 0
DWIDTH 23 0
BBX 22 24 1 0
BITMAP
007000
007000
007000
007000
000000
FE00FC
3E01F0
3F01F0
3F01F0
3F03F0
3783F0
3786F0
37C6F0
33CEF0
33CCF0
33ECF0
31F8F0
31F8F0
30F0F0
30F0F0
30F0F0
3060F0
3000F0
FC03FC
ENDCHAR
STARTCHAR uni1E41
ENCODING 7745
SWIDTH 967 0
DWIDTH 25 0
BBX 24 19 1 0
BITMAP
003800
003800
003800
003800
000000
FCF0F0
3DF9F8
3FFFFC
3E3E3C
3C3C3C
3C3C3C
3C3C3C
3C3C3C
3C3C3C
3C3C3C
3C3C3C
3C3C3C
3C3C3C
FFFFFF
ENDCHAR
STARTCHAR uni1E42
ENCODING 7746
SWIDTH 904 0
DWIDTH 23 0
BBX 22 24 1 -5
BITMAP
FE00FC
3E01F0
3F01F0
3F01F0
3F03F0
3783F0
3786F0
37C6F0
33CEF0
33CCF0
33ECF0
31F8F0
31F8F0
30F0F0
30F0F0
30F0F0
3060F0
3000F0
FC03FC
000000
003800
003800
003800
003800
ENDCHAR
STARTCHAR uni1E43
ENCODING 7747
SWIDTH 967 0
DWIDTH 25 0
BBX 24 19 1 -5
BITMAP
FCF0F0
3DF9F8
3FFFFC
3E3E3C
3C3C3C
3C3C3C
3C3C3C
3C3C3C
3C3C3C
3C3C3C
3C3C3C
3C3C3C
3C3C3C
FFFFFF
000000
001C00
001C00
001C00
001C00
ENDCHAR
STARTCHAR uni1E44
ENCODING 7748
SWIDTH 788 0
DWIDTH 20 0
BBX 19 24 1 0
BITMAP
01C000
01C000
01C000
01C000
000000
F807E0
3C0180
3E0180
3F0180
3F0180
3F8180
37C180
33C180
33E180
31F180
30F980
30F980
307D80
303F80
301F80
301F80
300F80
300780
FC0380
ENDCHAR
STARTCHAR uni1E45
ENCODING 7749
SWIDTH 654 0
DWIDTH 17 0
BBX 17 19 0 0
BITMAP
038000
038000
038000
038000
000000
FC7800
7CFC00
3DFE00
3F1E00
3C1E00
3C1E00
3C1E00
3C1E00
3C1E00
3C1E00
3C1E00
3C1E00
3C1E00
FF7F80
ENDCHAR
STARTCHAR uni1E46
ENCODING 7750
SWIDTH 788 0
DWIDTH 20 0
BBX 19 24 1 -5
BITMAP
F807E0
3C0180
3E0180
3F0180
3F0180
3F8180
37C180
33C180
33E180
31F180
30F980
30F980
307D80
303F80
301F80
301F80
300F80
300780
FC0380
000000
00E000
00E000
00E000
00E000
ENDCHAR
STARTCHAR uni1E47
ENCODING 7751
SWIDTH 654 0
DWIDTH 17 0
BBX 17 19 0 -5
BITMAP
FC7800
7CFC00
3DFE00
3F1E00
3C1E00
3C1E00
3C1E00
3C1E00
3C1E00
3C1E00
3C1E00
3C1E00
3C1E00
FF7F80
000000
01C000
01C000
01C000
01C000
ENDCHAR
STARTCHAR uni1E48
ENCODING 7752
SWIDTH 788 0
DWIDTH 20 0
BBX 19 22 1 -3
BITMAP
F807E0
3C0180
3E0180
3F0180
3F0180
3F8180
37C180
33C180
33E180
31F180
30F980
30F980
307D80
303F80
301F80
301F80
300F80
300780
FC0380
000000
03FC00
03FC00
ENDCHAR
STARTCHAR uni1E49
ENCODING 7753
SWIDTH 654 0
DWIDTH 17 0
BBX 17 17 0 -3
BITMAP
FC7800
7CFC00
3DFE00
3F1E00
3C1E00
3C1E00
3C1E00
3C1E00
3C1E00
3C1E00
3C1E00
3C1E00
3C1E00
FF7F80
000000
07F800
07F800
ENDCHAR
STARTCHAR uni1E4A
ENCODING 7754
SWIDTH 788 0
DWIDTH 20 0
BBX 19 24 1 -5
BITMAP
F807E0
3C0180
3E0180
3F0180
3F0180
3F8180
37C180
33C180
33E180
31F180
30F980
30F980
307D80
303F80
301F80
301F80
300F80
300780
FC0380
000000
00E000
01F000
03B800
060C00
ENDCHAR
STARTCHAR uni1E4B
ENCODING 7755
SWIDTH 654 0
DWIDTH 17 0
BBX 17 19 0 -5
BITMAP
FC7800
7CFC00
3DFE00
3F1E00
3C1E00
3C1E00
3C1E00
3C1E00
3C1E00
3C1E00
3C1E00
3C1E00
3C1E00
FF7F80
000000
01C000
03E000
077000
0C1800
ENDCHAR
STARTCHAR uni1E4C
ENCODING 7756
SWIDTH 810 0
DWIDTH 21 0
BBX 19 29 1 0
BITMAP
007800
006000
00C000
018000
000000
038400
07FC00
07F800
043800
000000
03F800
0E0E00
1C0700
380380
7803C0
7001C0
F001E0
F001E0
F001E0
F001E0
F001E0
F001E0
F001E0
7001C0
7803C0
380380
1C0700
0E0E00
03F800
ENDCHAR
STARTCHAR uni1E4D
ENCODING 7757
SWIDTH 617 0
DWIDTH 16 0
BBX 14 24 1 0
BITMAP
01E0
0180
0300
0600
0000
1C20
3FE0
3FC0
21C0
0000
0FC0
3CF0
7878
7038
F03C
F03C
F03C
F03C
F03C
F03C
7038
7878
3CF0
0FC0
ENDCHAR
STARTCHAR uni1E4E
ENCODING 7758
SWIDTH 810 0
DWIDTH 21 0
BBX 19 28 1 0
BITMAP
073800
073800
073800
000000
038400
07FC00
07F800
043800
000000
03F800
0E0E00
1C0700
380380
7803C0
7001C0
F001E0
F001E0
F001E0
F001E0
F001E0
F001E0
F001E0
7001C0
7803C0
380380
1C0700
0E0E00
03F800
ENDCHAR
STARTCHAR uni1E4F
ENCODING 7759
SWIDTH 617 0
DWIDTH 16 0
BBX 14 23 1 0
BITMAP
1CE0
1CE0
1CE0
0000
1C20
3FE0
3FC0
21C0
0000
0FC0
3CF0
7878
7038
F03C
F03C
F03C
F03C
F03C
F03C
7038
7878
3CF0
0FC0
ENDCHAR
STARTCHAR uni1E50
ENCODING 7760
SWIDTH 810 0
DWIDTH 21 0
BBX 19 27 1 0
BITMAP
03C000
00C000
006000
003000
000000
03FC00
03FC00
000000
03F800
0E0E00
1C0700
380380
7803C0
7001C0
F001E0
F001E0
F001E0
F001E0
F001E0
F001E0
F001E0
7001C0
7803C0
380380
1C0700
0E0E00
03F800
ENDCHAR
STARTCHAR uni1E51
ENCODING 7761
SWIDTH 617 0
DWIDTH 16 0
BBX 14 22 1 0
BITMAP
1E00
0600
0300
0180
0000
1FE0
1FE0
0000
0FC0
3CF0
7878
7038
F03C
F03C
F03C
F03C
F03C
F03C
7038
7878
3CF0
0FC0
ENDCHAR
STARTCHAR uni1E52
ENCODING 7762
SWIDTH 810 0
DWIDTH 21 0
BBX 19 27 1 0
BITMAP
003C00
003000
006000
00C000
000000
03FC00
03FC00
000000
03F800
0E0E00
1C0700
380380
7803C0
7001C0
F001E0
F001E0
F001E0
F001E0
F001E0
F001E0
F001E0
7001C0
7803C0
380380
1C0700
0E0E00
03F800
ENDCHAR
STARTCHAR uni1E53
ENCODING 7763
SWIDTH 617 0
DWIDTH 16 0
BBX 14 22 1 0
BITMAP
01E0
0180
0300
0600
0000
1FE0
1FE0
0000
0FC0
3CF0
7878
7038
F03C
F03C
F03C
F03C
F03C
F03C
7038
7878
3CF0
0FC0
ENDCHAR
STARTCHAR uni1E54
ENCODING 7764
SWIDTH 614 0
DWIDTH 16 0
BBX 15 24 0 0
BITMAP
00F0
00C0
0180
0300
0000
FFF0
3C3C
3C1C
3C1E
3C1E
3C1E
3C1E
3C1C
3C3C
3C78
3FE0
3C00
3C00
3C00
3C00
3C00
3C00
3E00
FF00
ENDCHAR
STARTCHAR uni1E55
ENCODING 7765
SWIDTH 652 0
DWIDTH 17 0
BBX 16 24 0 -5
BITMAP
00F0
00C0
0180
0300
0000
FC78
7DFC
3DFE
3E1E
3C0F
3C0F
3C0F
3C0F
3C0F
3C0F
3C1E
3E3E
3FFC
3CF8
3C00
3C00
3C00
3C00
FF00
ENDCHAR
STARTCHAR uni1E56
ENCODING 7766
SWIDTH 614 0
DWIDTH 16 0
BBX 15 24 0 0
BITMAP
0380
0380
0380
0380
0000
FFF0
3C3C
3C1C
3C1E
3C1E
3C1E
3C1E
3C1C
3C3C
3C78
3FE0
3C00
3C00
3C00
3C00
3C00
3C00
3E00
FF00
ENDCHAR
STARTCHAR uni1E57
ENCODING 7767
SWIDTH 652 0
DWIDTH 17 0
BBX 16 24 0 -5
BITMAP
0380
0380
0380
0380
0000
FC78
7DFC
3DFE
3E1E
3C0F
3C0F
3C0F
3C0F
3C0F
3C0F
3C1E
3E3E
3FFC
3CF8
3C00
3C00
3C00
3C00
FF00
ENDCHAR
STARTCHAR uni1E58
ENCODING 7768
SWIDTH 720 0
DWIDTH 19 0
BBX 18 24 1 0
BITMAP
01C000
01C000
01C000
01C000
000000
FFF000
3C3C00
3C1C00
3C1E00
3C1E00
3C1E00
3C1E00
3C1C00
3C3C00
3C7800
3FF000
3CF000
3CF800
3C7C00
3C3C00
3C3E00
3C1F00
3C1F80
FF0FC0
ENDCHAR
STARTCHAR uni1E59
ENCODING 7769
SWIDTH 462 0
DWIDTH 12 0
BBX 11 19 0 0
BITMAP
0E00
0E00
0E00
0E00
0000
FCE0
3DE0
3FE0
3E60
3C00
3C00
3C00
3C00
3C00
3C00
3C00
3C00
3C00
FF00
ENDCHAR
STARTCHAR uni1E5A
ENCODING 7770
SWIDTH 720 0
DWIDTH 19 0
BBX 18 24 1 -5
BITMAP
FFF000
3C3C00
3C1C00
3C1E00
3C1E00
3C1E00
3C1E00
3C1C00
3C3C00
3C7800
3FF000
3CF000
3CF800
3C7C00
3C3C00
3C3E00
3C1F00
3C1F80
FF0FC0
000000
01C000
01C000
01C000
01C000
ENDCHAR
STARTCHAR uni1E5B
ENCODING 7771
SWIDTH 462 0
DWIDTH 12 0
BBX 11 19 0 -5
BITMAP
FCE0
3DE0
3FE0
3E60
3C00
3C00
3C00
3C00
3C00
3C00
3C00
3C00
3C00
FF00
0000
1C00
1C00
1C00
1C00
ENDCHAR
STARTCHAR uni1E5C
ENCODING 7772
SWIDTH 720 0
DWIDTH 19 0
BBX 18 27 1 -5
BITMAP
0FF000
0FF000
000000
FFF000
3C3C00
3C1C00
3C1E00
3C1E00
3C1E00
3C1E00
3C1C00
3C3C00
3C7800
3FF000
3CF000
3CF800
3C7C00
3C3C00
3C3E00
3C1F00
3C1F80
FF0FC0
000000
01C000
01C000
01C000
01C000
ENDCHAR
STARTCHAR uni1E5D
ENCODING 7773
SWIDTH 462 0
DWIDTH 12 0
BBX 11 22 0 -5
BITMAP
3FC0
3FC0
0000
FCE0
3DE0
3FE0
3E60
3C00
3C00
3C00
3C00
3C00
3C00
3C00
3C00
3C00
FF00
0000
1C00
1C00
1C00
1C00
ENDCHAR
STARTCHAR uni1E5E
ENCODING 7774
SWIDTH 720 0
DWIDTH 19 0
BBX 18 22 1 -3
BITMAP
FFF000
3C3C00
3C1C00
3C1E00
3C1E00
3C1E00
3C1E00
3C1C00
3C3C00
3C7800
3FF000
3CF000
3CF800
3C7C00
3C3C00
3C3E00
3C1F00
3C1F80
FF0FC0
000000
07F800
07F800
ENDCHAR
STARTCHAR uni1E5F
ENCODING 7775
SWIDTH 462 0
DWIDTH 12 0
BBX 11 17 0 -3
BITMAP
FCE0
3DE0
3FE0
3E60
3C00
3C00
3C00
3C00
3C00
3C00
3C00
3C00
3C00
FF00
0000
7F80
7F80
ENDCHAR
STARTCHAR uni1E60
ENCODING 7776
SWIDTH 556 0
DWIDTH 14 0
BBX 13 24 1 0
BITMAP
0700
0700
0700
0700
0000
0FE0
3870
7030
F030
F000
F000
FC00
7F00
3F80
1FE0
07F0
01F8
00F8
0078
0078
C078
C070
E0E0
7F80
ENDCHAR
STARTCHAR uni1E61
ENCODING 7777
SWIDTH 525 0
DWIDTH 14 0
BBX 11 19 2 0
BITMAP
0E00
0E00
0E00
0E00
0000
1F80
79C0
F0C0
F0C0
F800
FE00
7F80
3FC0
0FE0
03E0
C1E0
C1E0
E3C0
7F00
ENDCHAR
STARTCHAR uni1E62
ENCODING 7778
SWIDTH 556 0
DWIDTH 14 0
BBX 13 24 1 -5
BITMAP
0FE0
3870
7030
F030
F000
F000
FC00
7F00
3F80
1FE0
07F0
01F8
00F8
0078
0078
C078
C070
E0E0
7F80
0000
0700
0700
0700
0700
ENDCHAR
STARTCHAR uni1E63
ENCODING 7779
SWIDTH 525 0
DWIDTH 14 0
BBX 11 19 2 -5
BITMAP
1F80
79C0
F0C0
F0C0
F800
FE00
7F80
3FC0
0FE0
03E0
C1E0
C1E0
E3C0
7F00
0000
0E00
0E00
0E00
0E00
ENDCHAR
STARTCHAR uni1E64
ENCODING 7780
SWIDTH 556 0
DWIDTH 14 0
BBX 13 29 1 0
BITMAP
0700
0700
0700
0700
0000
03C0
0300
0600
0C00
0000
0FE0
3870
7030
F030
F000
F000
FC00
7F00
3F80
1FE0
07F0
01F8
00F8
0078
0078
C078
C070
E0E0
7F80
ENDCHAR
STARTCHAR uni1E65
ENCODING 7781
SWIDTH 525 0
DWIDTH 14 0
BBX 11 24 2 0
BITMAP
0E00
0E00
0E00
0E00
0000
0780
0600
0C00
1800
0000
1F80
79C0
F0C0
F0C0
F800
FE00
7F80
3FC0
0FE0
03E0
C1E0
C1E0
E3C0
7F00
ENDCHAR
STARTCHAR uni1E66
ENCODING 7782
SWIDTH 556 0
DWIDTH 14 0
BBX 13 29 1 0
BITMAP
0700
0700
0700
0700
0000
3060
1DC0
0F80
0700
0000
0FE0
3870
7030
F030
F000
F000
FC00
7F00
3F80
1FE0
07F0
01F8
00F8
0078
0078
C078
C070
E0E0
7F80
ENDCHAR
STARTCHAR uni1E67
ENCODING 7783
SWIDTH 525 0
DWIDTH 14 0
BBX 11 24 2 0
BITMAP
0E00
0E00
0E00
0E00
0000
60C0
3B80
1F00
0E00
0000
1F80
79C0
F0C0
F0C0
F800
FE00
7F80
3FC0
0FE0
03E0
C1E0
C1E0
E3C0
7F00
ENDCHAR
STARTCHAR uni1E68
ENCODING 7784
SWIDTH 556 0
DWIDTH 14 0
BBX 13 29 1 -5
BITMAP
0E00
0E00
0E00
0E00
0000
0FE0
3870
7030
F030
F000
F000
FC00
7F00
3F80
1FE0
07F0
01F8
00F8
0078
0078
C078
C070
E0E0
7F80
0000
0700
0700
0700
0700
ENDCHAR
STARTCHAR uni1E69
ENCODING 7785
SWIDTH 525 0
DWIDTH 14 0
BBX 11 24 2 -5
BITMAP
1C00
1C00
1C00
1C00
0000
1F80
79C0
F0C0
F0C0
F800
FE00
7F80
3FC0
0FE0
03E0
C1E0
C1E0
E3C0
7F00
0000
0E00
0E00
0E00
0E00
ENDCHAR
STARTCHAR uni1E6A
ENCODING 7786
SWIDTH 714 0
DWIDTH 19 0
BBX 18 24 0 0
BITMAP
01C000
01C000
01C000
01C000
000000
FFFFC0
E1E0C0
C1E0C0
C1E0C0
01E000
01E000
01E000
01E000
01E000
01E000
01E000
01E000
01E000
01E000
01E000
01E000
01E000
01F000
07F800
ENDCHAR
STARTCHAR uni1E6B
ENCODING 7787
SWIDTH 389 0
DWIDTH 10 0
BBX 9 23 1 0
BITMAP
1C00
1C00
1C00
1C00
0000
0C00
3C00
3C00
3C00
FF80
3C00
3C00
3C00
3C00
3C00
3C00
3C00
3C00
3C00
3C00
3C00
1F80
0F80
ENDCHAR
STARTCHAR uni1E6C
ENCODING 7788
SWIDTH 714 0
DWIDTH 19 0
BBX 18 24 0 -5
BITMAP
FFFFC0
E1E0C0
C1E0C0
C1E0C0
01E000
01E000
01E000
01E000
01E000
01E000
01E000
01E000
01E000
01E000
01E000
01E000
01E000
01F000
07F800
000000
00E000
00E000
00E000
00E000
ENDCHAR
STARTCHAR uni1E6D
ENCODING 7789
SWIDTH 389 0
DWIDTH 10 0
BBX 9 23 1 -5
BITMAP
0C00
3C00
3C00
3C00
FF80
3C00
3C00
3C00
3C00
3C00
3C00
3C00
3C00
3C00
3C00
3C00
1F80
0F80
0000
1C00
1C00
1C00
1C00
ENDCHAR
STARTCHAR uni1E6E
ENCODING 7790
SWIDTH 714 0
DWIDTH 19 0
BBX 18 22 0 -3
BITMAP
FFFFC0
E1E0C0
C1E0C0
C1E0C0
01E000
01E000
01E000
01E000
01E000
01E000
01E000
01E000
01E000
01E000
01E000
01E000
01E000
01F000
07F800
000000
07F800
07F800
ENDCHAR
STARTCHAR uni1E6F
ENCODING 7791
SWIDTH 389 0
DWIDTH 10 0
BBX 9 21 1 -3
BITMAP
0C00
3C00
3C00
3C00
FF80
3C00
3C00
3C00
3C00
3C00
3C00
3C00
3C00
3C00
3C00
3C00
1F80
0F80
0000
7F80
7F80
ENDCHAR
STARTCHAR uni1E70
ENCODING 7792
SWIDTH 714 0
DWIDTH 19 0
BBX 18 24 0 -5
BITMAP
FFFFC0
E1E0C0
C1E0C0
C1E0C0
01E000
01E000
01E000
01E000
01E000
01E000
01E000
01E000
01E000
01E000
01E000
01E000
01E000
01F000
07F800
000000
00E000
01F000
03B800
060C00
ENDCHAR
STARTCHAR uni1E71
ENCODING 7793
SWIDTH 389 0
DWIDTH 10 0
BBX 9 23 1 -5
BITMAP
0C00
3C00
3C00
3C00
FF80
3C00
3C00
3C00
3C00
3C00
3C00
3C00
3C00
3C00
3C00
3C00
1F80
0F80
0000
1C00
3E00
7700
C180
ENDCHAR
STARTCHAR uni1E72
ENCODING 7794
SWIDTH 747 0
DWIDTH 19 0
BBX 19 23 0 -4
BITMAP
FF07E0
3C0180
3C0180
3C0180
3C0180
3C0180
3C0180
3C0180
3C0180
3C0180
3C0180
3C0180
3C0180
3C0180
3C0180
1C0300
1E0300
0F0600
03F800
000000
073800
073800
073800
ENDCHAR
STARTCHAR uni1E73
ENCODING 7795
SWIDTH 654 0
DWIDTH 17 0
BBX 17 18 0 -4
BITMAP
FC7E00
3C1E00
3C1E00
3C1E00
3C1E00
3C1E00
3C1E00
3C1E00
3C1E00
3C1E00
3C7E00
3FDE00
1F9F00
0F1F80
000000
073800
073800
073800
ENDCHAR
STARTCHAR uni1E74
ENCODING 7796
SWIDTH 747 0
DWIDTH 19 0
BBX 19 24 0 -5
BITMAP
FF07E0
3C0180
3C0180
3C0180
3C0180
3C0180
3C0180
3C0180
3C0180
3C0180
3C0180
3C0180
3C0180
3C0180
3C0180
1C0300
1E0300
0F0600
03F800
000000
038400
07FC00
07F800
043800
ENDCHAR
STARTCHAR uni1E75
ENCODING 7797
SWIDTH 654 0
DWIDTH 17 0
BBX 17 19 0 -5
BITMAP
FC7E00
3C1E00
3C1E00
3C1E00
3C1E00
3C1E00
3C1E00
3C1E00
3C1E00
3C1E00
3C7E00
3FDE00
1F9F00
0F1F80
000000
038400
07FC00
07F800
043800
ENDCHAR
STARTCHAR uni1E76
ENCODING 7798
SWIDTH 747 0
DWIDTH 19 0
BBX 19 24 0 -5
BITMAP
FF07E0
3C0180
3C0180
3C0180
3C0180
3C0180
3C0180
3C0180
3C0180
3C0180
3C0180
3C0180
3C0180
3C0180
3C0180
1C0300
1E0300
0F0600
03F800
000000
01C000
03E000
077000
0C1800
ENDCHAR
STARTCHAR uni1E77
ENCODING 7799
SWIDTH 654 0
DWIDTH 17 0
BBX 17 19 0 -5
BITMAP
FC7E00
3C1E00
3C1E00
3C1E00
3C1E00
3C1E00
3C1E00
3C1E00
3C1E00
3C1E00
3C7E00
3FDE00
1F9F00
0F1F80
000000
00E000
01F000
03B800
060C00
ENDCHAR
STARTCHAR uni1E78
ENCODING 7800
SWIDTH 747 0
DWIDTH 19 0
BBX 19 29 0 0
BITMAP
007800
006000
00C000
018000
000000
070800
0FF800
0FF000
087000
000000
FF07E0
3C0180
3C0180
3C0180
3C0180
3C0180
3C0180
3C0180
3C0180
3C0180
3C0180
3C0180
3C0180
3C0180
3C0180
1C0300
1E0300
0F0600
03F800
ENDCHAR
STARTCHAR uni1E79
ENCODING 7801
SWIDTH 654 0
DWIDTH 17 0
BBX 17 24 0 0
BITMAP
00F000
00C000
018000
030000
000000
070800
0FF800
0FF000
087000
000000
FC7E00
3C1E00
3C1E00
3C1E00
3C1E00
3C1E00
3C1E00
3C1E00
3C1E00
3C1E00
3C7E00
3FDE00
1F9F00
0F1F80
ENDCHAR
STARTCHAR uni1E7A
ENCODING 7802
SWIDTH 747 0
DWIDTH 19 0
BBX 19 26 0 0
BITMAP
073800
073800
073800
000000
07F800
07F800
000000
FF07E0
3C0180
3C0180
3C0180
3C0180
3C0180
3C0180
3C0180
3C0180
3C0180
3C0180
3C0180
3C0180
3C0180
3C0180
1C0300
1E0300
0F0600
03F800
ENDCHAR
STARTCHAR uni1E7B
ENCODING 7803
SWIDTH 654 0
DWIDTH 17 0
BBX 17 21 0 0
BITMAP
0E7000
0E7000
0E7000
000000
0FF000
0FF000
000000
FC7E00
3C1E00
3C1E00
3C1E00
3C1E00
3C1E00
3C1E00
3C1E00
3C1E00
3C1E00
3C7E00
3FDE00
1F9F00
0F1F80
ENDCHAR
STARTCHAR uni1E7C
ENCODING 7804
SWIDTH 753 0
DWIDTH 20 0
BBX 20 24 0 0
BITMAP
038400
07FC00
07F800
043800
000000
FF01F0
3E00C0
3E00C0
1E0080
1F0180
0F0100
0F0100
0F8200
078200
07C600
03C400
03E400
01E800
01E800
00F000
00F000
00F000
006000
006000
ENDCHAR
STARTCHAR uni1E7D
ENCODING 7805
SWIDTH 657 0
DWIDTH 17 0
BBX 17 19 0 0
BITMAP
0E1000
1FF000
1FE000
10E000
000000
FF0F80
7C0600
3E0400
1E0400
1F0800
0F0800
0F9000
079000
07A000
03E000
03E000
01C000
01C000
018000
ENDCHAR
STARTCHAR uni1E7E
ENCODING 7806
SWIDTH 753 0
DWIDTH 20 0
BBX 20 24 0 -5
BITMAP
FF01F0
3E00C0
3E00C0
1E0080
1F0180
0F0100
0F0100
0F8200
078200
07C600
03C400
03E400
01E800
01E800
00F000
00F000
00F000
006000
006000
000000
007000
007000
007000
007000
ENDCHAR
STARTCHAR uni1E7F
ENCODING 7807
SWIDTH 657 0
DWIDTH 17 0
BBX 17 19 0 -5
BITMAP
FF0F80
7C0600
3E0400
1E0400
1F0800
0F0800
0F9000
079000
07A000
03E000
03E000
01C000
01C000
018000
000000
01C000
01C000
01C000
01C000
ENDCHAR
STARTCHAR Wgrave
ENCODING 7808
SWIDTH 955 0
DWIDTH 25 0
BBX 25 24 0 0
BITMAP
01E00000
00600000
00300000
00180000
00000000
FE040F80
7C0E0200
3C0E0600
3C0E0400
3E1F0400
1E1F0400
1E1F0800
1E2F8800
1F278800
0F279000
0F47D000
0FC3D000
07C3F000
0783E000
0781E000
0781E000
0381C000
0300C000
0300C000
ENDCHAR
STARTCHAR wgrave
ENCODING 7809
SWIDTH 880 0
DWIDTH 23 0
BBX 23 19 0 0
BITMAP
01E000
006000
003000
001800
000000
FE0C3E
7C1C08
3C1E18
3C1E10
1E3E10
1E2F30
1E4F20
0F4FA0
0FC7C0
0F87C0
0783C0
070380
070380
020180
ENDCHAR
STARTCHAR Wacute
ENCODING 7810
SWIDTH 955 0
DWIDTH 25 0
BBX 25 24 0 0
BITMAP
001E0000
00180000
00300000
00600000
00000000
FE040F80
7C0E0200
3C0E0600
3C0E0400
3E1F0400
1E1F0400
1E1F0800
1E2F8800
1F278800
0F279000
0F47D000
0FC3D000
07C3F000
0783E000
0781E000
0781E000
0381C000
0300C000
0300C000
ENDCHAR
STARTCHAR wacute
ENCODING 7811
SWIDTH 880 0
DWIDTH 23 0
BBX 23 19 0 0
BITMAP
001E00
001800
003000
006000
000000
FE0C3E
7C1C08
3C1E18
3C1E10
1E3E10
1E2F30
1E4F20
0F4FA0
0FC7C0
0F87C0
0783C0
070380
070380
020180
ENDCHAR
STARTCHAR Wdieresis
ENCODING 7812
SWIDTH 955 0
DWIDTH 25 0
BBX 25 23 0 0
BITMAP
01CE0000
01CE0000
01CE0000
00000000
FE040F80
7C0E0200
3C0E0600
3C0E0400
3E1F0400
1E1F0400
1E1F0800
1E2F8800
1F278800
0F279000
0F47D000
0FC3D000
07C3F000
0783E000
0781E000
0781E000
0381C000
0300C000
0300C000
ENDCHAR
STARTCHAR wdieresis
ENCODING 7813
SWIDTH 880 0
DWIDTH 23 0
BBX 23 18 0 0
BITMAP
01CE00
01CE00
01CE00
000000
FE0C3E
7C1C08
3C1E18
3C1E10
1E3E10
1E2F30
1E4F20
0F4FA0
0FC7C0
0F87C0
0783C0
070380
070380
020180
ENDCHAR
STARTCHAR uni1E86
ENCODING 7814
SWIDTH 955 0
DWIDTH 25 0
BBX 25 24 0 0
BITMAP
00380000
00380000
00380000
00380000
00000000
FE040F80
7C0E0200
3C0E0600
3C0E0400
3E1F0400
1E1F0400
1E1F0800
1E2F8800
1F278800
0F279000
0F47D000
0FC3D000
07C3F000
0783E000
0781E000
0781E000
0381C000
0300C000
0300C000
ENDCHAR
STARTCHAR uni1E87
ENCODING 7815
SWIDTH 880 0
DWIDTH 23 0
BBX 23 19 0 0
BITMAP
007000
007000
007000
007000
000000
FE0C3E
7C1C08
3C1E18
3C1E10
1E3E10
1E2F30
1E4F20
0F4FA0
0FC7C0
0F87C0
0783C0
070380
070380
020180
ENDCHAR
STARTCHAR uni1E88
ENCODING 7816
SWIDTH 955 0
DWIDTH 25 0
BBX 25 24 0 -5
BITMAP
FE040F80
7C0E0200
3C0E0600
3C0E0400
3E1F0400
1E1F0400
1E1F0800
1E2F8800
1F278800
0F279000
0F47D000
0FC3D000
07C3F000
0783E000
0781E000
0781E000
0381C000
0300C000
0300C000
00000000
001C0000
001C0000
001C0000
001C0000
ENDCHAR
STARTCHAR uni1E89
ENCODING 7817
SWIDTH 880 0
DWIDTH 23 0
BBX 23 19 0 -5
BITMAP
FE0C3E
7C1C08
3C1E18
3C1E10
1E3E10
1E2F30
1E4F20
0F4FA0
0FC7C0
0F87C0
0783C0
070380
070380
020180
000000
003800
003800
003800
003800
ENDCHAR
STARTCHAR uni1E8A
ENCODING 7818
SWIDTH 702 0
DWIDTH 18 0
BBX 18 24 0 0
BITMAP
01C000
01C000
01C000
01C000
000000
7F07C0
3E0300
1E0200
1F0600
0F0400
0F8800
07D800
03D000
03E000
01F000
03F000
07F800
067800
0C7C00
1C3E00
183E00
301F00
700F80
F83FC0
ENDCHAR
STARTCHAR uni1E8B
ENCODING 7819
SWIDTH 608 0
DWIDTH 16 0
BBX 16 19 0 0
BITMAP
0380
0380
0380
0380
0000
FF3F
3E0C
3E18
1F10
0FA0
07C0
07C0
03E0
07F0
05F0
08F8
107C
303E
F8FF
ENDCHAR
STARTCHAR uni1E8C
ENCODING 7820
SWIDTH 702 0
DWIDTH 18 0
BBX 18 23 0 0
BITMAP
0E7000
0E7000
0E7000
000000
7F07C0
3E0300
1E0200
1F0600
0F0400
0F8800
07D800
03D000
03E000
01F000
03F000
07F800
067800
0C7C00
1C3E00
183E00
301F00
700F80
F83FC0
ENDCHAR
STARTCHAR uni1E8D
ENCODING 7821
SWIDTH 608 0
DWIDTH 16 0
BBX 16 18 0 0
BITMAP
1CE0
1CE0
1CE0
0000
FF3F
3E0C
3E18
1F10
0FA0
07C0
07C0
03E0
07F0
05F0
08F8
107C
303E
F8FF
ENDCHAR
STARTCHAR uni1E8E
ENCODING 7822
SWIDTH 717 0
DWIDTH 19 0
BBX 18 24 0 0
BITMAP
01C000
01C000
01C000
01C000
000000
FF07C0
7C0380
3E0300
1E0200
1F0400
0F0400
0F8800
07C800
03D000
03F000
01E000
01E000
01E000
01E000
01E000
01E000
01E000
01E000
07F800
ENDCHAR
STARTCHAR uni1E8F
ENCODING 7823
SWIDTH 654 0
DWIDTH 17 0
BBX 17 24 0 -5
BITMAP
038000
038000
038000
038000
000000
FF0F80
7C0600
3E0600
1E0400
1E0800
0F0800
0F1000
0F9000
07A000
07E000
03C000
03C000
018000
018000
010000
030000
060000
0C0000
1C0000
ENDCHAR
STARTCHAR uni1E90
ENCODING 7824
SWIDTH 639 0
DWIDTH 17 0
BBX 14 24 1 0
BITMAP
0380
07C0
0EE0
1830
0000
7FFC
607C
6078
60F8
00F0
01F0
03E0
03C0
07C0
0780
0F80
0F00
1F00
3E00
3C00
7C00
780C
F80C
FFFC
ENDCHAR
STARTCHAR uni1E91
ENCODING 7825
SWIDTH 584 0
DWIDTH 15 0
BBX 13 19 1 0
BITMAP
0700
0F80
1DC0
3060
0000
FFF8
E0F8
C1F0
03E0
03E0
07C0
0F80
0F00
1F00
3E00
7C00
7C18
F818
FFF8
ENDCHAR
STARTCHAR uni1E92
ENCODING 7826
SWIDTH 639 0
DWIDTH 17 0
BBX 14 24 1 -5
BITMAP
7FFC
607C
6078
60F8
00F0
01F0
03E0
03C0
07C0
0780
0F80
0F00
1F00
3E00
3C00
7C00
780C
F80C
FFFC
0000
0700
0700
0700
0700
ENDCHAR
STARTCHAR uni1E93
ENCODING 7827
SWIDTH 584 0
DWIDTH 15 0
BBX 13 19 1 -5
BITMAP
FFF8
E0F8
C1F0
03E0
03E0
07C0
0F80
0F00
1F00
3E00
7C00
7C18
F818
FFF8
0000
0E00
0E00
0E00
0E00
ENDCHAR
STARTCHAR uni1E94
ENCODING 7828
SWIDTH 639 0
DWIDTH 17 0
BBX 14 22 1 -3
BITMAP
7FFC
607C
6078
60F8
00F0
01F0
03E0
03C0
07C0
0780
0F80
0F00
1F00
3E00
3C00
7C00
780C
F80C
FFFC
0000
3FC0
3FC0
ENDCHAR
STARTCHAR uni1E95
ENCODING 7829
SWIDTH 584 0
DWIDTH 15 0
BBX 13 17 1 -3
BITMAP
FFF8
E0F8
C1F0
03E0
03E0
07C0
0F80
0F00
1F00
3E00
7C00
7C18
F818
FFF8
0000
3FC0
3FC0
ENDCHAR
STARTCHAR uni1E96
ENCODING 7830
SWIDTH 654 0
DWIDTH 17 0
BBX 17 23 0 -3
BITMAP
FC0000
3C0000
3C0000
3C0000
3C0000
3C0000
3C7800
3CFC00
3DFE00
3F1E00
3C1E00
3C1E00
3C1E00
3C1E00
3C1E00
3C1E00
3C1E00
3C1E00
3C1E00
FF7F80
000000
07F800
07F800
ENDCHAR
STARTCHAR uni1E97
ENCODING 7831
SWIDTH 389 0
DWIDTH 10 0
BBX 9 22 1 0
BITMAP
E700
E700
E700
0000
0C00
3C00
3C00
3C00
FF80
3C00
3C00
3C00
3C00
3C00
3C00
3C00
3C00
3C00
3C00
3C00
1F80
0F80
ENDCHAR
STARTCHAR uni1E98
ENCODING 7832
SWIDTH 880 0
DWIDTH 23 0
BBX 23 19 0 0
BITMAP
003000
004800
004800
003000
000000
FE0C3E
7C1C08
3C1E18
3C1E10
1E3E10
1E2F30
1E4F20
0F4FA0
0FC7C0
0F87C0
0783C0
070380
070380
020180
ENDCHAR
STARTCHAR uni1E99
ENCODING 7833
SWIDTH 654 0
DWIDTH 17 0
BBX 17 24 0 -5
BITMAP
018000
024000
024000
018000
000000
FF0F80
7C0600
3E0600
1E0400
1E0800
0F0800
0F1000
0F9000
07A000
07E000
03C000
03C000
018000
018000
010000
030000
060000
0C0000
1C0000
ENDCHAR
STARTCHAR uni1EA0
ENCODING 7840
SWIDTH 795 0
DWIDTH 21 0
BBX 21 24 0 -5
BITMAP
003000
007000
007000
007800
00F800
00FC00
013C00
013E00
021E00
021F00
040F00
040F80
0FFF80
0807C0
1803C0
1003C0
3001E0
7001E0
F807F8
000000
003800
003800
003800
003800
ENDCHAR
STARTCHAR uni1EA1
ENCODING 7841
SWIDTH 556 0
DWIDTH 14 0
BBX 14 19 0 -5
BITMAP
1F80
71E0
60F0
60F0
00F0
00F0
1FF0
78F0
F0F0
F0F0
F0F0
F8F0
7F70
3E3C
0000
0700
0700
0700
0700
ENDCHAR
STARTCHAR uni1EA4
ENCODING 7844
SWIDTH 795 0
DWIDTH 21 0
BBX 21 29 0 0
BITMAP
001E00
001800
003000
006000
000000
007000
00F800
01DC00
030600
000000
003000
007000
007000
007800
00F800
00FC00
013C00
013E00
021E00
021F00
040F00
040F80
0FFF80
0807C0
1803C0
1003C0
3001E0
7001E0
F807F8
ENDCHAR
STARTCHAR uni1EA5
ENCODING 7845
SWIDTH 556 0
DWIDTH 14 0
BBX 14 24 0 0
BITMAP
01E0
0180
0300
0600
0000
0700
0F80
1DC0
3060
0000
1F80
71E0
60F0
60F0
00F0
00F0
1FF0
78F0
F0F0
F0F0
F0F0
F8F0
7F70
3E3C
ENDCHAR
STARTCHAR uni1EA6
ENCODING 7846
SWIDTH 795 0
DWIDTH 21 0
BBX 21 29 0 0
BITMAP
01E000
006000
003000
001800
000000
007000
00F800
01DC00
030600
000000
003000
007000
007000
007800
00F800
00FC00
013C00
013E00
021E00
021F00
040F00
040F80
0FFF80
0807C0
1803C0
1003C0
3001E0
7001E0
F807F8
ENDCHAR
STARTCHAR uni1EA7
ENCODING 7847
SWIDTH 556 0
DWIDTH 14 0
BBX 14 24 0 0
BITMAP
1E00
0600
0300
0180
0000
0700
0F80
1DC0
3060
0000
1F80
71E0
60F0
60F0
00F0
00F0
1FF0
78F0
F0F0
F0F0
F0F0
F8F0
7F70
3E3C
ENDCHAR
STARTCHAR uni1EAA
ENCODING 7850
SWIDTH 795 0
DWIDTH 21 0
BBX 21 29 0 0
BITMAP
01C200
03FE00
03FC00
021C00
000000
007000
00F800
01DC00
030600
000000
003000
007000
007000
007800
00F800
00FC00
013C00
013E00
021E00
021F00
040F00
040F80
0FFF80
0807C0
1803C0
1003C0
3001E0
7001E0
F807F8
ENDCHAR
STARTCHAR uni1EAB
ENCODING 7851
SWIDTH 556 0
DWIDTH 14 0
BBX 14 24 0 0
BITMAP
1C20
3FE0
3FC0
21C0
0000
0700
0F80
1DC0
3060
0000
1F80
71E0
60F0
60F0
00F0
00F0
1FF0
78F0
F0F0
F0F0
F0F0
F8F0
7F70
3E3C
ENDCHAR
STARTCHAR uni1EAC
ENCODING 7852
SWIDTH 795 0
DWIDTH 21 0
BBX 21 29 0 -5
BITMAP
007000
00F800
01DC00
030600
000000
003000
007000
007000
007800
00F800
00FC00
013C00
013E00
021E00
021F00
040F00
040F80
0FFF80
0807C0
1803C0
1003C0
3001E0
7001E0
F807F8
000000
003800
003800
003800
003800
ENDCHAR
STARTCHAR uni1EAD
ENCODING 7853
SWIDTH 556 0
DWIDTH 14 0
BBX 14 24 0 -5
BITMAP
0380
07C0
0EE0
1830
0000
1F80
71E0
60F0
60F0
00F0
00F0
1FF0
78F0
F0F0
F0F0
F0F0
F8F0
7F70
3E3C
0000
0700
0700
0700
0700
ENDCHAR
STARTCHAR uni1EAE
ENCODING 7854
SWIDTH 795 0
DWIDTH 21 0
BBX 21 29 0 0
BITMAP
001E00
001800
003000
006000
000000
030600
03FE00
01FC00
00F800
000000
003000
007000
007000
007800
00F800
00FC00
013C00
013E00
021E00
021F00
040F00
040F80
0FFF80
0807C0
1803C0
1003C0
3001E0
7001E0
F807F8
ENDCHAR
STARTCHAR uni1EAF
ENCODING 7855
SWIDTH 556 0
DWIDTH 14 0
BBX 14 24 0 0
BITMAP
01E0
0180
0300
0600
0000
3060
3FE0
1FC0
0F80
0000
1F80
71E0
60F0
60F0
00F0
00F0
1FF0
78F0
F0F0
F0F0
F0F0
F8F0
7F70
3E3C
ENDCHAR
STARTCHAR uni1EB0
ENCODING 7856
SWIDTH 795 0
DWIDTH 21 0
BBX 21 29 0 0
BITMAP
01E000
006000
003000
001800
000000
030600
03FE00
01FC00
00F800
000000
003000
007000
007000
007800
00F800
00FC00
013C00
013E00
021E00
021F00
040F00
040F80
0FFF80
0807C0
1803C0
1003C0
3001E0
7001E0
F807F8
ENDCHAR
STARTCHAR uni1EB1
ENCODING 7857
SWIDTH 556 0
DWIDTH 14 0
BBX 14 24 0 0
BITMAP
1E00
0600
0300
0180
0000
3060
3FE0
1FC0
0F80
0000
1F80
71E0
60F0
60F0
00F0
00F0
1FF0
78F0
F0F0
F0F0
F0F0
F8F0
7F70
3E3C
ENDCHAR
STARTCHAR uni1EB4
ENCODING 7860
SWIDTH 795 0
DWIDTH 21 0
BBX 21 29 0 0
BITMAP
01C200
03FE00
03FC00
021C00
000000
030600
03FE00
01FC00
00F800
000000
003000
007000
007000
007800
00F800
00FC00
013C00
013E00
021E00
021F00
040F00
040F80
0FFF80
0807C0
1803C0
1003C0
3001E0
7001E0
F807F8
ENDCHAR
STARTCHAR uni1EB5
ENCODING 7861
SWIDTH 556 0
DWIDTH 14 0
BBX 14 24 0 0
BITMAP
1C20
3FE0
3FC0
21C0
0000
3060
3FE0
1FC0
0F80
0000
1F80
71E0
60F0
60F0
00F0
00F0
1FF0
78F0
F0F0
F0F0
F0F0
F8F0
7F70
3E3C
ENDCHAR
STARTCHAR uni1EB6
ENCODING 7862
SWIDTH 795 0
DWIDTH 21 0
BBX 21 29 0 -5
BITMAP
030600
03FE00
01FC00
00F800
000000
003000
007000
007000
007800
00F800
00FC00
013C00
013E00
021E00
021F00
040F00
040F80
0FFF80
0807C0
1803C0
1003C0
3001E0
7001E0
F807F8
000000
003800
003800
003800
003800
ENDCHAR
STARTCHAR uni1EB7
ENCODING 7863
SWIDTH 556 0
DWIDTH 14 0
BBX 14 24 0 -5
BITMAP
1830
1FF0
0FE0
07C0
0000
1F80
71E0
60F0
60F0
00F0
00F0
1FF0
78F0
F0F0
F0F0
F0F0
F8F0
7F70
3E3C
0000
0700
0700
0700
0700
ENDCHAR
STARTCHAR uni1EB8
ENCODING 7864
SWIDTH 601 0
DWIDTH 16 0
BBX 14 24 1 -5
BITMAP
FFFC
3C0C
3C0C
3C00
3C00
3C00
3C00
3C00
3C10
3FF0
3C10
3C10
3C00
3C00
3C00
3C00
3C0C
3C0C
FFFC
0000
0700
0700
0700
0700
ENDCHAR
STARTCHAR uni1EB9
ENCODING 7865
SWIDTH 568 0
DWIDTH 15 0
BBX 13 19 1 -5
BITMAP
0FC0
38E0
7870
7070
F078
F078
FFF8
F000
F000
F800
7800
3C08
1FF8
07F0
0000
0700
0700
0700
0700
ENDCHAR
STARTCHAR uni1EBC
ENCODING 7868
SWIDTH 601 0
DWIDTH 16 0
BBX 14 24 1 0
BITMAP
1C20
3FE0
3FC0
21C0
0000
FFFC
3C0C
3C0C
3C00
3C00
3C00
3C00
3C00
3C10
3FF0
3C10
3C10
3C00
3C00
3C00
3C00
3C0C
3C0C
FFFC
ENDCHAR
STARTCHAR uni1EBD
ENCODING 7869
SWIDTH 568 0
DWIDTH 15 0
BBX 13 19 1 0
BITMAP
1C20
3FE0
3FC0
21C0
0000
0FC0
38E0
7870
7070
F078
F078
FFF8
F000
F000
F800
7800
3C08
1FF8
07F0
ENDCHAR
STARTCHAR uni1EBE
ENCODING 7870
SWIDTH 601 0
DWIDTH 16 0
BBX 14 29 1 0
BITMAP
01E0
0180
0300
0600
0000
0380
07C0
0EE0
1830
0000
FFFC
3C0C
3C0C
3C00
3C00
3C00
3C00
3C00
3C10
3FF0
3C10
3C10
3C00
3C00
3C00
3C00
3C0C
3C0C
FFFC
ENDCHAR
STARTCHAR uni1EBF
ENCODING 7871
SWIDTH 568 0
DWIDTH 15 0
BBX 13 24 1 0
BITMAP
01E0
0180
0300
0600
0000
0700
0F80
1DC0
3060
0000
0FC0
38E0
7870
7070
F078
F078
FFF8
F000
F000
F800
7800
3C08
1FF8
07F0
ENDCHAR
STARTCHAR uni1EC0
ENCODING 7872
SWIDTH 601 0
DWIDTH 16 0
BBX 14 29 1 0
BITMAP
1E00
0600
0300
0180
0000
0380
07C0
0EE0
1830
0000
FFFC
3C0C
3C0C
3C00
3C00
3C00
3C00
3C00
3C10
3FF0
3C10
3C10
3C00
3C00
3C00
3C00
3C0C
3C0C
FFFC
ENDCHAR
STARTCHAR uni1EC1
ENCODING 7873
SWIDTH 568 0
DWIDTH 15 0
BBX 13 24 1 0
BITMAP
1E00
0600
0300
0180
0000
0700
0F80
1DC0
3060
0000
0FC0
38E0
7870
7070
F078
F078
FFF8
F000
F000
F800
7800
3C08
1FF8
07F0
ENDCHAR
STARTCHAR uni1EC4
ENCODING 7876
SWIDTH 601 0
DWIDTH 16 0
BBX 14 29 1 0
BITMAP
0E10
1FF0
1FE0
10E0
0000
0380
07C0
0EE0
1830
0000
FFFC
3C0C
3C0C
3C00
3C00
3C00
3C00
3C00
3C10
3FF0
3C10
3C10
3C00
3C00
3C00
3C00
3C0C
3C0C
FFFC
ENDCHAR
STARTCHAR uni1EC5
ENCODING 7877
SWIDTH 568 0
DWIDTH 15 0
BBX 13 24 1 0
BITMAP
1C20
3FE0
3FC0
21C0
0000
0700
0F80
1DC0
3060
0000
0FC0
38E0
7870
7070
F078
F078
FFF8
F000
F000
F800
7800
3C08
1FF8
07F0
ENDCHAR
STARTCHAR uni1EC6
ENCODING 7878
SWIDTH 601 0
DWIDTH 16 0
BBX 14 29 1 -5
BITMAP
0700
0F80
1DC0
3060
0000
FFFC
3C0C
3C0C
3C00
3C00
3C00
3C00
3C00
3C10
3FF0
3C10
3C10
3C00
3C00
3C00
3C00
3C0C
3C0C
FFFC
0000
0700
0700
0700
0700
ENDCHAR
STARTCHAR uni1EC7
ENCODING 7879
SWIDTH 568 0
DWIDTH 15 0
BBX 13 24 1 -5
BITMAP
0700
0F80
1DC0
3060
0000
0FC0
38E0
7870
7070
F078
F078
FFF8
F000
F000
F800
7800
3C08
1FF8
07F0
0000
0700
0700
0700
0700
ENDCHAR
STARTCHAR uni1ECA
ENCODING 7882
SWIDTH 349 0
DWIDTH 9 0
BBX 8 24 1 -5
BITMAP
FF
3C
3C
3C
3C
3C
3C
3C
3C
3C
3C
3C
3C
3C
3C
3C
3C
3C
FF
00
1C
1C
1C
1C
ENDCHAR
STARTCHAR uni1ECB
ENCODING 7883
SWIDTH 325 0
DWIDTH 8 0
BBX 8 25 0 -5
BITMAP
3C
3C
3C
3C
00
00
FC
3C
3C
3C
3C
3C
3C
3C
3C
3C
3C
3C
3C
FF
00
1C
1C
1C
1C
ENDCHAR
STARTCHAR uni1ECC
ENCODING 7884
SWIDTH 810 0
DWIDTH 21 0
BBX 19 24 1 -5
BITMAP
03F800
0E0E00
1C0700
380380
7803C0
7001C0
F001E0
F001E0
F001E0
F001E0
F001E0
F001E0
F001E0
7001C0
7803C0
380380
1C0700
0E0E00
03F800
000000
00E000
00E000
00E000
00E000
ENDCHAR
STARTCHAR uni1ECD
ENCODING 7885
SWIDTH 617 0
DWIDTH 16 0
BBX 14 19 1 -5
BITMAP
0FC0
3CF0
7878
7038
F03C
F03C
F03C
F03C
F03C
F03C
7038
7878
3CF0
0FC0
0000
0380
0380
0380
0380
ENDCHAR
STARTCHAR uni1ED0
ENCODING 7888
SWIDTH 810 0
DWIDTH 21 0
BBX 19 29 1 0
BITMAP
003C00
003000
006000
00C000
000000
00E000
01F000
03B800
060C00
000000
03F800
0E0E00
1C0700
380380
7803C0
7001C0
F001E0
F001E0
F001E0
F001E0
F001E0
F001E0
F001E0
7001C0
7803C0
380380
1C0700
0E0E00
03F800
ENDCHAR
STARTCHAR uni1ED1
ENCODING 7889
SWIDTH 617 0
DWIDTH 16 0
BBX 14 24 1 0
BITMAP
01E0
0180
0300
0600
0000
0700
0F80
1DC0
3060
0000
0FC0
3CF0
7878
7038
F03C
F03C
F03C
F03C
F03C
F03C
7038
7878
3CF0
0FC0
ENDCHAR
STARTCHAR uni1ED2
ENCODING 7890
SWIDTH 810 0
DWIDTH 21 0
BBX 19 29 1 0
BITMAP
03C000
00C000
006000
003000
000000
00E000
01F000
03B800
060C00
000000
03F800
0E0E00
1C0700
380380
7803C0
7001C0
F001E0
F001E0
F001E0
F001E0
F001E0
F001E0
F001E0
7001C0
7803C0
380380
1C0700
0E0E00
03F800
ENDCHAR
STARTCHAR uni1ED3
ENCODING 7891
SWIDTH 617 0
DWIDTH 16 0
BBX 14 24 1 0
BITMAP
1E00
0600
0300
0180
0000
0700
0F80
1DC0
3060
0000
0FC0
3CF0
7878
7038
F03C
F03C
F03C
F03C
F03C
F03C
7038
7878
3CF0
0FC0
ENDCHAR
STARTCHAR uni1ED6
ENCODING 7894
SWIDTH 810 0
DWIDTH 21 0
BBX 19 29 1 0
BITMAP
038400
07FC00
07F800
043800
000000
00E000
01F000
03B800
060C00
000000
03F800
0E0E00
1C0700
380380
7803C0
7001C0
F001E0
F001E0
F001E0
F001E0
F001E0
F001E0
F001E0
7001C0
7803C0
380380
1C0700
0E0E00
03F800
ENDCHAR
STARTCHAR uni1ED7
ENCODING 7895
SWIDTH 617 0
DWIDTH 16 0
BBX 14 24 1 0
BITMAP
1C20
3FE0
3FC0
21C0
0000
0700
0F80
1DC0
3060
0000
0FC0
3CF0
7878
7038
F03C
F03C
F03C
F03C
F03C
F03C
7038
7878
3CF0
0FC0
ENDCHAR
STARTCHAR uni1ED8
ENCODING 7896
SWIDTH 810 0
DWIDTH 21 0
BBX 19 29 1 -5
BITMAP
00E000
01F000
03B800
060C00
000000
03F800
0E0E00
1C0700
380380
7803C0
7001C0
F001E0
F001E0
F001E0
F001E0
F001E0
F001E0
F001E0
7001C0
7803C0
380380
1C0700
0E0E00
03F800
000000
00E000
00E000
00E000
00E000
ENDCHAR
STARTCHAR uni1ED9
ENCODING 7897
SWIDTH 617 0
DWIDTH 16 0
BBX 14 24 1 -5
BITMAP
0380
07C0
0EE0
1830
0000
0FC0
3CF0
7878
7038
F03C
F03C
F03C
F03C
F03C
F03C
7038
7878
3CF0
0FC0
0000
0380
0380
0380
0380
ENDCHAR
STARTCHAR uni1EDA
ENCODING 7898
SWIDTH 810 0
DWIDTH 21 0
BBX 21 24 1 0
BITMAP
000F00
000C00
001800
003000
000000
03F878
0E0E78
1C0778
3803F8
7803F8
7001F8
F001F0
F001E0
F001E0
F001E0
F001E0
F001E0
F001E0
7001C0
7803C0
380380
1C0700
0E0E00
03F800
ENDCHAR
STARTCHAR uni1EDB
ENCODING 7899
SWIDTH 617 0
DWIDTH 16 0
BBX 17 19 1 0
BITMAP
007800
006000
00C000
018000
000000
0FC780
3CF780
787F80
703F80
F03F80
F03F80
F03F00
F03E00
F03C00
F03C00
703800
787800
3CF000
0FC000
ENDCHAR
STARTCHAR uni1EDC
ENCODING 7900
SWIDTH 810 0
DWIDTH 21 0
BBX 21 24 1 0
BITMAP
00F000
003000
001800
000C00
000000
03F878
0E0E78
1C0778
3803F8
7803F8
7001F8
F001F0
F001E0
F001E0
F001E0
F001E0
F001E0
F001E0
7001C0
7803C0
380380
1C0700
0E0E00
03F800
ENDCHAR
STARTCHAR uni1EDD
ENCODING 7901
SWIDTH 617 0
DWIDTH 16 0
BBX 17 19 1 0
BITMAP
078000
018000
00C000
006000
000000
0FC780
3CF780
787F80
703F80
F03F80
F03F80
F03F00
F03E00
F03C00
F03C00
703800
787800
3CF000
0FC000
ENDCHAR
STARTCHAR uni1EE0
ENCODING 7904
SWIDTH 810 0
DWIDTH 21 0
BBX 21 24 1 0
BITMAP
007080
00FF80
00FF00
008700
000000
03F878
0E0E78
1C0778
3803F8
7803F8
7001F8
F001F0
F001E0
F001E0
F001E0
F001E0
F001E0
F001E0
7001C0
7803C0
380380
1C0700
0E0E00
03F800
ENDCHAR
STARTCHAR uni1EE1
ENCODING 7905
SWIDTH 617 0
DWIDTH 16 0
BBX 17 19 1 0
BITMAP
038400
07FC00
07F800
043800
000000
0FC780
3CF780
787F80
703F80
F03F80
F03F80
F03F00
F03E00
F03C00
F03C00
703800
787800
3CF000
0FC000
ENDCHAR
STARTCHAR uni1EE2
ENCODING 7906
SWIDTH 810 0
DWIDTH 21 0
BBX 21 24 1 -5
BITMAP
03F878
0E0E78
1C0778
3803F8
7803F8
7001F8
F001F0
F001E0
F001E0
F001E0
F001E0
F001E0
F001E0
7001C0
7803C0
380380
1C0700
0E0E00
03F800
000000
00E000
00E000
00E000
00E000
ENDCHAR
STARTCHAR uni1EE3
ENCODING 7907
SWIDTH 617 0
DWIDTH 16 0
BBX 17 19 1 -5
BITMAP
0FC780
3CF780
787F80
703F80
F03F80
F03F80
F03F00
F03E00
F03C00
F03C00
703800
787800
3CF000
0FC000
000000
038000
038000
038000
038000
ENDCHAR
STARTCHAR uni1EE4
ENCODING 7908
SWIDTH 747 0
DWIDTH 19 0
BBX 19 24 0 -5
BITMAP
FF07E0
3C0180
3C0180
3C0180
3C0180
3C0180
3C0180
3C0180
3C0180
3C0180
3C0180
3C0180
3C0180
3C0180
3C0180
1C0300
1E0300
0F0600
03F800
000000
01C000
01C000
01C000
01C000
ENDCHAR
STARTCHAR uni1EE5
ENCODING 7909
SWIDTH 654 0
DWIDTH 17 0
BBX 17 19 0 -5
BITMAP
FC7E00
3C1E00
3C1E00
3C1E00
3C1E00
3C1E00
3C1E00
3C1E00
3C1E00
3C1E00
3C7E00
3FDE00
1F9F00
0F1F80
000000
00E000
00E000
00E000
00E000
ENDCHAR
STARTCHAR uni1EE8
ENCODING 7912
SWIDTH 747 0
DWIDTH 19 0
BBX 21 24 0 0
BITMAP
001E00
001800
003000
006000
000000
FF07F8
3C01F8
3C01F8
3C01F8
3C01B8
3C01B8
3C01B0
3C01E0
3C0180
3C0180
3C0180
3C0180
3C0180
3C0180
3C0180
1C0300
1E0300
0F0600
03F800
ENDCHAR
STARTCHAR uni1EE9
ENCODING 7913
SWIDTH 654 0
DWIDTH 17 0
BBX 19 19 0 0
BITMAP
003C00
003000
006000
00C000
000000
FC7FE0
3C1FE0
3C1FE0
3C1FE0
3C1EE0
3C1EE0
3C1EC0
3C1F80
3C1E00
3C1E00
3C7E00
3FDE00
1F9F00
0F1F80
ENDCHAR
STARTCHAR uni1EEA
ENCODING 7914
SWIDTH 747 0
DWIDTH 19 0
BBX 21 24 0 0
BITMAP
01E000
006000
003000
001800
000000
FF07F8
3C01F8
3C01F8
3C01F8
3C01B8
3C01B8
3C01B0
3C01E0
3C0180
3C0180
3C0180
3C0180
3C0180
3C0180
3C0180
1C0300
1E0300
0F0600
03F800
ENDCHAR
STARTCHAR uni1EEB
ENCODING 7915
SWIDTH 654 0
DWIDTH 17 0
BBX 19 19 0 0
BITMAP
03C000
00C000
006000
003000
000000
FC7FE0
3C1FE0
3C1FE0
3C1FE0
3C1EE0
3C1EE0
3C1EC0
3C1F80
3C1E00
3C1E00
3C7E00
3FDE00
1F9F00
0F1F80
ENDCHAR
STARTCHAR uni1EEE
ENCODING 7918
SWIDTH 747 0
DWIDTH 19 0
BBX 21 24 0 0
BITMAP
00E100
01FF00
01FE00
010E00
000000
FF07F8
3C01F8
3C01F8
3C01F8
3C01B8
3C01B8
3C01B0
3C01E0
3C0180
3C0180
3C0180
3C0180
3C0180
3C0180
3C0180
1C0300
1E0300
0F0600
03F800
ENDCHAR
STARTCHAR uni1EEF
ENCODING 7919
SWIDTH 654 0
DWIDTH 17 0
BBX 19 19 0 0
BITMAP
01C200
03FE00
03FC00
021C00
000000
FC7FE0
3C1FE0
3C1FE0
3C1FE0
3C1EE0
3C1EE0
3C1EC0
3C1F80
3C1E00
3C1E00
3C7E00
3FDE00
1F9F00
0F1F80
ENDCHAR
STARTCHAR uni1EF0
ENCODING 7920
SWIDTH 747 0
DWIDTH 19 0
BBX 21 24 0 -5
BITMAP
FF07F8
3C01F8
3C01F8
3C01F8
3C01B8
3C01B8
3C01B0
3C01E0
3C0180
3C0180
3C0180
3C0180
3C0180
3C0180
3C0180
1C0300
1E0300
0F0600
03F800
000000
00E000
00E000
00E000
00E000
ENDCHAR
STARTCHAR uni1EF1
ENCODING 7921
SWIDTH 654 0
DWIDTH 17 0
BBX 19 19 0 -5
BITMAP
FC7FE0
3C1FE0
3C1FE0
3C1FE0
3C1EE0
3C1EE0
3C1EC0
3C1F80
3C1E00
3C1E00
3C7E00
3FDE00
1F9F00
0F1F80
000000
00E000
00E000
00E000
00E000
ENDCHAR
STARTCHAR Ygrave
ENCODING 7922
SWIDTH 717 0
DWIDTH 19 0
BBX 18 24 0 0
BITMAP
0F0000
030000
018000
00C000
000000
FF07C0
7C0380
3E0300
1E0200
1F0400
0F0400
0F8800
07C800
03D000
03F000
01E000
01E000
01E000
01E000
01E000
01E000
01E000
01E000
07F800
ENDCHAR
STARTCHAR ygrave
ENCODING 7923
SWIDTH 654 0
DWIDTH 17 0
BBX 17 24 0 -5
BITMAP
0F0000
030000
018000
00C000
000000
FF0F80
7C0600
3E0600
1E0400
1E0800
0F0800
0F1000
0F9000
07A000
07E000
03C000
03C000
018000
018000
010000
030000
060000
0C0000
1C0000
ENDCHAR
STARTCHAR uni1EF4
ENCODING 7924
SWIDTH 717 0
DWIDTH 19 0
BBX 18 24 0 -5
BITMAP
FF07C0
7C0380
3E0300
1E0200
1F0400
0F0400
0F8800
07C800
03D000
03F000
01E000
01E000
01E000
01E000
01E000
01E000
01E000
01E000
07F800
000000
00E000
00E000
00E000
00E000
ENDCHAR
STARTCHAR uni1EF5
ENCODING 7925
SWIDTH 654 0
DWIDTH 17 0
BBX 17 24 0 -10
BITMAP
FF0F80
7C0600
3E0600
1E0400
1E0800
0F0800
0F1000
0F9000
07A000
07E000
03C000
03C000
018000
018000
010000
030000
060000
0C0000
1C0000
000000
070000
070000
070000
070000
ENDCHAR
STARTCHAR uni1EF8
ENCODING 7928
SWIDTH 717 0
DWIDTH 19 0
BBX 18 24 0 0
BITMAP
070800
0FF800
0FF000
087000
000000
FF07C0
7C0380
3E0300
1E0200
1F0400
0F0400
0F8800
07C800
03D000
03F000
01E000
01E000
01E000
01E000
01E000
01E000
01E000
01E000
07F800
ENDCHAR
STARTCHAR uni1EF9
ENCODING 7929
SWIDTH 654 0
DWIDTH 17 0
BBX 17 24 0 -5
BITMAP
0E1000
1FF000
1FE000
10E000
000000
FF0F80
7C0600
3E0600
1E0400
1E0800
0F0800
0F1000
0F9000
07A000
07E000
03C000
03C000
018000
018000
010000
030000
060000
0C0000
1C0000
ENDCHAR
STARTCHAR uni2000
ENCODING 8192
SWIDTH 500 0
DWIDTH 13 0
BBX 1 1 0 0
BITMAP
00
ENDCHAR
STARTCHAR uni2001
ENCODING 8193
SWIDTH 1000 0
DWIDTH 26 0
BBX 1 1 0 0
BITMAP
00
ENDCHAR
STARTCHAR uni2002
ENCODING 8194
SWIDTH 500 0
DWIDTH 13 0
BBX 1 1 0 0
BITMAP
00
ENDCHAR
STARTCHAR uni2003
ENCODING 8195
SWIDTH 1000 0
DWIDTH 26 0
BBX 1 1 0 0
BITMAP
00
ENDCHAR
STARTCHAR uni2004
ENCODING 8196
SWIDTH 333 0
DWIDTH 9 0
BBX 1 1 0 0
BITMAP
00
ENDCHAR
STARTCHAR uni2005
ENCODING 8197
SWIDTH 250 0
DWIDTH 7 0
BBX 1 1 0 0
BITMAP
00
ENDCHAR
STARTCHAR uni2006
ENCODING 8198
SWIDTH 167 0
DWIDTH 4 0
BBX 1 1 0 0
BITMAP
00
ENDCHAR
STARTCHAR uni2007
ENCODING 8199
SWIDTH 623 0
DWIDTH 16 0
BBX 1 1 0 0
BITMAP
00
ENDCHAR
STARTCHAR uni2008
ENCODING 8200
SWIDTH 265 0
DWIDTH 7 0
BBX 1 1 0 0
BITMAP
00
ENDCHAR
STARTCHAR uni2009
ENCODING 8201
SWIDTH 200 0
DWIDTH 5 0
BBX 1 1 0 0
BITMAP
00
ENDCHAR
STARTCHAR uni200A
ENCODING 8202
SWIDTH 100 0
DWIDTH 3 0
BBX 1 1 0 0
BITMAP
00
ENDCHAR
STARTCHAR uni200B
ENCODING 8203
SWIDTH 0 0
DWIDTH 0 0
BBX 1 1 0 0
BITMAP
00
ENDCHAR
STARTCHAR uni2010
ENCODING 8208
SWIDTH 289 0
DWIDTH 8 0
BBX 6 3 1 7
BITMAP
FC
FC
FC
ENDCHAR
STARTCHAR uni2011
ENCODING 8209
SWIDTH 289 0
DWIDTH 8 0
BBX 6 3 1 7
BITMAP
FC
FC
FC
ENDCHAR
STARTCHAR figuredash
ENCODING 8210
SWIDTH 500 0
DWIDTH 13 0
BBX 11 2 1 7
BITMAP
FFE0
FFE0
ENDCHAR
STARTCHAR endash
ENCODING 8211
SWIDTH 500 0
DWIDTH 13 0
BBX 11 2 1 7
BITMAP
FFE0
FFE0
ENDCHAR
STARTCHAR emdash
ENCODING 8212
SWIDTH 1000 0
DWIDTH 26 0
BBX 24 2 1 7
BITMAP
FFFFFF
FFFFFF
ENDCHAR
STARTCHAR afii00208
ENCODING 8213
SWIDTH 1000 0
DWIDTH 26 0
BBX 24 2 1 7
BITMAP
FFFFFF
FFFFFF
ENDCHAR
STARTCHAR quoteleft
ENCODING 8216
SWIDTH 265 0
DWIDTH 7 0
BBX 4 8 1 12
BITMAP
30
60
E0
E0
F0
F0
F0
F0
ENDCHAR
STARTCHAR quoteright
ENCODING 8217
SWIDTH 265 0
DWIDTH 7 0
BBX 4 8 1 12
BITMAP
F0
F0
F0
F0
70
70
60
C0
ENDCHAR
STARTCHAR quotesinglbase
ENCODING 8218
SWIDTH 265 0
DWIDTH 7 0
BBX 4 9 1 -4
BITMAP
F0
F0
F0
F0
F0
70
70
60
C0
ENDCHAR
STARTCHAR quotereversed
ENCODING 8219
SWIDTH 265 0
DWIDTH 7 0
BBX 4 8 1 12
BITMAP
F0
F0
F0
F0
E0
E0
60
30
ENDCHAR
STARTCHAR quotedblleft
ENCODING 8220
SWIDTH 470 0
DWIDTH 12 0
BBX 9 8 2 12
BITMAP
1080
6300
E700
E700
F780
F780
F780
F780
ENDCHAR
STARTCHAR quotedblright
ENCODING 8221
SWIDTH 470 0
DWIDTH 12 0
BBX 9 8 2 12
BITMAP
F780
F780
F780
F780
7380
7380
6300
8400
ENDCHAR
STARTCHAR quotedblbase
ENCODING 8222
SWIDTH 470 0
DWIDTH 12 0
BBX 9 8 2 -4
BITMAP
F780
F780
F780
F780
7380
7380
6300
C600
ENDCHAR
STARTCHAR uni201F
ENCODING 8223
SWIDTH 470 0
DWIDTH 12 0
BBX 9 8 2 12
BITMAP
F780
F780
F780
F780
E700
E700
6300
1080
ENDCHAR
STARTCHAR dagger
ENCODING 8224
SWIDTH 623 0
DWIDTH 16 0
BBX 14 23 1 -4
BITMAP
0780
0780
0780
0780
0780
0780
E79C
FFFC
E79C
0780
0780
0780
0780
0780
0780
0780
0780
0780
0780
0780
0780
0780
0780
ENDCHAR
STARTCHAR daggerdbl
ENCODING 8225
SWIDTH 623 0
DWIDTH 16 0
BBX 14 23 1 -4
BITMAP
0780
0780
0780
0780
0780
0780
E79C
FFFC
E79C
0780
0780
0780
0780
0780
E79C
FFFC
E79C
0780
0780
0780
0780
0780
0780
ENDCHAR
STARTCHAR bullet
ENCODING 8226
SWIDTH 623 0
DWIDTH 16 0
BBX 9 9 4 4
BITMAP
3E00
7F00
FF80
FF80
FF80
FF80
FF80
7F00
3E00
ENDCHAR
STARTCHAR ellipsis
ENCODING 8230
SWIDTH 1000 0
DWIDTH 26 0
BBX 20 3 3 0
BITMAP
E0E070
E0E070
E0E070
ENDCHAR
STARTCHAR perthousand
ENCODING 8240
SWIDTH 1139 0
DWIDTH 30 0
BBX 29 19 0 0
BITMAP
3E00E000
6301C000
63038000
E3870000
E3860000
E38C0000
E3980000
63380000
63700000
3EE00000
01CF83E0
0198C630
0338EE38
0638EE38
0E38EE38
1C38EE38
3838EE38
7018C630
E00F83E0
ENDCHAR
STARTCHAR guilsinglleft
ENCODING 8249
SWIDTH 337 0
DWIDTH 9 0
BBX 7 12 1 1
BITMAP
06
0E
1C
38
78
F0
F0
78
38
1C
0E
06
ENDCHAR
STARTCHAR guilsinglright
ENCODING 8250
SWIDTH 337 0
DWIDTH 9 0
BBX 7 12 1 1
BITMAP
C0
E0
70
38
3C
1E
1E
3C
38
70
E0
C0
ENDCHAR
STARTCHAR fraction
ENCODING 8260
SWIDTH 55 0
DWIDTH 1 0
BBX 19 19 -6 0
BITMAP
0003E0
000380
000780
000F00
001E00
001C00
003C00
007800
00F000
00E000
01E000
03C000
078000
070000
0F0000
1E0000
3C0000
380000
F80000
ENDCHAR
STARTCHAR oneinferior
ENCODING 8321
SWIDTH 374 0
DWIDTH 10 0
BBX 6 11 -17 -6
BITMAP
F0
30
30
30
30
30
30
30
30
30
FC
ENDCHAR
STARTCHAR twoinferior
ENCODING 8322
SWIDTH 374 0
DWIDTH 10 0
BBX 7 11 -16 -6
BITMAP
FC
CE
86
06
04
0C
10
20
40
FE
FE
ENDCHAR
STARTCHAR threeinferior
ENCODING 8323
SWIDTH 374 0
DWIDTH 10 0
BBX 7 11 -16 -6
BITMAP
FC
8E
86
06
0C
78
0E
06
86
8E
F8
ENDCHAR
STARTCHAR uni20A5
ENCODING 8357
SWIDTH 967 0
DWIDTH 25 0
BBX 24 24 1 -5
BITMAP
000060
0000C0
0000C0
000180
000180
FCF3F0
3DFBF8
3FFFFC
3E3E3C
3C3C3C
3C3C3C
3C3C3C
3C3C3C
3C3C3C
3C3C3C
3C7C3C
3C7C3C
3CFC3C
FFFFFF
018000
018000
030000
030000
060000
ENDCHAR
STARTCHAR uni20A6
ENCODING 8358
SWIDTH 788 0
DWIDTH 20 0
BBX 19 19 1 0
BITMAP
F807E0
3C0180
3E0180
3F0180
3F0180
3F8180
3FFF80
3FFF80
33E180
31F180
30F980
3FFF80
3FFF80
303F80
301F80
301F80
300F80
300780
FC0380
ENDCHAR
STARTCHAR uni20A9
ENCODING 8361
SWIDTH 955 0
DWIDTH 25 0
BBX 25 19 0 0
BITMAP
FE040F80
7C0E0200
3C0E0600
3C0E0400
3E1F0400
1E1F0400
1FFFF800
1FFFF800
1F278800
0F279000
0F47D000
0FFFF000
07FFF000
0783E000
0781E000
0781E000
0381C000
0300C000
0300C000
ENDCHAR
STARTCHAR Euro
ENCODING 8364
SWIDTH 711 0
DWIDTH 18 0
BBX 20 19 -3 0
BITMAP
003FE0
00E070
01C030
038030
078000
070000
FFFE00
FFFE00
0F0000
0F0000
0F0000
FFFE00
FFFE00
078000
078000
03C000
01F030
00FFF0
003FC0
ENDCHAR
STARTCHAR uni20AD
ENCODING 8365
SWIDTH 747 0
DWIDTH 19 0
BBX 19 19 1 0
BITMAP
FF0FC0
3C0700
3C0400
3C0800
3C1000
3C2000
3C4000
3C8000
FFFFE0
FFFFE0
3FE000
3DF000
3CF800
3C7C00
3C3E00
3C3E00
3C1F00
3C0F80
FF3FE0
ENDCHAR
STARTCHAR uni2103
ENCODING 8451
SWIDTH 957 0
DWIDTH 25 0
BBX 23 19 1 0
BITMAP
6007FC
901C0E
903806
607006
00F000
00E000
01E000
01E000
01E000
01E000
01E000
01E000
01E000
00F000
00F000
007800
003E06
001FFE
0007F8
ENDCHAR
STARTCHAR uni2109
ENCODING 8457
SWIDTH 830 0
DWIDTH 22 0
BBX 20 19 1 0
BITMAP
63FFF0
90F030
90F030
60F000
00F000
00F000
00F000
00F000
00F040
00FFC0
00F040
00F000
00F000
00F000
00F000
00F000
00F000
00F800
03FE00
ENDCHAR
STARTCHAR trademark
ENCODING 8482
SWIDTH 1044 0
DWIDTH 27 0
BBX 26 10 0 9
BITMAP
FFE7C7C0
8E23C700
8E23E700
8E23EF00
0E03EF00
0E037700
0E037700
0E037700
0E032700
1F0707C0
ENDCHAR
STARTCHAR uni212A
ENCODING 8490
SWIDTH 747 0
DWIDTH 19 0
BBX 19 19 1 0
BITMAP
FF0FC0
3C0700
3C0400
3C0800
3C1000
3C2000
3C4000
3C8000
3DC000
3FE000
3FE000
3DF000
3CF800
3C7C00
3C3E00
3C3E00
3C1F00
3C0F80
FF3FE0
ENDCHAR
STARTCHAR uni212B
ENCODING 8491
SWIDTH 795 0
DWIDTH 21 0
BBX 21 24 0 0
BITMAP
006000
009000
009000
006000
000000
003000
007000
007000
007800
00F800
00FC00
013C00
013E00
021E00
021F00
040F00
040F80
0FFF80
0807C0
1803C0
1003C0
3001E0
7001E0
F807F8
ENDCHAR
STARTCHAR uni2132
ENCODING 8498
SWIDTH 584 0
DWIDTH 15 0
BBX 14 19 0 0
BITMAP
07FC
01F0
00F0
00F0
00F0
00F0
00F0
00F0
20F0
3FF0
20F0
00F0
00F0
00F0
00F0
00F0
C0F0
C0F0
FFFC
ENDCHAR
STARTCHAR universal
ENCODING 8704
SWIDTH 795 0
DWIDTH 21 0
BBX 21 19 0 0
BITMAP
F807F8
7001E0
3001E0
1003C0
1803C0
0807C0
0FFF80
040F80
040F00
021F00
021E00
013E00
013C00
00FC00
00F800
007800
007000
007000
003000
ENDCHAR
STARTCHAR existential
ENCODING 8707
SWIDTH 601 0
DWIDTH 16 0
BBX 14 19 1 0
BITMAP
FFFC
C0F0
C0F0
00F0
00F0
00F0
00F0
00F0
20F0
3FF0
20F0
20F0
00F0
00F0
00F0
00F0
C0F0
C0F0
FFFC
ENDCHAR
STARTCHAR uni2204
ENCODING 8708
SWIDTH 601 0
DWIDTH 16 0
BBX 14 24 1 -2
BITMAP
000C
0018
0018
FFFC
C0F0
C0F0
00F0
00F0
00F0
01F0
01F0
23F0
3FF0
26F0
26F0
0CF0
0CF0
18F0
18F0
F0F0
F0F0
FFFC
6000
C000
ENDCHAR
STARTCHAR minus
ENCODING 8722
SWIDTH 623 0
DWIDTH 16 0
BBX 15 2 1 7
BITMAP
FFFE
FFFE
ENDCHAR
STARTCHAR fraction
ENCODING 8725
SWIDTH 55 0
DWIDTH 1 0
BBX 19 19 -6 0
BITMAP
0003E0
000380
000780
000F00
001E00
001C00
003C00
007800
00F000
00E000
01E000
03C000
078000
070000
0F0000
1E0000
3C0000
380000
F80000
ENDCHAR
STARTCHAR periodcentered
ENCODING 8729
SWIDTH 623 0
DWIDTH 16 0
BBX 3 4 7 6
BITMAP
E0
E0
E0
E0
ENDCHAR
STARTCHAR uni2236
ENCODING 8758
SWIDTH 265 0
DWIDTH 7 0
BBX 4 14 1 0
BITMAP
F0
F0
F0
F0
00
00
00
00
00
00
F0
F0
F0
F0
ENDCHAR
STARTCHAR uni2259
ENCODING 8793
SWIDTH 623 0
DWIDTH 16 0
BBX 15 12 1 4
BITMAP
0380
07C0
0EE0
1830
0000
FFFE
FFFE
0000
0000
0000
FFFE
FFFE
ENDCHAR
STARTCHAR uni225A
ENCODING 8794
SWIDTH 623 0
DWIDTH 16 0
BBX 15 12 1 4
BITMAP
1830
0EE0
07C0
0380
0000
FFFE
FFFE
0000
0000
0000
FFFE
FFFE
ENDCHAR
STARTCHAR notequal
ENCODING 8800
SWIDTH 623 0
DWIDTH 16 0
BBX 15 24 1 -4
BITMAP
0006
000C
000C
0018
0018
0030
0030
0060
0060
FFFE
FFFE
0180
0180
0300
FFFE
FFFE
0600
0C00
0C00
1800
1800
3000
3000
6000
ENDCHAR
STARTCHAR equivalence
ENCODING 8801
SWIDTH 623 0
DWIDTH 16 0
BBX 15 8 0 4
BITMAP
FFFE
FFFE
0000
FFFE
FFFE
0000
FFFE
FFFE
ENDCHAR
STARTCHAR uni2262
ENCODING 8802
SWIDTH 623 0
DWIDTH 16 0
BBX 15 24 0 -4
BITMAP
0006
000C
000C
0018
0018
0030
0030
0060
FFFE
FFFE
00C0
FFFE
FFFE
0300
FFFE
FFFE
0600
0C00
0C00
1800
1800
3000
3000
6000
ENDCHAR
STARTCHAR lessequal
ENCODING 8804
SWIDTH 623 0
DWIDTH 16 0
BBX 15 19 1 -3
BITMAP
0002
000E
003E
00F8
01E0
0780
1E00
F800
7800
1E00
0780
01E0
00F8
003E
000E
0002
0000
FFFE
FFFE
ENDCHAR
STARTCHAR greaterequal
ENCODING 8805
SWIDTH 623 0
DWIDTH 16 0
BBX 15 19 1 -3
BITMAP
8000
E000
F800
3E00
0F00
03C0
00F0
003C
003E
00F0
03C0
0F00
3E00
F800
E000
8000
0000
FFFE
FFFE
ENDCHAR
STARTCHAR uni226E
ENCODING 8814
SWIDTH 623 0
DWIDTH 16 0
BBX 15 24 1 -4
BITMAP
0006
000C
000C
0018
001A
003E
003E
00F8
01E0
07C0
1EC0
F980
7980
1F00
0780
07E0
06F8
0C3E
0C0E
1802
1800
3000
3000
6000
ENDCHAR
STARTCHAR uni226F
ENCODING 8815
SWIDTH 623 0
DWIDTH 16 0
BBX 15 24 1 -4
BITMAP
0006
000C
000C
0018
8018
E030
F830
3E60
0F60
03C0
00F0
01BC
01BE
03F0
03C0
0F00
3E00
FC00
EC00
9800
1800
3000
3000
6000
ENDCHAR
STARTCHAR uni2270
ENCODING 8816
SWIDTH 623 0
DWIDTH 16 0
BBX 15 24 1 -5
BITMAP
0006
000C
000C
001A
001E
003E
00F8
01E0
07E0
1EC0
F8C0
7980
1F80
0780
03E0
06F8
063E
0C0E
0C02
1800
FFFE
FFFE
3000
6000
ENDCHAR
STARTCHAR uni2271
ENCODING 8817
SWIDTH 623 0
DWIDTH 16 0
BBX 15 24 1 -5
BITMAP
0006
000C
000C
8018
E018
F830
3E30
0F60
03E0
00F0
00FC
01BE
01F0
03C0
0F00
3E00
FE00
EC00
8C00
1800
FFFE
FFFE
3000
6000
ENDCHAR
STARTCHAR fi
ENCODING -1
SWIDTH 672 0
DWIDTH 17 0
BBX 17 20 0 0
BITMAP
0FDE00
1CDE00
3CDE00
3CDE00
3C0000
3C0000
FFFE00
3C1E00
3C1E00
3C1E00
3C1E00
3C1E00
3C1E00
3C1E00
3C1E00
3C1E00
3C1E00
3C1E00
3C1E00
FE7F80
ENDCHAR
STARTCHAR fl
ENCODING -1
SWIDTH 672 0
DWIDTH 17 0
BBX 17 20 0 0
BITMAP
07FE00
1E3E00
1C1E00
3C1E00
3C1E00
3C1E00
FF9E00
3C1E00
3C1E00
3C1E00
3C1E00
3C1E00
3C1E00
3C1E00
3C1E00
3C1E00
3C1E00
3C1E00
3C1E00
FF7F80
ENDCHAR
ENDFONT
